<svg width="72" height="72" viewBox="0 0 72 72" fill="none" xmlns="http://www.w3.org/2000/svg">
<g clip-path="url(#clip0_431_752)">
<path d="M66.29 53.7915C66.7817 52.9401 67.0872 51.9807 67.0872 51.1192V21.2139C67.0872 20.3524 66.7821 19.3932 66.2902 18.5417L35.7539 36.1667L66.29 53.7915Z" fill="#237FF8"/>
<path d="M38.4683 70.7704L64.3746 55.8179C65.1209 55.3871 65.7992 54.6433 66.2909 53.7916L35.7548 36.1667L5.21875 53.7919C5.71046 54.6433 6.38894 55.3873 7.135 55.8179L33.0413 70.7704C34.5336 71.6319 36.976 71.6319 38.4683 70.7704Z" fill="#237FF8"/>
<path d="M66.2915 18.5416C65.7996 17.69 65.1211 16.9462 64.375 16.5154L38.4687 1.56289C36.9764 0.701368 34.534 0.701368 33.0417 1.56289L7.13538 16.5154C5.64285 17.3767 4.42188 19.4912 4.42188 21.214V51.1193C4.42188 51.9808 4.72722 52.9402 5.21913 53.7917L35.7552 36.1668L66.2915 18.5416Z" fill="#237FF8"/>
<path d="M35.7561 57.0496C24.2379 57.0496 14.8672 47.6816 14.8672 36.1668C14.8672 24.6519 24.2379 15.2839 35.7561 15.2839C43.1884 15.2839 50.1201 19.2824 53.8457 25.7188L44.8055 30.9485C42.9408 27.7268 39.4731 25.7253 35.7561 25.7253C29.9969 25.7253 25.3116 30.4092 25.3116 36.1668C25.3116 41.9241 29.9969 46.6082 35.7561 46.6082C39.4735 46.6082 42.9412 44.6067 44.8061 41.3844L53.8463 46.6139C50.1207 53.0509 43.1888 57.0496 35.7561 57.0496Z" fill="#171717"/>
<path d="M56.6446 35.0065H54.3235V32.6863H52.0028V35.0065H49.6816V37.3268H52.0028V39.6472H54.3235V37.3268H56.6446V35.0065Z" fill="#171717"/>
<path d="M65.3477 35.0065H63.0266V32.6863H60.7059V35.0065H58.3848V37.3268H60.7059V39.6472H63.0266V37.3268H65.3477V35.0065Z" fill="#171717"/>
</g>
<defs>
<clipPath id="clip0_431_752">
<rect x="0.75" y="0.916748" width="70.5" height="70.5" rx="20" fill="white"/>
</clipPath>
</defs>
</svg>
