<svg width="72" height="72" viewBox="0 0 72 72" fill="none" xmlns="http://www.w3.org/2000/svg">
<path d="M25.9959 65.7766C21.4677 65.7724 18.6737 63.2224 18.7273 58.5299V46.6584C18.7273 44.2798 19.4239 42.4707 20.8169 41.2328C23.319 38.8224 29.124 38.6757 31.5745 41.2694C33.0846 42.6012 33.6543 45.3218 33.5189 47.8605H28.3217C28.3611 46.8629 28.3083 45.3521 27.7217 44.7831C26.9596 43.7517 24.9468 43.873 24.4146 44.9467C24.0874 45.529 23.9239 46.3912 23.9239 47.5319V57.8376C23.9239 59.9984 24.6747 61.0912 26.1771 61.1152C26.8792 61.1152 27.4129 60.86 27.776 60.3502C28.2829 59.7454 28.3618 58.4059 28.321 57.4372H33.5182C33.8735 62.3771 30.9577 65.838 25.9952 65.7766H25.9959ZM42.4957 65.7766C37.4782 65.8457 35.2335 62.2756 35.3724 57.4372H40.2785C40.1424 59.5465 40.8671 61.4677 42.6043 61.3337C43.379 61.3337 43.9247 61.0912 44.2399 60.6055C44.8391 59.7179 44.9512 57.1545 44.0946 56.1625C43.4961 55.2073 41.343 54.3641 40.2058 53.7959C38.5822 53.0189 37.4133 52.0968 36.6985 51.028C35.0861 48.6564 35.2356 43.4507 37.4979 41.3413C39.6961 38.7385 45.4369 38.6186 47.6372 41.287C48.9944 42.6625 49.5873 45.369 49.4724 47.8598H44.7475C44.7876 46.8361 44.6911 45.1843 44.2934 44.5822C44.015 44.0725 43.4876 43.8173 42.7128 43.8173C41.3317 43.8173 40.6415 44.6428 40.6415 46.2932C40.6563 48.0459 41.3395 48.765 42.9314 49.4975C44.9928 50.2984 47.614 51.6661 48.5643 53.3214C51.3984 58.365 49.454 66.0692 42.495 65.7752L42.4957 65.7766ZM58.3413 65.7766C53.3238 65.8457 51.0791 62.2756 51.2179 57.4372H56.124C55.988 59.5465 56.7127 61.4677 58.4498 61.3337C59.2246 61.3337 59.7703 61.0912 60.0854 60.6055C60.6847 59.7179 60.7968 57.1545 59.9402 56.1625C59.3417 55.2073 57.1886 54.3641 56.0514 53.7959C54.4278 53.0189 53.2589 52.0968 52.544 51.028C50.9317 48.6564 51.0812 43.4507 53.3435 41.3413C55.5417 38.7385 61.2825 38.6186 63.4828 41.287C64.8399 42.6625 65.4328 45.369 65.3179 47.8598H60.593C60.6332 46.8361 60.5366 45.1843 60.139 44.5822C59.8605 44.0725 59.3332 43.8173 58.5584 43.8173C57.1773 43.8173 56.4871 44.6428 56.4871 46.2932C56.5019 48.0459 57.1851 48.765 58.7769 49.4975C60.8384 50.2984 63.4596 51.6661 64.4099 53.3214C67.244 58.365 65.2996 66.0692 58.3406 65.7752L58.3413 65.7766Z" fill="#237FF8"/>
</svg>
