<svg width="71" height="71" viewBox="0 0 71 71" fill="none" xmlns="http://www.w3.org/2000/svg">
<g opacity="0.7">
<mask id="path-2-outside-1_431_778" maskUnits="userSpaceOnUse" x="2.62305" y="29.5583" width="66" height="16" fill="black">
<rect fill="white" x="2.62305" y="29.5583" width="66" height="16"/>
<path d="M23.6146 44.942V30.8397H24.3796V33.058C24.4699 32.9597 24.5533 32.8552 24.6293 32.7453C25.2681 31.4198 26.6156 30.5833 28.0867 30.5998C29.8308 30.5478 31.248 31.1934 32.0809 32.7453C32.6109 33.7094 32.9025 34.7863 32.9315 35.8861C32.9604 36.9859 32.7259 38.0767 32.2473 39.0673C31.4714 40.8065 29.5548 41.6711 27.5029 41.3535C26.8644 41.2992 26.2496 41.0859 25.7147 40.7329C25.1798 40.38 24.7418 39.8986 24.4408 39.3329V44.9414L23.6146 44.942ZM24.3796 35.8283L24.5509 37.4842C24.8532 39.369 25.9676 40.4827 27.7171 40.692C28.5387 40.8271 29.3817 40.6731 30.1025 40.2562C30.8232 39.8393 31.3771 39.1853 31.6697 38.4058C32.3501 36.7841 32.3 34.9483 31.535 33.3646C31.2228 32.6658 30.6916 32.0876 30.0217 31.7175C29.3518 31.3473 28.5796 31.2052 27.8218 31.3128C27.1105 31.3645 26.4329 31.6365 25.8833 32.0909C25.3336 32.5454 24.9392 33.1597 24.7547 33.8486C24.5918 34.5006 24.4665 35.1613 24.3796 35.8277V35.8283ZM48.5501 37.7449C48.4341 38.7378 47.9615 39.6548 47.22 40.3254C46.4786 40.9959 45.5188 41.3743 44.5193 41.3902C41.3115 41.5518 39.8061 39.4216 39.5668 36.9634C39.4004 35.6285 39.6171 34.2738 40.1916 33.0574C40.5914 32.223 41.2466 31.5375 42.062 31.1002C42.8775 30.663 43.811 30.4967 44.7273 30.6255C45.5984 30.6996 46.4242 31.0457 47.0877 31.6149C47.7512 32.1841 48.219 32.9476 48.4247 33.7972C48.5877 34.5713 48.7076 35.3537 48.7839 36.141H40.3593C40.2032 38.3697 41.4008 40.1615 43.0983 40.5935C45.2126 41.1136 47.0197 40.1976 47.6757 38.1873C47.8213 37.6715 48.0869 37.5986 48.5557 37.7449H48.5501ZM40.3532 35.4275H47.8886C47.8415 33.0531 46.3631 31.3274 44.3577 31.3079C42.0935 31.2711 40.4517 32.9277 40.3532 35.4275ZM50.1075 37.7969H50.8462C50.8733 38.3411 51.05 38.8672 51.3568 39.3174C51.6637 39.7676 52.0888 40.1245 52.5853 40.3487C53.2088 40.6293 53.8875 40.7657 54.571 40.7477C55.2545 40.7296 55.9251 40.5577 56.533 40.2447C56.8643 40.0955 57.1419 39.8482 57.3281 39.5362C57.5144 39.2242 57.6004 38.8625 57.5745 38.5C57.5935 38.1505 57.4981 37.8042 57.3027 37.5138C57.1072 37.2234 56.8224 37.0046 56.4913 36.8906C55.6787 36.5883 54.8146 36.4219 53.9867 36.1563C53.1251 35.911 52.2826 35.603 51.4661 35.2347C50.132 34.5836 50.0494 32.0477 51.5597 31.2448C52.333 30.8085 53.2033 30.5727 54.0911 30.559C54.979 30.5453 55.8561 30.7542 56.6425 31.1665C57.6179 31.705 58.1571 32.7924 57.9967 33.8958H57.3634C57.3634 33.8652 57.3058 33.8382 57.3058 33.807C57.2275 31.7876 55.53 31.1561 53.7076 31.3336C53.1569 31.3948 52.6349 31.5612 52.1453 31.8072C51.851 31.9416 51.6058 32.1641 51.4435 32.444C51.2813 32.7239 51.21 33.0473 51.2396 33.3695C51.2403 33.6919 51.3407 34.0062 51.5272 34.2692C51.7137 34.5322 51.9771 34.7309 52.2812 34.8382C53.0767 35.1301 53.9212 35.3173 54.7442 35.5462L56.7331 36.0663C57.1851 36.2147 57.5814 36.4968 57.8697 36.8753C58.1579 37.2538 58.3245 37.7109 58.3474 38.1861C58.5065 39.2539 57.9618 40.3034 56.9986 40.7899C55.2595 41.7739 52.395 41.5139 51.1191 40.2698C50.4661 39.6132 50.102 38.7216 50.1094 37.7963L50.1075 37.7969ZM67.7193 33.8964H67.0266C67.0266 33.8028 66.9898 33.7128 66.9794 33.6412C66.9684 33.1219 66.7791 32.6223 66.4435 32.226C66.1078 31.8297 65.646 31.5608 65.1357 31.4645C64.1729 31.1884 63.146 31.2379 62.2142 31.6053C61.8458 31.7107 61.5214 31.9326 61.2896 32.2377C61.0577 32.5428 60.9309 32.9147 60.9279 33.2979C60.9148 33.6742 61.0319 34.0434 61.2596 34.3433C61.4873 34.6431 61.8115 34.8551 62.1775 34.9434L65.3437 35.7561C65.6861 35.8382 66.0233 35.9408 66.3534 36.0633C67.3631 36.4304 68.0485 37.3679 68.0791 38.4395C68.0943 38.9639 67.9504 39.4807 67.6664 39.922C67.3825 40.3632 66.9717 40.7082 66.4881 40.9117C65.7532 41.2455 64.9567 41.4221 64.1496 41.4303C63.3425 41.4384 62.5426 41.2778 61.8012 40.9588C61.1914 40.6959 60.6769 40.2525 60.3268 39.6883C59.9767 39.124 59.8078 38.4661 59.843 37.803H60.5198C60.7743 39.03 61.617 40.0519 62.7729 40.5354C63.9289 41.0188 65.2489 40.9001 66.3002 40.2196C66.6156 40.0556 66.8774 39.8046 67.0547 39.4964C67.2319 39.1881 67.3171 38.8356 67.3001 38.4805C67.3158 38.1306 67.217 37.7853 67.0186 37.4967C66.8203 37.2081 66.5333 36.9921 66.2011 36.8814C65.3884 36.5791 64.5243 36.4182 63.6964 36.1471C62.83 35.9056 61.9824 35.6011 61.1605 35.2359C59.8583 34.5952 59.7542 32.0801 61.2388 31.2779C62.0217 30.8232 62.909 30.5789 63.8142 30.5688C64.7195 30.5588 65.612 30.7832 66.4048 31.2203C66.8583 31.491 67.2233 31.8876 67.4554 32.362C67.6875 32.8364 67.7766 33.368 67.712 33.8921L67.7193 33.8964ZM22.3559 41.1357C22.0832 41.2388 21.7822 41.2385 21.5097 41.1349C21.2372 41.0313 21.0121 40.8315 20.8768 40.5733L18.1843 36.8496L17.7938 36.3295L14.6692 40.5788C14.5419 40.8259 14.3289 41.0182 14.0702 41.1198C13.8114 41.2214 13.5245 41.2253 13.263 41.1308L17.2884 35.7304L13.5433 30.8507C14.0989 30.65 14.7182 30.8679 15.0272 31.3709L17.8177 35.1405L20.6247 31.3856C20.753 31.1427 20.9661 30.9554 21.2234 30.8594C21.4808 30.7634 21.7645 30.7653 22.0205 30.8648L20.5672 32.793L18.5985 35.3553C18.5439 35.404 18.5002 35.4638 18.4703 35.5307C18.4403 35.5975 18.4249 35.67 18.4249 35.7432C18.4249 35.8165 18.4403 35.8889 18.4703 35.9558C18.5002 36.0226 18.5439 36.0824 18.5985 36.1312L22.3479 41.1357H22.3559ZM39.4475 30.7987V31.5331C38.9208 31.4985 38.3927 31.5748 37.8972 31.757C37.4018 31.9391 36.9501 32.2232 36.5713 32.5907C36.1924 32.9583 35.8948 33.4012 35.6977 33.8908C35.5007 34.3805 35.4084 34.9061 35.427 35.4336V41.162H34.6823V30.8446H35.4166V32.9589C36.3174 31.4168 37.7077 30.8446 39.4524 30.803L39.4475 30.7987ZM3.62427 35.6631L3.95227 34.0432C4.85305 30.8403 8.52472 29.5075 11.0508 31.4914C12.5299 32.6529 12.8989 34.2984 12.8267 36.1526H4.49384C4.35922 39.4645 6.74886 41.4643 9.80552 40.4436C10.8128 40.0764 11.571 39.2393 11.8206 38.199C11.9822 37.6788 12.249 37.5895 12.7373 37.74C12.6559 38.3741 12.4318 38.9814 12.0818 39.5163C11.7318 40.0513 11.2651 40.4999 10.7167 40.8285C9.81075 41.3239 8.77134 41.5202 7.7471 41.3893C6.72285 41.2584 5.76622 40.807 5.014 40.0997C4.26987 39.2631 3.8207 38.2057 3.7332 37.0889C3.7332 36.9053 3.672 36.734 3.62917 36.5687C3.62509 36.2599 3.62305 35.958 3.62305 35.6631H3.62427ZM4.50425 35.4391H12.0397C11.9926 33.0384 10.4774 31.3354 8.45679 31.3195C6.20729 31.2889 4.59787 32.9546 4.49874 35.4287L4.50425 35.4391Z"/>
</mask>
<path d="M23.6146 44.942V30.8397H24.3796V33.058C24.4699 32.9597 24.5533 32.8552 24.6293 32.7453C25.2681 31.4198 26.6156 30.5833 28.0867 30.5998C29.8308 30.5478 31.248 31.1934 32.0809 32.7453C32.6109 33.7094 32.9025 34.7863 32.9315 35.8861C32.9604 36.9859 32.7259 38.0767 32.2473 39.0673C31.4714 40.8065 29.5548 41.6711 27.5029 41.3535C26.8644 41.2992 26.2496 41.0859 25.7147 40.7329C25.1798 40.38 24.7418 39.8986 24.4408 39.3329V44.9414L23.6146 44.942ZM24.3796 35.8283L24.5509 37.4842C24.8532 39.369 25.9676 40.4827 27.7171 40.692C28.5387 40.8271 29.3817 40.6731 30.1025 40.2562C30.8232 39.8393 31.3771 39.1853 31.6697 38.4058C32.3501 36.7841 32.3 34.9483 31.535 33.3646C31.2228 32.6658 30.6916 32.0876 30.0217 31.7175C29.3518 31.3473 28.5796 31.2052 27.8218 31.3128C27.1105 31.3645 26.4329 31.6365 25.8833 32.0909C25.3336 32.5454 24.9392 33.1597 24.7547 33.8486C24.5918 34.5006 24.4665 35.1613 24.3796 35.8277V35.8283ZM48.5501 37.7449C48.4341 38.7378 47.9615 39.6548 47.22 40.3254C46.4786 40.9959 45.5188 41.3743 44.5193 41.3902C41.3115 41.5518 39.8061 39.4216 39.5668 36.9634C39.4004 35.6285 39.6171 34.2738 40.1916 33.0574C40.5914 32.223 41.2466 31.5375 42.062 31.1002C42.8775 30.663 43.811 30.4967 44.7273 30.6255C45.5984 30.6996 46.4242 31.0457 47.0877 31.6149C47.7512 32.1841 48.219 32.9476 48.4247 33.7972C48.5877 34.5713 48.7076 35.3537 48.7839 36.141H40.3593C40.2032 38.3697 41.4008 40.1615 43.0983 40.5935C45.2126 41.1136 47.0197 40.1976 47.6757 38.1873C47.8213 37.6715 48.0869 37.5986 48.5557 37.7449H48.5501ZM40.3532 35.4275H47.8886C47.8415 33.0531 46.3631 31.3274 44.3577 31.3079C42.0935 31.2711 40.4517 32.9277 40.3532 35.4275ZM50.1075 37.7969H50.8462C50.8733 38.3411 51.05 38.8672 51.3568 39.3174C51.6637 39.7676 52.0888 40.1245 52.5853 40.3487C53.2088 40.6293 53.8875 40.7657 54.571 40.7477C55.2545 40.7296 55.9251 40.5577 56.533 40.2447C56.8643 40.0955 57.1419 39.8482 57.3281 39.5362C57.5144 39.2242 57.6004 38.8625 57.5745 38.5C57.5935 38.1505 57.4981 37.8042 57.3027 37.5138C57.1072 37.2234 56.8224 37.0046 56.4913 36.8906C55.6787 36.5883 54.8146 36.4219 53.9867 36.1563C53.1251 35.911 52.2826 35.603 51.4661 35.2347C50.132 34.5836 50.0494 32.0477 51.5597 31.2448C52.333 30.8085 53.2033 30.5727 54.0911 30.559C54.979 30.5453 55.8561 30.7542 56.6425 31.1665C57.6179 31.705 58.1571 32.7924 57.9967 33.8958H57.3634C57.3634 33.8652 57.3058 33.8382 57.3058 33.807C57.2275 31.7876 55.53 31.1561 53.7076 31.3336C53.1569 31.3948 52.6349 31.5612 52.1453 31.8072C51.851 31.9416 51.6058 32.1641 51.4435 32.444C51.2813 32.7239 51.21 33.0473 51.2396 33.3695C51.2403 33.6919 51.3407 34.0062 51.5272 34.2692C51.7137 34.5322 51.9771 34.7309 52.2812 34.8382C53.0767 35.1301 53.9212 35.3173 54.7442 35.5462L56.7331 36.0663C57.1851 36.2147 57.5814 36.4968 57.8697 36.8753C58.1579 37.2538 58.3245 37.7109 58.3474 38.1861C58.5065 39.2539 57.9618 40.3034 56.9986 40.7899C55.2595 41.7739 52.395 41.5139 51.1191 40.2698C50.4661 39.6132 50.102 38.7216 50.1094 37.7963L50.1075 37.7969ZM67.7193 33.8964H67.0266C67.0266 33.8028 66.9898 33.7128 66.9794 33.6412C66.9684 33.1219 66.7791 32.6223 66.4435 32.226C66.1078 31.8297 65.646 31.5608 65.1357 31.4645C64.1729 31.1884 63.146 31.2379 62.2142 31.6053C61.8458 31.7107 61.5214 31.9326 61.2896 32.2377C61.0577 32.5428 60.9309 32.9147 60.9279 33.2979C60.9148 33.6742 61.0319 34.0434 61.2596 34.3433C61.4873 34.6431 61.8115 34.8551 62.1775 34.9434L65.3437 35.7561C65.6861 35.8382 66.0233 35.9408 66.3534 36.0633C67.3631 36.4304 68.0485 37.3679 68.0791 38.4395C68.0943 38.9639 67.9504 39.4807 67.6664 39.922C67.3825 40.3632 66.9717 40.7082 66.4881 40.9117C65.7532 41.2455 64.9567 41.4221 64.1496 41.4303C63.3425 41.4384 62.5426 41.2778 61.8012 40.9588C61.1914 40.6959 60.6769 40.2525 60.3268 39.6883C59.9767 39.124 59.8078 38.4661 59.843 37.803H60.5198C60.7743 39.03 61.617 40.0519 62.7729 40.5354C63.9289 41.0188 65.2489 40.9001 66.3002 40.2196C66.6156 40.0556 66.8774 39.8046 67.0547 39.4964C67.2319 39.1881 67.3171 38.8356 67.3001 38.4805C67.3158 38.1306 67.217 37.7853 67.0186 37.4967C66.8203 37.2081 66.5333 36.9921 66.2011 36.8814C65.3884 36.5791 64.5243 36.4182 63.6964 36.1471C62.83 35.9056 61.9824 35.6011 61.1605 35.2359C59.8583 34.5952 59.7542 32.0801 61.2388 31.2779C62.0217 30.8232 62.909 30.5789 63.8142 30.5688C64.7195 30.5588 65.612 30.7832 66.4048 31.2203C66.8583 31.491 67.2233 31.8876 67.4554 32.362C67.6875 32.8364 67.7766 33.368 67.712 33.8921L67.7193 33.8964ZM22.3559 41.1357C22.0832 41.2388 21.7822 41.2385 21.5097 41.1349C21.2372 41.0313 21.0121 40.8315 20.8768 40.5733L18.1843 36.8496L17.7938 36.3295L14.6692 40.5788C14.5419 40.8259 14.3289 41.0182 14.0702 41.1198C13.8114 41.2214 13.5245 41.2253 13.263 41.1308L17.2884 35.7304L13.5433 30.8507C14.0989 30.65 14.7182 30.8679 15.0272 31.3709L17.8177 35.1405L20.6247 31.3856C20.753 31.1427 20.9661 30.9554 21.2234 30.8594C21.4808 30.7634 21.7645 30.7653 22.0205 30.8648L20.5672 32.793L18.5985 35.3553C18.5439 35.404 18.5002 35.4638 18.4703 35.5307C18.4403 35.5975 18.4249 35.67 18.4249 35.7432C18.4249 35.8165 18.4403 35.8889 18.4703 35.9558C18.5002 36.0226 18.5439 36.0824 18.5985 36.1312L22.3479 41.1357H22.3559ZM39.4475 30.7987V31.5331C38.9208 31.4985 38.3927 31.5748 37.8972 31.757C37.4018 31.9391 36.9501 32.2232 36.5713 32.5907C36.1924 32.9583 35.8948 33.4012 35.6977 33.8908C35.5007 34.3805 35.4084 34.9061 35.427 35.4336V41.162H34.6823V30.8446H35.4166V32.9589C36.3174 31.4168 37.7077 30.8446 39.4524 30.803L39.4475 30.7987ZM3.62427 35.6631L3.95227 34.0432C4.85305 30.8403 8.52472 29.5075 11.0508 31.4914C12.5299 32.6529 12.8989 34.2984 12.8267 36.1526H4.49384C4.35922 39.4645 6.74886 41.4643 9.80552 40.4436C10.8128 40.0764 11.571 39.2393 11.8206 38.199C11.9822 37.6788 12.249 37.5895 12.7373 37.74C12.6559 38.3741 12.4318 38.9814 12.0818 39.5163C11.7318 40.0513 11.2651 40.4999 10.7167 40.8285C9.81075 41.3239 8.77134 41.5202 7.7471 41.3893C6.72285 41.2584 5.76622 40.807 5.014 40.0997C4.26987 39.2631 3.8207 38.2057 3.7332 37.0889C3.7332 36.9053 3.672 36.734 3.62917 36.5687C3.62509 36.2599 3.62305 35.958 3.62305 35.6631H3.62427ZM4.50425 35.4391H12.0397C11.9926 33.0384 10.4774 31.3354 8.45679 31.3195C6.20729 31.2889 4.59787 32.9546 4.49874 35.4287L4.50425 35.4391Z" fill="#237FF8"/>
<path d="M23.6146 44.942V30.8397H24.3796V33.058C24.4699 32.9597 24.5533 32.8552 24.6293 32.7453C25.2681 31.4198 26.6156 30.5833 28.0867 30.5998C29.8308 30.5478 31.248 31.1934 32.0809 32.7453C32.6109 33.7094 32.9025 34.7863 32.9315 35.8861C32.9604 36.9859 32.7259 38.0767 32.2473 39.0673C31.4714 40.8065 29.5548 41.6711 27.5029 41.3535C26.8644 41.2992 26.2496 41.0859 25.7147 40.7329C25.1798 40.38 24.7418 39.8986 24.4408 39.3329V44.9414L23.6146 44.942ZM24.3796 35.8283L24.5509 37.4842C24.8532 39.369 25.9676 40.4827 27.7171 40.692C28.5387 40.8271 29.3817 40.6731 30.1025 40.2562C30.8232 39.8393 31.3771 39.1853 31.6697 38.4058C32.3501 36.7841 32.3 34.9483 31.535 33.3646C31.2228 32.6658 30.6916 32.0876 30.0217 31.7175C29.3518 31.3473 28.5796 31.2052 27.8218 31.3128C27.1105 31.3645 26.4329 31.6365 25.8833 32.0909C25.3336 32.5454 24.9392 33.1597 24.7547 33.8486C24.5918 34.5006 24.4665 35.1613 24.3796 35.8277V35.8283ZM48.5501 37.7449C48.4341 38.7378 47.9615 39.6548 47.22 40.3254C46.4786 40.9959 45.5188 41.3743 44.5193 41.3902C41.3115 41.5518 39.8061 39.4216 39.5668 36.9634C39.4004 35.6285 39.6171 34.2738 40.1916 33.0574C40.5914 32.223 41.2466 31.5375 42.062 31.1002C42.8775 30.663 43.811 30.4967 44.7273 30.6255C45.5984 30.6996 46.4242 31.0457 47.0877 31.6149C47.7512 32.1841 48.219 32.9476 48.4247 33.7972C48.5877 34.5713 48.7076 35.3537 48.7839 36.141H40.3593C40.2032 38.3697 41.4008 40.1615 43.0983 40.5935C45.2126 41.1136 47.0197 40.1976 47.6757 38.1873C47.8213 37.6715 48.0869 37.5986 48.5557 37.7449H48.5501ZM40.3532 35.4275H47.8886C47.8415 33.0531 46.3631 31.3274 44.3577 31.3079C42.0935 31.2711 40.4517 32.9277 40.3532 35.4275ZM50.1075 37.7969H50.8462C50.8733 38.3411 51.05 38.8672 51.3568 39.3174C51.6637 39.7676 52.0888 40.1245 52.5853 40.3487C53.2088 40.6293 53.8875 40.7657 54.571 40.7477C55.2545 40.7296 55.9251 40.5577 56.533 40.2447C56.8643 40.0955 57.1419 39.8482 57.3281 39.5362C57.5144 39.2242 57.6004 38.8625 57.5745 38.5C57.5935 38.1505 57.4981 37.8042 57.3027 37.5138C57.1072 37.2234 56.8224 37.0046 56.4913 36.8906C55.6787 36.5883 54.8146 36.4219 53.9867 36.1563C53.1251 35.911 52.2826 35.603 51.4661 35.2347C50.132 34.5836 50.0494 32.0477 51.5597 31.2448C52.333 30.8085 53.2033 30.5727 54.0911 30.559C54.979 30.5453 55.8561 30.7542 56.6425 31.1665C57.6179 31.705 58.1571 32.7924 57.9967 33.8958H57.3634C57.3634 33.8652 57.3058 33.8382 57.3058 33.807C57.2275 31.7876 55.53 31.1561 53.7076 31.3336C53.1569 31.3948 52.6349 31.5612 52.1453 31.8072C51.851 31.9416 51.6058 32.1641 51.4435 32.444C51.2813 32.7239 51.21 33.0473 51.2396 33.3695C51.2403 33.6919 51.3407 34.0062 51.5272 34.2692C51.7137 34.5322 51.9771 34.7309 52.2812 34.8382C53.0767 35.1301 53.9212 35.3173 54.7442 35.5462L56.7331 36.0663C57.1851 36.2147 57.5814 36.4968 57.8697 36.8753C58.1579 37.2538 58.3245 37.7109 58.3474 38.1861C58.5065 39.2539 57.9618 40.3034 56.9986 40.7899C55.2595 41.7739 52.395 41.5139 51.1191 40.2698C50.4661 39.6132 50.102 38.7216 50.1094 37.7963L50.1075 37.7969ZM67.7193 33.8964H67.0266C67.0266 33.8028 66.9898 33.7128 66.9794 33.6412C66.9684 33.1219 66.7791 32.6223 66.4435 32.226C66.1078 31.8297 65.646 31.5608 65.1357 31.4645C64.1729 31.1884 63.146 31.2379 62.2142 31.6053C61.8458 31.7107 61.5214 31.9326 61.2896 32.2377C61.0577 32.5428 60.9309 32.9147 60.9279 33.2979C60.9148 33.6742 61.0319 34.0434 61.2596 34.3433C61.4873 34.6431 61.8115 34.8551 62.1775 34.9434L65.3437 35.7561C65.6861 35.8382 66.0233 35.9408 66.3534 36.0633C67.3631 36.4304 68.0485 37.3679 68.0791 38.4395C68.0943 38.9639 67.9504 39.4807 67.6664 39.922C67.3825 40.3632 66.9717 40.7082 66.4881 40.9117C65.7532 41.2455 64.9567 41.4221 64.1496 41.4303C63.3425 41.4384 62.5426 41.2778 61.8012 40.9588C61.1914 40.6959 60.6769 40.2525 60.3268 39.6883C59.9767 39.124 59.8078 38.4661 59.843 37.803H60.5198C60.7743 39.03 61.617 40.0519 62.7729 40.5354C63.9289 41.0188 65.2489 40.9001 66.3002 40.2196C66.6156 40.0556 66.8774 39.8046 67.0547 39.4964C67.2319 39.1881 67.3171 38.8356 67.3001 38.4805C67.3158 38.1306 67.217 37.7853 67.0186 37.4967C66.8203 37.2081 66.5333 36.9921 66.2011 36.8814C65.3884 36.5791 64.5243 36.4182 63.6964 36.1471C62.83 35.9056 61.9824 35.6011 61.1605 35.2359C59.8583 34.5952 59.7542 32.0801 61.2388 31.2779C62.0217 30.8232 62.909 30.5789 63.8142 30.5688C64.7195 30.5588 65.612 30.7832 66.4048 31.2203C66.8583 31.491 67.2233 31.8876 67.4554 32.362C67.6875 32.8364 67.7766 33.368 67.712 33.8921L67.7193 33.8964ZM22.3559 41.1357C22.0832 41.2388 21.7822 41.2385 21.5097 41.1349C21.2372 41.0313 21.0121 40.8315 20.8768 40.5733L18.1843 36.8496L17.7938 36.3295L14.6692 40.5788C14.5419 40.8259 14.3289 41.0182 14.0702 41.1198C13.8114 41.2214 13.5245 41.2253 13.263 41.1308L17.2884 35.7304L13.5433 30.8507C14.0989 30.65 14.7182 30.8679 15.0272 31.3709L17.8177 35.1405L20.6247 31.3856C20.753 31.1427 20.9661 30.9554 21.2234 30.8594C21.4808 30.7634 21.7645 30.7653 22.0205 30.8648L20.5672 32.793L18.5985 35.3553C18.5439 35.404 18.5002 35.4638 18.4703 35.5307C18.4403 35.5975 18.4249 35.67 18.4249 35.7432C18.4249 35.8165 18.4403 35.8889 18.4703 35.9558C18.5002 36.0226 18.5439 36.0824 18.5985 36.1312L22.3479 41.1357H22.3559ZM39.4475 30.7987V31.5331C38.9208 31.4985 38.3927 31.5748 37.8972 31.757C37.4018 31.9391 36.9501 32.2232 36.5713 32.5907C36.1924 32.9583 35.8948 33.4012 35.6977 33.8908C35.5007 34.3805 35.4084 34.9061 35.427 35.4336V41.162H34.6823V30.8446H35.4166V32.9589C36.3174 31.4168 37.7077 30.8446 39.4524 30.803L39.4475 30.7987ZM3.62427 35.6631L3.95227 34.0432C4.85305 30.8403 8.52472 29.5075 11.0508 31.4914C12.5299 32.6529 12.8989 34.2984 12.8267 36.1526H4.49384C4.35922 39.4645 6.74886 41.4643 9.80552 40.4436C10.8128 40.0764 11.571 39.2393 11.8206 38.199C11.9822 37.6788 12.249 37.5895 12.7373 37.74C12.6559 38.3741 12.4318 38.9814 12.0818 39.5163C11.7318 40.0513 11.2651 40.4999 10.7167 40.8285C9.81075 41.3239 8.77134 41.5202 7.7471 41.3893C6.72285 41.2584 5.76622 40.807 5.014 40.0997C4.26987 39.2631 3.8207 38.2057 3.7332 37.0889C3.7332 36.9053 3.672 36.734 3.62917 36.5687C3.62509 36.2599 3.62305 35.958 3.62305 35.6631H3.62427ZM4.50425 35.4391H12.0397C11.9926 33.0384 10.4774 31.3354 8.45679 31.3195C6.20729 31.2889 4.59787 32.9546 4.49874 35.4287L4.50425 35.4391Z" stroke="#237FF8" stroke-width="0.4" mask="url(#path-2-outside-1_431_778)"/>
</g>
</svg>
