<svg width="71" height="72" viewBox="0 0 71 72" fill="none" xmlns="http://www.w3.org/2000/svg">
<path fill-rule="evenodd" clip-rule="evenodd" d="M18.3889 25.717C15.1447 23.6177 13 19.983 13 15.8507C13 9.35173 18.3051 4.08325 24.8492 4.08325H45.1508C51.6949 4.08325 57 9.35173 57 15.8507C57 19.983 54.8554 23.6177 51.6111 25.717C54.8554 27.8164 57 31.4512 57 35.5834C57 42.0823 51.6949 47.3508 45.1508 47.3508H44.9348C41.8413 47.3508 39.0247 46.1735 36.9144 44.2455V55.2085C36.9144 61.7801 31.4933 67.0832 24.9029 67.0832C18.3722 67.0832 13 61.8281 13 55.3158C13 51.1836 15.1446 47.5489 18.3887 45.4496C15.1446 43.3502 13 39.7155 13 35.5834C13 31.4512 15.1447 27.8164 18.3889 25.717ZM36.9144 35.5834C36.9144 39.9823 40.5053 43.5483 44.9348 43.5483H45.1508C49.5803 43.5483 53.1711 39.9823 53.1711 35.5834C53.1711 31.1844 49.5803 27.6184 45.1508 27.6184H44.9348C40.5053 27.6184 36.9144 31.1844 36.9144 35.5834ZM33.0856 27.6184H24.8492C20.4197 27.6184 16.8289 31.1844 16.8289 35.5834C16.8289 39.9734 20.4052 43.5338 24.8223 43.5483H24.8348H33.0856V27.6184ZM24.8492 47.3508C24.8402 47.3508 24.8312 47.3508 24.8223 47.3508C20.4052 47.3652 16.8289 50.9257 16.8289 55.3158C16.8289 59.7014 20.46 63.2808 24.9029 63.2808C29.4055 63.2808 33.0856 59.6534 33.0856 55.2085V47.3508H24.8492ZM33.0856 23.8157H24.8492C20.4197 23.8157 16.8289 20.2497 16.8289 15.8507C16.8289 11.4517 20.4197 7.88572 24.8492 7.88572H33.0856V23.8157ZM45.1508 23.8157H36.9144V7.88572H45.1508C49.5803 7.88572 53.1711 11.4517 53.1711 15.8507C53.1711 20.2497 49.5803 23.8157 45.1508 23.8157Z" fill="#237FF8"/>
</svg>
