<svg width="71" height="72" viewBox="0 0 71 72" fill="none" xmlns="http://www.w3.org/2000/svg">
<path d="M67.3807 32.8591L38.222 3.70187C36.5431 2.02223 33.8198 2.02223 32.1394 3.70187L26.0851 9.7576L33.7653 17.4377C35.5503 16.8345 37.597 17.2393 39.0193 18.6624C40.4504 20.0942 40.8516 22.1583 40.2331 23.9499L47.6363 31.3524C49.4279 30.7346 51.4935 31.1344 52.9238 32.5669C54.9225 34.5656 54.9225 37.8042 52.9238 39.8044C50.9236 41.8038 47.685 41.8038 45.6841 39.8044C44.1811 38.2999 43.809 36.0904 44.5714 34.2385L37.6667 27.3346V45.5025C38.1537 45.7438 38.6138 46.0651 39.0193 46.4707C41.018 48.4694 41.018 51.708 39.0193 53.7089C37.0206 55.7069 33.7798 55.7069 31.7825 53.7089C29.7838 51.7073 29.7838 48.4686 31.7825 46.4707C32.2768 45.9772 32.8488 45.6036 33.4593 45.3536V27.0163C32.8488 26.7663 32.2782 26.3963 31.7825 25.8992C30.2686 24.386 29.9045 22.1634 30.6807 20.3043L23.1096 12.7317L3.1152 32.7239C1.43556 34.405 1.43556 37.1283 3.1152 38.808L32.2753 67.9659C33.9542 69.6455 36.6768 69.6455 38.3579 67.9659L67.3807 38.9431C69.0603 37.2635 69.0603 34.5387 67.3807 32.8591Z" fill="#237FF8"/>
</svg>
