<svg width="71" height="72" viewBox="0 0 71 72" fill="none" xmlns="http://www.w3.org/2000/svg">
<g clip-path="url(#clip0_431_813)">
<path d="M12.5729 0.5H58.4271C65.3792 0.5 71 6.18376 71 13.2137V57.7863C71 64.8162 65.3792 70.5 58.4271 70.5H12.5729C5.62083 70.5 0 64.8162 0 57.7863V13.2137C0 6.18376 5.62083 0.5 12.5729 0.5Z" fill="#237FF8"/>
<path d="M34.5744 42.7627H23.6469L21.4144 49.8428C21.3557 50.114 21.1207 50.2947 20.8563 50.2646H15.3338C15.0107 50.2646 14.9226 50.0838 15.0107 49.7223L24.4694 21.7934C24.5576 21.4922 24.6457 21.1608 24.7632 20.7992C24.8807 20.1665 24.9394 19.5037 24.9394 18.8409C24.9101 18.6902 25.0276 18.5396 25.1744 18.5095H32.7826C33.0176 18.5095 33.1351 18.5999 33.1644 18.7505L43.8863 49.7825C43.9744 50.114 43.8863 50.2646 43.5926 50.2646H37.4532C37.2476 50.2947 37.0419 50.1441 36.9832 49.9332L34.5744 42.7627ZM25.3507 36.6466H32.8119C32.6357 36.014 32.4007 35.2608 32.1363 34.4774C31.8719 33.664 31.6076 32.7902 31.3432 31.8864C31.0494 30.9524 30.7851 30.0486 30.4913 29.1146C30.1976 28.1806 29.9332 27.3069 29.6982 26.4332C29.4632 25.5896 29.2576 24.8063 29.0519 24.0832H28.9932C28.7288 25.3787 28.4057 26.6742 27.9944 27.9697C27.5538 29.4159 27.1132 30.9223 26.6432 32.4287C26.2319 33.9652 25.7913 35.3813 25.3507 36.6466ZM50.4369 23.7819C49.4676 23.812 48.5276 23.4204 47.8226 22.7274C47.1469 21.9742 46.7944 20.98 46.8238 19.9556C46.7944 18.9313 47.1763 17.9672 47.8813 17.2742C48.5863 16.5813 49.5263 16.2197 50.4957 16.2197C51.6413 16.2197 52.5226 16.5813 53.1688 17.2742C53.8151 17.9973 54.1676 18.9614 54.1382 19.9556C54.1676 20.98 53.8151 21.9742 53.1101 22.7274C52.4344 23.4505 51.4357 23.8422 50.4369 23.7819ZM47.1469 49.9332V26.7345C47.1469 26.4332 47.2644 26.3127 47.5288 26.3127H53.3451C53.6094 26.3127 53.7269 26.4633 53.7269 26.7345V49.9332C53.7269 50.2646 53.6094 50.4152 53.3451 50.4152H47.5876C47.2938 50.4152 47.1469 50.2345 47.1469 49.9332Z" fill="#171717"/>
</g>
<defs>
<clipPath id="clip0_431_813">
<path d="M0.5 20.5833C0.5 9.53756 9.45431 0.583252 20.5 0.583252H51C62.0457 0.583252 71 9.53756 71 20.5833V51.0833C71 62.1289 62.0457 71.0833 51 71.0833H20.5C9.45431 71.0833 0.5 62.1289 0.5 51.0833V20.5833Z" fill="white"/>
</clipPath>
</defs>
</svg>
