<svg width="73" height="72" viewBox="0 0 73 72" fill="none" xmlns="http://www.w3.org/2000/svg">
<g clip-path="url(#clip0_431_762)">
<path d="M26.7853 55.1567C26.7853 55.1567 24.1039 56.7968 28.6507 57.2654C34.1301 57.9682 37.0448 57.8512 43.1072 56.6796C43.1072 56.6796 44.7394 57.734 46.9545 58.5541C33.3141 64.4115 16.0595 58.2025 26.7853 55.1567ZM25.0365 47.5421C25.0365 47.5421 22.122 49.7678 26.6687 50.2364C32.6146 50.8222 37.278 50.9393 45.3223 49.2992C45.3223 49.2992 46.3716 50.4707 48.1203 51.0565C31.6819 55.9768 13.2613 51.5251 25.0365 47.5421ZM57.214 60.897C57.214 60.897 59.1959 62.5371 54.9989 63.8257C47.1876 66.1687 22.2384 66.8715 15.2433 63.8257C12.795 62.7714 17.4584 61.2484 18.974 61.0141C20.4896 60.6627 21.3056 60.6627 21.3056 60.6627C18.6243 58.7883 3.46821 64.5286 13.611 66.1687C41.4748 70.7375 64.4424 64.1772 57.214 60.897ZM28.0677 39.5759C28.0677 39.5759 15.36 42.6218 23.521 43.6761C27.0185 44.1447 33.897 44.0276 40.3092 43.559C45.5555 43.0904 50.8019 42.1532 50.8019 42.1532C50.8019 42.1532 48.9365 42.9732 47.654 43.7933C34.7132 47.1906 9.8805 45.6677 16.9922 42.1532C23.0546 39.2244 28.0677 39.5759 28.0677 39.5759ZM50.8019 52.3451C63.8594 45.5505 57.797 38.9902 53.5999 39.8103C52.5507 40.0445 52.0843 40.2789 52.0843 40.2789C52.0843 40.2789 52.4341 39.5759 53.2501 39.3417C61.5277 36.4129 68.0565 48.1277 50.5688 52.6966C50.5688 52.6966 50.6853 52.5794 50.8019 52.3451ZM29.3502 70.8546C41.9415 71.6747 61.178 70.386 61.6442 64.4115C61.6442 64.4115 60.7116 66.7545 51.2682 68.5116C40.5424 70.5032 27.2518 70.2689 19.4405 68.9802C19.4405 68.9802 21.0727 70.386 29.3502 70.8546Z" fill="#237FF8"/>
<path d="M42.8743 0.916748C42.8743 0.916748 50.1026 8.29711 35.9958 19.4263C24.687 28.4467 33.4309 33.6012 35.9958 39.4586C29.3504 33.4842 24.5704 28.2124 27.8348 23.2921C32.6149 16.0289 45.7889 12.5145 42.8743 0.916748ZM39.1436 34.5385C42.5245 38.4044 38.2109 41.9189 38.2109 41.9189C38.2109 41.9189 46.8382 37.4672 42.8743 31.9612C39.2601 26.6896 36.4621 24.1123 51.6182 15.3261C51.6182 15.3261 27.7183 21.3007 39.1436 34.5385ZM30.5163 97.4474V85.9668C30.5163 83.038 28.8841 81.0466 24.8036 81.0466C22.4719 81.0466 20.49 81.6323 18.7411 82.3351L19.3241 84.4438C20.6065 83.9752 22.2387 83.5066 23.9875 83.5066C26.2026 83.5066 27.2519 84.4438 27.2519 86.3182V87.8412H26.0861C20.49 87.8412 17.9251 89.9499 17.9251 93.3471C17.9251 96.1587 19.6739 97.7988 22.8217 97.7988C24.8036 97.7988 26.3193 96.8616 27.7183 95.6901L27.9515 97.4474L30.5163 97.4474ZM27.2519 93.6986C26.0861 94.7529 24.8036 95.3387 23.6377 95.3387C22.1222 95.3387 21.1895 94.4016 21.1895 92.7615C21.1895 91.1213 22.1222 89.9499 25.8529 89.9499H27.2519L27.2519 93.6986ZM41.4753 97.4474H37.3947L32.4982 81.398H35.9958L39.027 91.2385L39.7265 94.1672C41.2421 89.9499 42.408 85.6153 42.8743 81.398H46.3719C45.4392 86.6697 43.8071 92.4099 41.4753 97.4474ZM60.3621 97.4474V85.9668C60.3621 83.038 58.7299 81.0466 54.6494 81.0466C52.3176 81.0466 50.3357 81.6323 48.5869 82.3351L49.0533 84.4438C50.4523 83.9752 52.0845 83.5066 53.8333 83.5066C56.0484 83.5066 57.0977 84.4438 57.0977 86.3182V87.8412H55.9319C50.3357 87.8412 47.7709 89.9499 47.7709 93.3471C47.7709 96.1587 49.4031 97.7988 52.5509 97.7988C54.6494 97.7988 56.165 96.8616 57.5641 95.6901L57.7972 97.4474L60.3621 97.4474ZM57.0977 93.6986C55.9319 94.7529 54.6494 95.3387 53.4835 95.3387C51.9679 95.3387 51.0353 94.4016 51.0353 92.7615C51.0353 91.1213 51.9679 89.9499 55.6986 89.9499H57.0977L57.0977 93.6986ZM14.3109 100.142C13.3782 101.548 11.9792 102.602 10.2305 103.188L8.71484 101.313C9.88066 100.61 11.0466 99.5561 11.5129 98.6189C11.9792 97.7988 12.0959 96.6273 12.0959 93.9329V75.6577H15.5934V93.6986C15.5934 97.3302 15.2436 98.736 14.3109 100.142Z" fill="#237FF8"/>
</g>
<defs>
<clipPath id="clip0_431_762">
<path d="M0.25 20.9167C0.25 9.87105 9.20431 0.916748 20.25 0.916748H52.25C63.2957 0.916748 72.25 9.87105 72.25 20.9167V51.4167C72.25 62.4624 63.2957 71.4167 52.25 71.4167H20.25C9.20431 71.4167 0.25 62.4624 0.25 51.4167V20.9167Z" fill="white"/>
</clipPath>
</defs>
</svg>
