<svg width="72" height="72" viewBox="0 0 72 72" fill="none" xmlns="http://www.w3.org/2000/svg">
<path d="M48.1078 55.9951C49.5279 58.3138 51.3755 60.0181 54.6431 60.0181C57.3881 60.0181 59.1417 58.6462 59.1417 56.7505C59.1417 54.4788 57.34 53.6742 54.3186 52.3526L52.6624 51.642C47.8818 49.6054 44.7059 47.0539 44.7059 41.6601C44.7059 36.6916 48.4917 32.9092 54.4081 32.9092C58.6202 32.9092 61.6483 34.3751 63.8305 38.2135L58.6717 41.5258C57.5358 39.4892 56.3105 38.6868 54.4081 38.6868C52.4677 38.6868 51.2378 39.9178 51.2378 41.5258C51.2378 43.5133 52.4688 44.3179 55.3112 45.5488L56.9673 46.2583C62.5962 48.6721 65.7743 51.1329 65.7743 56.6654C65.7743 62.63 61.0888 65.8976 54.7964 65.8976C48.6439 65.8976 44.669 62.9657 42.7241 59.1229L48.1078 55.9951ZM24.7052 56.5692C25.7459 58.4156 26.6926 59.9767 28.9688 59.9767C31.1453 59.9767 32.5184 59.1251 32.5184 55.8138V33.2874H39.1431V55.9034C39.1431 62.7631 35.1213 65.8853 29.2508 65.8853C23.9465 65.8853 20.8747 63.1403 19.3125 59.834L24.7052 56.5692Z" fill="#237FF8"/>
</svg>
