<svg width="71" height="71" viewBox="0 0 71 71" fill="none" xmlns="http://www.w3.org/2000/svg">
<path d="M27.3632 23.75L14.5816 47.25H2.9375L12.9186 28.9011C14.4657 26.055 18.3256 23.75 21.5412 23.75H27.3632ZM55.9183 29.625C55.9183 26.3791 58.5248 23.75 61.7404 23.75C64.956 23.75 67.5625 26.3791 67.5625 29.625C67.5625 32.8709 64.956 35.5 61.7404 35.5C58.5248 35.5 55.9183 32.8709 55.9183 29.625ZM29.5465 23.75H41.1907L28.4091 47.25H16.7649L29.5465 23.75ZM43.2985 23.75H54.9426L44.9642 42.0989C43.4171 44.945 39.5546 47.25 36.3389 47.25H30.5169L43.2985 23.75Z" fill="#237FF8"/>
</svg>
