<svg width="71" height="72" viewBox="0 0 71 72" fill="none" xmlns="http://www.w3.org/2000/svg">
<path d="M17.791 55.5809H15.2836C15.1949 51.3486 14.9507 47.3697 14.5515 43.6412H14.5292L10.7116 55.5809H8.80259L5.00778 43.6412H4.98597C4.70446 47.2209 4.52713 51.2008 4.45348 55.5809H2.16797C2.31526 50.2545 2.68544 45.261 3.27705 40.5999H6.3848L10.0018 51.6078H10.0241L13.6634 40.5999H16.6369C17.2881 46.0595 17.6728 51.0535 17.791 55.5809ZM28.6652 44.5279C27.6444 50.068 26.2974 54.0934 24.6258 56.6062C23.3233 58.5404 21.8964 59.5085 20.3425 59.5085C19.9283 59.5085 19.4171 59.3835 18.8114 59.1354V57.7996C19.1075 57.8422 19.4549 57.8664 19.8541 57.8664C20.58 57.8664 21.1633 57.6668 21.6081 57.2666C22.1401 56.7791 22.4061 56.2312 22.4061 55.625C22.4061 55.2093 22.1988 54.3594 21.785 53.0725L19.0334 44.5274H21.4967L23.4716 50.9183C23.9154 52.3695 24.1005 53.3826 24.0264 53.9597C25.1064 51.0753 25.8608 47.9302 26.2906 44.5269H28.6652V44.5279Z" fill="#237FF8"/>
<path d="M62.0426 55.5811H54.9201V40.6001H57.3161V53.737H62.0426V55.5811ZM53.0556 55.9431L50.3016 54.584C50.5458 54.3834 50.7793 54.1663 50.9896 53.9149C52.1602 52.5398 52.7441 50.5062 52.7441 47.8127C52.7441 42.8565 50.7992 40.3772 46.908 40.3772C44.9999 40.3772 43.5114 41.0061 42.4469 42.2644C41.2773 43.6405 40.6934 45.6668 40.6934 48.3457C40.6934 50.9791 41.2109 52.9109 42.2463 54.1363C43.1936 55.2463 44.6215 55.8021 46.531 55.8021C47.2432 55.8021 47.8969 55.7149 48.4923 55.539L52.0778 57.6263L53.0556 55.9431ZM44.134 52.5834C43.5274 51.6075 43.2241 50.0406 43.2241 47.8801C43.2241 44.108 44.37 42.2199 46.6642 42.2199C47.8634 42.2199 48.7424 42.6714 49.3044 43.5726C49.9101 44.5499 50.2148 46.1028 50.2148 48.2333C50.2148 52.0363 49.068 53.9381 46.7752 53.9381C45.5755 53.9386 44.6966 53.4885 44.134 52.5834ZM39.6493 51.4288C39.6493 52.6992 39.1831 53.7414 38.2519 54.5578C37.3197 55.3709 36.0696 55.7783 34.5031 55.7783C33.0379 55.7783 31.6173 55.3103 30.2422 54.379L30.8861 53.0926C32.0693 53.6852 33.1406 53.9798 34.1024 53.9798C35.0051 53.9798 35.7106 53.7797 36.2222 53.3828C36.7334 52.9846 37.0382 52.4259 37.0382 51.7195C37.0382 50.8294 36.4175 50.0687 35.2788 49.4315C34.2289 48.8549 32.1289 47.6494 32.1289 47.6494C30.9908 46.8199 30.421 45.9294 30.421 44.4622C30.421 43.248 30.8459 42.2678 31.6963 41.5221C32.5476 40.7735 33.646 40.4005 34.9925 40.4005C36.3831 40.4005 37.6472 40.7731 38.7858 41.5105L38.2083 42.7974C37.2344 42.3836 36.2731 42.1767 35.3249 42.1767C34.5569 42.1767 33.9638 42.3613 33.5515 42.732C33.1358 43.1012 32.8795 43.5736 32.8795 44.1531C32.8795 45.0388 33.5132 45.8092 34.6829 46.459C35.7469 47.0365 37.8992 48.2629 37.8992 48.2629C39.0664 49.0909 39.6493 49.9732 39.6493 51.4288Z" fill="#237FF8"/>
<path d="M65.0518 35.5824C63.6031 35.5456 62.4814 35.6915 61.5399 36.0897C61.2681 36.1983 60.8359 36.1983 60.7981 36.5418C60.9449 36.6872 60.9619 36.9217 61.0893 37.1223C61.3064 37.4842 61.6848 37.9711 62.0303 38.225C62.4097 38.5158 62.7905 38.8036 63.1898 39.057C63.8938 39.4926 64.6918 39.746 65.3779 40.1801C65.7776 40.4325 66.1749 40.7591 66.5751 41.0309C66.7719 41.1758 66.8978 41.4108 67.1532 41.5014V41.4462C67.0253 41.2834 66.9889 41.0479 66.8634 40.8667L66.3198 40.3424C65.7946 39.6369 65.1419 39.0211 64.4379 38.5153C63.8584 38.116 62.5909 37.5733 62.3559 36.9057L62.3191 36.8688C62.7173 36.8315 63.1898 36.6872 63.5682 36.5762C64.184 36.4139 64.7456 36.4507 65.3774 36.2884C65.6681 36.2157 65.9564 36.1246 66.2481 36.035V35.8717C65.9205 35.5456 65.687 35.1124 65.3425 34.8043C64.4209 34.0082 63.4054 33.2296 62.3559 32.5779C61.7938 32.215 61.0709 31.9814 60.4725 31.6728C60.2569 31.5638 59.8935 31.51 59.7666 31.3288C59.4419 30.9305 59.2593 30.4062 59.0238 29.9348C58.5005 28.9401 57.9922 27.8363 57.5407 26.7844C57.2141 26.0789 57.0154 25.3744 56.6172 24.7218C54.7517 21.645 52.7259 19.7815 49.6124 17.9525C48.9432 17.5716 48.1472 17.4093 47.2968 17.2097L45.9387 17.138C45.6489 17.011 45.3587 16.6665 45.1058 16.5037C44.0728 15.8525 41.4132 14.4411 40.6535 16.3046C40.1641 17.4825 41.3774 18.6405 41.7941 19.2379C42.1017 19.6527 42.5005 20.1246 42.7156 20.5956C42.843 20.9032 42.8789 21.2298 43.0063 21.5549C43.2961 22.3515 43.5669 23.2377 43.9478 23.9809C44.1464 24.3598 44.363 24.7581 44.6169 25.1012C44.7623 25.3018 45.0152 25.3904 45.0704 25.7175C44.818 26.078 44.7981 26.6221 44.6532 27.0746C44.002 29.1198 44.2564 31.6534 45.1794 33.1564C45.4682 33.609 46.1572 34.6051 47.0788 34.2233C47.8947 33.8977 47.714 32.8662 47.9485 31.9616C48.0023 31.743 47.9669 31.5996 48.0754 31.4562V31.4916C48.3279 31.9979 48.5827 32.4858 48.8168 32.9936C49.3783 33.8798 50.3561 34.8033 51.1706 35.4172C51.6043 35.7447 51.9478 36.3049 52.4909 36.505V36.4507H52.4551C52.3451 36.2884 52.1842 36.2157 52.0398 36.0897C51.7133 35.7636 51.3518 35.3654 51.0984 35.0039C50.3396 33.9898 49.6681 32.8671 49.0721 31.7086C48.7804 31.1466 48.529 30.5322 48.294 29.9711C48.1845 29.7546 48.1845 29.428 48.0028 29.319C47.7305 29.7168 47.3336 30.0613 47.135 30.5487C46.7905 31.3283 46.7546 32.2872 46.6267 33.2843L46.5555 33.3192C45.9789 33.1743 45.7783 32.5779 45.5593 32.0716C45.0171 30.7856 44.926 28.7215 45.3965 27.2379C45.5225 26.8585 46.0676 25.6637 45.85 25.3022C45.741 24.9558 45.3786 24.7586 45.1799 24.4858C44.9464 24.1428 44.6905 23.7086 44.5277 23.3278C44.0936 22.3147 43.8751 21.192 43.4075 20.1793C43.189 19.7074 42.8096 19.219 42.5024 18.7844C42.1574 18.296 41.7781 17.952 41.5053 17.373C41.4152 17.1738 41.2887 16.8482 41.4336 16.6316C41.4689 16.4863 41.5426 16.432 41.687 16.3957C41.9215 16.1975 42.5916 16.4495 42.8266 16.5585C43.4976 16.8298 44.0587 17.0832 44.6188 17.4631C44.8722 17.6448 45.1441 17.9888 45.4692 18.0794H45.85C46.4281 18.2054 47.0797 18.1143 47.6239 18.2781C48.5827 18.5862 49.4515 19.0383 50.2306 19.5262C52.6014 21.0297 54.5565 23.166 55.8763 25.7175C56.0929 26.1332 56.185 26.514 56.3826 26.9477C56.764 27.8353 57.2354 28.7404 57.6138 29.6092C57.9942 30.4595 58.3566 31.3278 58.8998 32.0342C59.1706 32.4141 60.2589 32.6133 60.7468 32.8124C61.1077 32.9747 61.6698 33.1191 61.9954 33.3182C62.6112 33.6976 63.2246 34.1332 63.8037 34.5504C64.0919 34.7675 64.998 35.22 65.0518 35.5824ZM46.5884 19.8528C46.3385 19.8502 46.0894 19.8808 45.8476 19.9439V19.9802H45.8825C46.0283 20.2695 46.2817 20.4701 46.4625 20.7225C46.6083 21.0127 46.7348 21.3005 46.8777 21.5903L46.9126 21.5544C47.1679 21.3737 47.2949 21.084 47.2949 20.6493C47.1849 20.5214 47.1679 20.3964 47.0764 20.2695C46.9698 20.0883 46.7348 19.9981 46.5884 19.8528Z" fill="#237FF8"/>
<path d="M66.7751 55.579H67.1501V53.7436H66.5876L66.1288 54.9961L65.6302 53.7436H65.0885V55.579H65.4427V54.1826H65.4625L65.9849 55.579H66.2547L66.7751 54.1826V55.579ZM63.7541 55.579H64.1509V54.0547H64.6703V53.7432H63.2129V54.0547H63.7531L63.7541 55.579Z" fill="#237FF8"/>
</svg>
