<svg width="71" height="72" viewBox="0 0 71 72" fill="none" xmlns="http://www.w3.org/2000/svg">
<g clip-path="url(#clip0_431_816)">
<path d="M12.4844 0.583252H58.0156C64.9187 0.583252 70.5 6.30761 70.5 13.3877V58.2788C70.5 65.3589 64.9187 71.0833 58.0156 71.0833H12.4844C5.58125 71.0833 0 65.3589 0 58.2788V13.3877C0 6.30761 5.58125 0.583252 12.4844 0.583252Z" fill="#237FF8"/>
<path d="M15.8633 50.0236V19.0217C15.8633 18.8108 15.9514 18.6903 16.157 18.6903C16.6564 18.6903 17.1264 18.6903 17.802 18.6602C18.507 18.63 19.2414 18.63 20.0345 18.5999C20.8277 18.5698 21.6795 18.5698 22.5902 18.5396C23.5008 18.5095 24.382 18.5095 25.2633 18.5095C27.672 18.5095 29.6695 18.8108 31.3145 19.4435C32.7833 19.9557 34.1345 20.7993 35.2508 21.914C36.1908 22.8781 36.9252 24.0531 37.3952 25.3486C37.8358 26.614 38.0708 27.9095 38.0708 29.2653C38.0708 31.8563 37.4833 33.9954 36.3083 35.6826C35.1333 37.3698 33.4883 38.6352 31.5789 39.3582C29.5814 40.1114 27.3783 40.3826 24.9695 40.3826C24.2645 40.3826 23.7945 40.3826 23.5008 40.3525C23.207 40.3223 22.7958 40.3223 22.2377 40.3223V49.9935C22.267 50.2044 22.1202 50.3852 21.9145 50.4153C21.8852 50.4153 21.8558 50.4153 21.797 50.4153H16.2158C15.9808 50.4153 15.8633 50.2948 15.8633 50.0236ZM22.267 24.505V34.6281C22.6783 34.6582 23.0602 34.6884 23.4127 34.6884H24.9695C26.1152 34.6884 27.2608 34.5076 28.3477 34.1461C29.2877 33.8749 30.1102 33.3025 30.7564 32.5493C31.3733 31.7961 31.667 30.7717 31.667 29.4461C31.6964 28.5121 31.4614 27.5781 30.9914 26.7647C30.492 25.9813 29.787 25.3788 28.9352 25.0473C27.8483 24.5954 26.6733 24.4146 25.4689 24.4448C24.7052 24.4448 24.0295 24.4448 23.4714 24.4749C22.8839 24.4448 22.4727 24.4749 22.267 24.505Z" fill="#171717"/>
<path d="M56.4016 32.7902C55.5203 32.3081 54.5803 31.9767 53.5816 31.7658C52.4947 31.5248 51.4078 31.3741 50.2916 31.3741C49.7041 31.344 49.0872 31.4344 48.5291 31.585C48.1472 31.6754 47.8241 31.8863 47.6184 32.1876C47.4716 32.4286 47.3834 32.7299 47.3834 33.0011C47.3834 33.2722 47.5009 33.5434 47.6772 33.7844C47.9416 34.1158 48.2941 34.387 48.6759 34.5979C49.3516 34.9594 50.0566 35.2908 50.7616 35.5921C52.3478 36.1344 53.8753 36.8876 55.2853 37.7915C56.2547 38.4241 57.0478 39.2677 57.6059 40.2921C58.0759 41.2562 58.3109 42.3107 58.2816 43.3953C58.3109 44.8113 57.8997 46.2274 57.1359 47.4024C56.3134 48.6075 55.1678 49.5415 53.8459 50.0838C52.4066 50.7165 50.6441 51.0479 48.5291 51.0479C47.1778 51.0479 45.8559 50.9274 44.5341 50.6562C43.5059 50.4754 42.4778 50.144 41.5378 49.6921C41.3322 49.5716 41.1853 49.3607 41.2147 49.1197V43.8774C41.2147 43.787 41.2441 43.6665 41.3322 43.6062C41.4203 43.5459 41.5084 43.5761 41.5966 43.6363C42.7422 44.3293 43.9466 44.8113 45.2391 45.1126C46.3553 45.4139 47.5303 45.5645 48.7053 45.5645C49.8216 45.5645 50.6147 45.4139 51.1434 45.1427C51.6134 44.9318 51.9366 44.4197 51.9366 43.8774C51.9366 43.4556 51.7016 43.0639 51.2316 42.6722C50.7616 42.2806 49.7922 41.8286 48.3528 41.2562C46.8547 40.7139 45.4741 39.9908 44.1816 39.087C43.2709 38.4241 42.5072 37.5504 41.9491 36.5261C41.4791 35.562 41.2441 34.5075 41.2734 33.453C41.2734 32.1575 41.6259 30.9222 42.2722 29.8075C43.0066 28.6024 44.0934 27.6383 45.3566 27.0357C46.7372 26.3126 48.4703 25.9812 50.5559 25.9812C51.7603 25.9812 52.9941 26.0716 54.1984 26.2524C55.0797 26.3729 55.9316 26.6139 56.7247 26.9453C56.8422 26.9754 56.9597 27.0959 57.0184 27.2165C57.0478 27.337 57.0772 27.4575 57.0772 27.578V32.4889C57.0772 32.6094 57.0184 32.7299 56.9303 32.7902C56.6659 32.8504 56.5191 32.8504 56.4016 32.7902Z" fill="#171717"/>
</g>
<defs>
<clipPath id="clip0_431_816">
<path d="M0 20.5833C0 9.53756 8.95431 0.583252 20 0.583252H50.5C61.5457 0.583252 70.5 9.53756 70.5 20.5833V51.0833C70.5 62.1289 61.5457 71.0833 50.5 71.0833H20C8.95431 71.0833 0 62.1289 0 51.0833V20.5833Z" fill="white"/>
</clipPath>
</defs>
</svg>
