<svg width="71" height="71" viewBox="0 0 71 71" fill="none" xmlns="http://www.w3.org/2000/svg">
<path fill-rule="evenodd" clip-rule="evenodd" d="M3.6543 19.86L10.9334 12.5H67.3466V51.14L60.0675 58.5H3.6543V19.86ZM33.9718 54.6314L38.1892 52.6442H38.1846L34.7452 47.0552C36.3284 45.9788 37.4704 44.4194 38.1664 42.377C38.8579 40.3346 39.2082 37.6574 39.2082 34.3454C39.2082 29.3222 38.3621 25.6008 36.6697 23.1858C34.9773 20.7708 32.0292 19.561 27.8255 19.561C23.6218 19.561 20.6692 20.7754 18.9632 23.2042C17.2572 25.6376 16.4064 29.3544 16.4064 34.3638C16.4064 39.3732 17.2435 43.0394 18.9223 45.3578C20.6055 47.6762 23.5718 48.8354 27.8301 48.8354C28.9765 48.8354 29.8091 48.7526 30.3277 48.587L33.9718 54.6314ZM45.35 47.2208C46.2099 48.2972 47.8022 48.8354 50.1224 48.8354C51.0778 48.8354 52.4699 48.656 54.2988 48.2972L54.094 44.6954L50.7366 44.8196C49.7266 44.8196 49.0988 44.5436 48.8531 43.9916C48.6074 43.4396 48.4846 42.3218 48.4846 40.6382V31.5302H54.135V27.68H48.4846V21.677H44.0625V27.68H41.442V31.5302H44.0625V41.135C44.0625 44.1158 44.4902 46.1444 45.35 47.2208ZM22.5482 26.1482C23.5036 24.437 25.2642 23.5814 27.8301 23.5814C30.396 23.5814 32.1521 24.437 33.0938 26.1482C34.031 27.8594 34.5041 30.6056 34.5041 34.3868C34.5041 38.168 34.0492 40.8498 33.1347 42.4368C32.2157 44.0238 30.4506 44.815 27.8301 44.815C25.2096 44.815 23.4354 44.01 22.5073 42.3954C21.5792 40.7808 21.1151 38.099 21.1151 34.3454C21.1151 30.5918 21.5928 27.8594 22.5482 26.1482Z" fill="#237FF8"/>
</svg>
