<svg width="71" height="71" viewBox="0 0 71 71" fill="none" xmlns="http://www.w3.org/2000/svg">
<g clip-path="url(#clip0_431_772)">
<path d="M35.2505 41.7779C38.7209 41.7779 41.5342 38.9672 41.5342 35.5C41.5342 32.0329 38.7209 29.2222 35.2505 29.2222C31.7801 29.2222 28.9668 32.0329 28.9668 35.5C28.9668 38.9672 31.7801 41.7779 35.2505 41.7779Z" fill="#237FF8"/>
<path d="M35.2506 48.3618C53.8722 48.3618 68.968 42.6033 68.968 35.4999C68.968 28.3964 53.8722 22.6379 35.2506 22.6379C16.629 22.6379 1.5332 28.3964 1.5332 35.4999C1.5332 42.6033 16.629 48.3618 35.2506 48.3618Z" stroke="#237FF8" stroke-width="2"/>
<path d="M24.1014 41.9309C33.4122 58.0427 45.9518 68.2246 52.1093 64.6729C58.2668 61.1211 55.7105 45.1807 46.3997 29.0689C37.0889 12.9572 24.5494 2.77524 18.3919 6.32697C12.2344 9.87869 14.7906 25.8191 24.1014 41.9309Z" stroke="#237FF8" stroke-width="2"/>
<path d="M24.1008 29.0688C14.79 45.1806 12.2338 61.121 18.3913 64.6727C24.5488 68.2245 37.0883 58.0425 46.3991 41.9308C55.7099 25.819 58.2662 9.87857 52.1087 6.32684C45.9512 2.77512 33.4116 12.957 24.1008 29.0688Z" stroke="#237FF8" stroke-width="2"/>
</g>
<defs>
<clipPath id="clip0_431_772">
<path d="M0 20.25C0 9.20431 8.95431 0.25 20 0.25H50.5C61.5457 0.25 70.5 9.20431 70.5 20.25V50.75C70.5 61.7957 61.5457 70.75 50.5 70.75H20C8.95431 70.75 0 61.7957 0 50.75V20.25Z" fill="white"/>
</clipPath>
</defs>
</svg>
