<svg width="71" height="72" viewBox="0 0 71 72" fill="none" xmlns="http://www.w3.org/2000/svg">
<path fill-rule="evenodd" clip-rule="evenodd" d="M43.891 57.0171V63.9103C45.0116 64.4848 46.3369 64.9155 47.867 65.2027C49.397 65.4899 51.0096 65.6335 52.7049 65.6335C54.3571 65.6335 55.9265 65.4756 57.4135 65.1596C58.9005 64.8437 60.2043 64.3231 61.3249 63.5979C62.4455 62.8728 63.3326 61.9249 63.9863 60.7545C64.6399 59.584 64.9668 58.1373 64.9668 56.414C64.9668 55.1646 64.7801 54.0696 64.4065 53.129C64.0329 52.1884 63.4943 51.3519 62.7902 50.6195C62.0863 49.8871 61.2423 49.23 60.2582 48.6484C59.2741 48.0668 58.1642 47.5175 56.9287 47.0006C56.0236 46.6272 55.2119 46.2646 54.4936 45.9128C53.7752 45.5609 53.1647 45.2019 52.6618 44.8358C52.1589 44.4695 51.771 44.0818 51.4981 43.6725C51.2252 43.2632 51.0886 42.8001 51.0886 42.283C51.0886 41.8092 51.2108 41.382 51.455 41.0014C51.6993 40.6208 52.0441 40.2942 52.4894 40.0213C52.9348 39.7485 53.4807 39.5366 54.1271 39.3858C54.7738 39.235 55.492 39.1597 56.2822 39.1597C56.8568 39.1597 57.4638 39.2028 58.1031 39.2889C58.7424 39.3751 59.3853 39.5079 60.0319 39.6873C60.6784 39.8669 61.3069 40.0931 61.9175 40.3659C62.5281 40.6388 63.0919 40.9547 63.6091 41.3138V34.873C62.5604 34.4709 61.4147 34.1729 60.172 33.979C58.9293 33.7852 57.5033 33.6882 55.8943 33.6882C54.2564 33.6882 52.7049 33.8642 51.2395 34.216C49.7742 34.5678 48.4848 35.1171 47.3713 35.8638C46.2579 36.6107 45.378 37.562 44.7315 38.7181C44.085 39.8741 43.7617 41.2562 43.7617 42.8647C43.7617 44.9182 44.3544 46.6703 45.5396 48.1208C46.7248 49.5711 48.5242 50.7989 50.9378 51.8043C51.886 52.192 52.7696 52.5725 53.5885 52.9459C54.4074 53.3193 55.115 53.7071 55.7111 54.1091C56.3073 54.5112 56.7778 54.9492 57.1227 55.4232C57.4675 55.897 57.6399 56.4355 57.6399 57.0387C57.6399 57.4839 57.5321 57.8967 57.3166 58.2773C57.1011 58.6579 56.7742 58.9881 56.3361 59.2682C55.8979 59.5482 55.3519 59.7672 54.6983 59.9251C54.0445 60.0832 53.2796 60.1621 52.4032 60.1621C50.9091 60.1621 49.4294 59.9 47.9639 59.3758C46.4986 58.8518 45.1409 58.0655 43.891 57.0171ZM32.3027 40.0335H41.1455V34.3767H16.498V40.0335H25.2976V65.2205H32.3027V40.0335Z" fill="#237FF8"/>
</svg>
