<svg width="72" height="72" viewBox="0 0 72 72" fill="none" xmlns="http://www.w3.org/2000/svg">
<path d="M30.763 39.9142L27.673 31.3029C27.6323 31.1807 27.5781 31.0313 27.5781 30.8819C27.5781 30.5152 27.8898 30.1484 28.3506 30.1484C28.7436 30.1484 29.0011 30.4065 29.1231 30.7732L31.6845 38.2028L34.2595 30.7596C34.3815 30.4065 34.6119 30.1484 35.0049 30.1484H35.0862C35.5063 30.1484 35.7503 30.4065 35.8722 30.7596L38.4337 38.2028L41.0357 30.7461C41.1306 30.4337 41.3474 30.1484 41.7676 30.1484C42.2012 30.1484 42.513 30.488 42.513 30.8547C42.513 30.9905 42.4587 31.1535 42.4181 31.2758L39.3146 39.9142C39.1519 40.3624 38.8402 40.6069 38.4879 40.6069H38.4337C38.0406 40.6069 37.7425 40.376 37.607 39.9142L35.0726 32.5933L32.5112 39.9142C32.3757 40.3624 32.0775 40.6069 31.6845 40.6069H31.6439C31.2373 40.5933 30.912 40.3624 30.763 39.9142Z" fill="#237FF8"/>
<path d="M53.2596 30.909C53.2596 30.4879 53.5985 30.1348 54.005 30.1348C54.4387 30.1348 54.7775 30.4743 54.7775 30.909V32.6611C55.5229 30.9633 57.1899 30.1619 58.2876 30.1619C58.7484 30.1619 59.033 30.5015 59.033 30.9361C59.033 31.3572 58.762 31.6424 58.3554 31.7103C56.3903 31.9412 54.764 33.4353 54.764 36.3691V39.8326C54.764 40.2536 54.4523 40.6068 54.0186 40.6068C53.5849 40.6068 53.2461 40.2672 53.2461 39.8326L53.2596 30.909Z" fill="#237FF8"/>
<path d="M63.9249 40.7019C61.1873 40.7019 58.9512 38.5695 58.9512 35.4456V35.4048C58.9512 32.4982 60.984 30.1484 63.7352 30.1484C66.6896 30.1484 68.3701 32.5933 68.3701 35.269C68.3701 35.6765 68.0449 35.9753 67.679 35.9753H60.469C60.6859 38.162 62.2038 39.398 63.9791 39.398C65.2124 39.398 66.1204 38.9091 66.8523 38.23C66.9742 38.1349 67.1098 38.0534 67.2724 38.0534C67.6383 38.0534 67.9229 38.3522 67.9229 38.7053C67.9229 38.8819 67.8416 39.0585 67.6925 39.1943C66.7438 40.1043 65.6325 40.7019 63.9249 40.7019ZM66.8794 34.8615C66.7303 33.0279 65.6868 31.4252 63.6945 31.4252C61.9598 31.4252 60.6452 32.8921 60.4555 34.8615H66.8794Z" fill="#237FF8"/>
<path d="M42.5527 37.5509V37.5101C42.5527 35.3641 44.3146 34.2232 46.8895 34.2232C48.1906 34.2232 49.1121 34.3997 50.0201 34.6578V34.3047C50.0201 32.4711 48.8953 31.5339 46.9979 31.5339C45.9815 31.5339 45.3852 31.6697 44.6398 31.9957C44.5449 32.0364 44.4501 32.05 44.3688 32.05C44.0164 32.05 43.7047 31.7512 43.7047 31.398C43.7047 31.0856 43.8402 30.8955 44.1248 30.7733C45.1277 30.3386 45.8731 30.1892 47.1741 30.1892C48.6107 30.1892 49.7084 30.5559 50.4538 31.3165C51.145 32.0092 51.4974 32.9872 51.4974 34.2911V39.9142C51.4974 40.3488 51.1857 40.6612 50.7655 40.6612C50.3319 40.6612 50.0473 40.3488 50.0473 39.9549V38.9906C49.3425 39.9142 48.1635 40.7427 46.3745 40.7427C44.4636 40.7291 42.5527 39.6425 42.5527 37.5509ZM50.0337 36.7631V35.7852C49.2883 35.5678 48.2854 35.3505 47.0522 35.3505C45.1548 35.3505 44.0842 36.179 44.0842 37.4558V37.4965C44.0842 38.7733 45.2632 39.5203 46.632 39.5203C48.5023 39.5203 50.0337 38.3794 50.0337 36.7631Z" fill="#237FF8"/>
<path d="M3.2787 30.8141C2.93988 30.0806 2.12673 29.7547 1.35424 30.0942C0.581751 30.4338 0.297147 31.2895 0.649512 32.0229L3.87501 39.045C4.37645 40.1452 4.91855 40.7157 5.92143 40.7157C6.99208 40.7157 7.46641 40.0909 7.96785 39.045C7.96785 39.045 10.7732 32.9058 10.8139 32.8379C10.841 32.77 10.9358 32.5798 11.2205 32.5798C11.4644 32.5798 11.6677 32.77 11.6677 33.028V39.0314C11.6677 39.955 12.1827 40.7157 13.1585 40.7157C14.1478 40.7157 14.6763 39.955 14.6763 39.0314V34.1146C14.6763 33.1638 15.354 32.5526 16.2755 32.5526C17.1971 32.5526 17.807 33.191 17.807 34.1146V39.0314C17.807 39.955 18.322 40.7157 19.2977 40.7157C20.2871 40.7157 20.8156 39.955 20.8156 39.0314V34.1146C20.8156 33.1638 21.4932 32.5526 22.4148 32.5526C23.3364 32.5526 23.9462 33.191 23.9462 34.1146V39.0314C23.9462 39.955 24.4612 40.7157 25.437 40.7157C26.4263 40.7157 26.9549 39.955 26.9549 39.0314V33.4355C26.9549 31.3846 25.3015 29.9448 23.3228 29.9448C21.3442 29.9448 20.0973 31.3166 20.0973 31.3166C19.4333 30.461 18.5252 29.9448 16.9938 29.9448C15.3675 29.9448 13.9445 31.3166 13.9445 31.3166C13.2804 30.461 12.1556 29.9448 11.234 29.9448C9.79744 29.9448 8.65903 30.5832 7.9543 32.1723L5.89432 37.0348L3.2787 30.8141Z" fill="#237FF8"/>
<path d="M68.4922 31.4386C68.4922 30.7459 69.0478 30.1619 69.7526 30.1619C70.4573 30.1619 71.0129 30.7323 71.0129 31.425C71.0129 32.1177 70.4573 32.6882 69.7526 32.6882C69.0343 32.6882 68.4922 32.1177 68.4922 31.4386ZM70.7555 31.425C70.7555 30.8546 70.3218 30.3928 69.739 30.3928C69.1698 30.3928 68.7226 30.8681 68.7226 31.425C68.7226 31.9819 69.1563 32.4573 69.739 32.4573C70.3218 32.4573 70.7555 31.9819 70.7555 31.425Z" fill="#237FF8"/>
<path d="M69.2793 30.9093C69.2793 30.8278 69.3335 30.7734 69.4148 30.7734H69.8349C69.9976 30.7734 70.1196 30.8142 70.1873 30.8957C70.2551 30.9636 70.2957 31.0587 70.2957 31.1673C70.2957 31.3575 70.2009 31.4797 70.0518 31.5341L70.2415 31.765C70.2686 31.7921 70.2822 31.8329 70.2822 31.8736C70.2822 31.9415 70.2144 31.9959 70.1602 31.9959C70.106 31.9959 70.0653 31.9687 70.0247 31.9279L69.7672 31.602H69.5503V31.8736C69.5503 31.9551 69.4961 32.0094 69.4148 32.0094C69.3335 32.0094 69.2793 31.9551 69.2793 31.8736V30.9093ZM69.8214 31.3711C69.9569 31.3711 70.0247 31.3032 70.0247 31.1945C70.0247 31.0858 69.9434 31.0179 69.8214 31.0179H69.5503V31.3711H69.8214Z" fill="#237FF8"/>
</svg>
