<svg id="Layer_1" data-name="Layer 1" xmlns="http://www.w3.org/2000/svg" viewBox="0 0 1000 1000"><defs><style>.cls-1{fill:#1d1d1b;}.cls-2{fill:#e42541;}</style></defs><g id="Layer_2" data-name="Layer 2"><path class="cls-1" d="M437.12,709.71c-13.52,0-20.45-8.17-20.45-23.86V652.18H423v33.5c0,12.22,4.7,18.27,14.51,18.27s13.69-5.87,13.69-18.1V652.18h6.29v33.5C457.45,701.66,450.75,709.71,437.12,709.71Z"/><path class="cls-1" d="M508.4,708.83l-25-38.79c-1.18-1.94-3.29-5.87-4-7.11v45.9H473.5V652.18h5.87l24.51,39.49c1.23,1.94,3.35,5.88,4.05,7.11v-46.6h5.88v56.65Z"/><path class="cls-1" d="M531.5,708.83V652.18h6.29v56.65Z"/><path class="cls-1" d="M576.22,708.83h-6.93L550,652.18h6.64L569.29,691c1.11,3.35,2.88,9.11,3.46,11.17.59-2.06,2.53-8,3.59-11.34l12.81-38.61h6.46Z"/><path class="cls-1" d="M606.78,708.83V652.18H641v5.87H613.24v17.63h16.22v5.88H613.24v21.63h29.39v5.87Z"/><path class="cls-1" d="M682,684l12.46,24.62h-7.29L675,684.56h-13.4v24.09h-6.35V652.18h22.45c9.93,0,17.63,5.11,17.63,16A15.45,15.45,0,0,1,682,684Zm-4.7-26.09H661.43V679h15.05c8.4,0,12.34-3.46,12.34-10.57S685,657.94,677.3,657.94Z"/><path class="cls-1" d="M724.73,709.71a26.8,26.8,0,0,1-19-8.05l4.23-4.64a21.53,21.53,0,0,0,15,6.76c7.52,0,12.22-3.71,12.22-9.7s-3.17-8.23-13.51-11.75c-12.23-4.35-16.34-8.35-16.34-16.52s7.11-14.45,17.63-14.45a25.35,25.35,0,0,1,17.28,5.87l-4.06,4.94a19.6,19.6,0,0,0-13.63-5.23c-7.76,0-11,3.88-11,8.28s2.12,7.41,13.46,11.46c12.52,4.53,16.39,8.7,16.39,17.16S736.54,709.71,724.73,709.71Z"/><path class="cls-1" d="M758.52,708.83V652.18h6.29v56.65Z"/><path class="cls-1" d="M798.36,657.94v50.89h-6.29V657.94H775.38v-5.88h39.67v5.88Z"/><path class="cls-1" d="M847.26,686.32v22.51H841V686.38l-19.45-34.2h7.22l9,16.28c2.3,4.11,4.76,8.81,6.41,12.1,1.65-3.29,4.11-8,6.41-12.1l8.87-16.28h7Z"/><path class="cls-1" d="M119,609.69V532.88h46.43v7.76H127.59v24.15h24.74v7.58H127.59v29.39h39.49v7.75Z"/><path class="cls-1" d="M209.75,609.63l-2.29-6.93a23,23,0,0,1-17.63,8.22c-11.76,0-20.63-8.81-20.63-29.38s9.64-31,21.68-31a20.4,20.4,0,0,1,16.28,7.7v-24l8.23-4.64v80Zm-2.29-43.13a18.92,18.92,0,0,0-15.58-8.7c-9.58,0-14.28,8.28-14.28,23.5,0,14.52,5.47,22,14.58,22a19.63,19.63,0,0,0,15.28-8.28Z"/><path class="cls-1" d="M232.49,541.75a5.88,5.88,0,1,1,5.88-5.87A5.88,5.88,0,0,1,232.49,541.75Zm-4.29,67.94V552.1h8.35v57.59Z"/><path class="cls-1" d="M285.32,609.69V576c0-12.4-4.4-18-13.63-18-8,0-14.28,5.41-14.28,18v33.67h-8.23V552.1h8.23v7a18.67,18.67,0,0,1,15.92-8.23c12.17,0,20.22,7.11,20.22,23.51v35.26Z"/><path class="cls-1" d="M330,610.92a20.53,20.53,0,0,1-16.27-7.7v4l-8.23,4.94V534.29l8.23-4.64V559a23.18,23.18,0,0,1,17.63-8.23c11.75,0,20.62,8.76,20.62,29.09S342.33,610.92,330,610.92Zm-1-52.89a19.62,19.62,0,0,0-15.28,8.47v28.79a19,19,0,0,0,15.63,8.64c9.52,0,14.28-8.23,14.28-23.51,0-14.87-5.53-22.45-14.63-22.45Z"/><path class="cls-1" d="M399,609.69l-2.18-7a18.68,18.68,0,0,1-15.92,8.22c-12.17,0-20.22-7.17-20.22-23.5V552.16h8.23v33.67c0,12.4,4.41,18,13.63,18,8,0,14.28-5.35,14.28-18V552.1H405v57.59Z"/><path class="cls-1" d="M446.29,560.62a16.47,16.47,0,0,0-8.64-2.18c-8,0-12.52,6.47-12.52,17.63v33.8H416.9v-57.6h8.23v7.11A16.81,16.81,0,0,1,439.41,551a22,22,0,0,1,9,1.41Z"/><path class="cls-1" d="M463.68,631.14,461,624.85h3.76c17.63-.82,21.57-5.88,21.57-18.92V603A22.94,22.94,0,0,1,469,611.22c-11.75,0-20.63-8.82-20.63-29.39s9.64-31,21.75-31a20.35,20.35,0,0,1,16.22,7.7V552.1h8.22v52.48c0,16.8-7.34,25.21-27.38,26.27Zm22.69-64.64a18.78,18.78,0,0,0-15.58-8.7c-9.52,0-14.28,8.28-14.28,23.5,0,14.52,5.53,22,14.64,22a19.64,19.64,0,0,0,15.22-8.28Z"/><path class="cls-1" d="M542.14,609.69V576c0-12.4-4.35-18-13.58-18-8,0-14.28,5.41-14.28,18v33.67h-8.23v-75.4l8.23-4.64V559a18.66,18.66,0,0,1,16.1-8.17c12.17,0,20.16,7.11,20.16,23.51v35.26Z"/><path class="cls-1" d="M633.05,609.69,599.49,556.8c-1.64-2.59-4.52-7.64-5.52-9.64v62.53h-8.23V532.88h8.35l33.26,53.54c1.64,2.64,4.52,7.7,5.52,9.69V532.88h8.23v76.81Z"/><path class="cls-1" d="M688.53,609.63l-1.77-6.93a23.49,23.49,0,0,1-18,8.22,16.91,16.91,0,0,1-18.45-15.24,17.21,17.21,0,0,1,0-3.21c0-12.93,10.63-18.45,22-18.45a30.73,30.73,0,0,1,14.4,3.29v-6.82a11,11,0,0,0-9.14-12.67,10.88,10.88,0,0,0-3.37,0,30.28,30.28,0,0,0-15.7,4.35l-3-6.7a41.39,41.39,0,0,1,19.27-4.59c12.46,0,20.22,5.29,20.22,18.69v40.08Zm-1.77-25.5a28.24,28.24,0,0,0-14.81-3.3c-8.46,0-13.51,4.06-13.51,11.35a10.81,10.81,0,0,0,9.18,12.22,11.05,11.05,0,0,0,2.57.06,20.08,20.08,0,0,0,16.57-8.7Z"/><path class="cls-1" d="M731.54,610.92a20.32,20.32,0,0,1-16.22-7.7v23l-8.22,4.64V552.1h8.22v7A23,23,0,0,1,733,550.86c11.76,0,20.63,8.76,20.63,29.09S743.65,610.92,731.54,610.92ZM730.6,558a19.58,19.58,0,0,0-15.28,8.35v28.79a18.81,18.81,0,0,0,15.58,8.64c9.58,0,14.28-8.22,14.28-23.5,0-14.76-5.47-22.34-14.58-22.34Z"/><path class="cls-1" d="M768,541.75a5.88,5.88,0,1,1,5.87-5.87A5.87,5.87,0,0,1,768,541.75Zm-4.29,67.94V552.1H772v57.59Z"/><path class="cls-1" d="M829.74,583.71H791.31c.76,12.29,6.58,20,16,20a25.48,25.48,0,0,0,15.93-5.46l3.88,5.88a34.1,34.1,0,0,1-20.51,6.75c-10.58,0-23.51-7.7-23.51-30.32,0-18.34,10-29.74,23.51-29.74,15,0,23.15,11.76,23.15,28.33A31,31,0,0,1,829.74,583.71ZM806.59,558c-8.58,0-14.52,6.17-15.46,19h31C821.69,565.79,816.87,558,806.59,558Z"/><path class="cls-1" d="M870.23,560.62a16.53,16.53,0,0,0-8.69-2.18c-8,0-12.52,6.47-12.52,17.63v33.8h-8.23v-57.6H849v7.11A16.93,16.93,0,0,1,863.3,551a21.71,21.71,0,0,1,9,1.41Z"/><polygon class="cls-2" points="550.6 290.29 674.6 496.68 880.99 372.68 550.6 290.29"/></g></svg>