<svg width="35" height="35" viewBox="0 0 35 35" fill="none" xmlns="http://www.w3.org/2000/svg">
<path fill-rule="evenodd" clip-rule="evenodd" d="M34.8332 34.8334H27.7103V22.7015C27.7103 19.3753 26.4464 17.5164 23.8136 17.5164C20.9496 17.5164 19.4532 19.4508 19.4532 22.7015V34.8334H12.5887V11.7223H19.4532V14.8354C19.4532 14.8354 21.5172 11.0162 26.4215 11.0162C31.3236 11.0162 34.8332 14.0097 34.8332 20.2009V34.8334ZM4.3994 8.69609C2.06121 8.69609 0.166504 6.78652 0.166504 4.43142C0.166504 2.07632 2.06121 0.166748 4.3994 0.166748C6.7376 0.166748 8.63117 2.07632 8.63117 4.43142C8.63117 6.78652 6.7376 8.69609 4.3994 8.69609ZM0.854872 34.8334H8.01277V11.7223H0.854872V34.8334Z" fill="#0E0E0E"/>
</svg>
