<?xml version="1.0" encoding="UTF-8"?><svg id="Layer_1" xmlns="http://www.w3.org/2000/svg" viewBox="0 0 720 720"><path d="M358.65.02c31.86-.75,50.94,20.7,75.54,34.91,28.21,16.3,68.5-4.82,102.06,11.44,29.7,14.38,36.21,44.72,51.12,70.14,17.46,29.77,67.01,29.27,85.74,66.47,13.14,26.1,6.17,50.06,5.52,76.98-.88,36.05,41.05,60.16,41.37,99.79.25,31.31-21.36,50.75-35.15,75.01-19.48,34.27,13.31,79.46-22.5,117.69-17.14,18.3-38.16,23.33-58.51,35.22-30.59,17.88-29.41,66.96-67.16,85.92-24.51,12.32-47,6.97-72.51,5.66-40.61-2.08-60.07,37.61-98.02,40.49-35.2,2.68-52.44-17.4-79.3-33.41-34.82-20.76-78.36,10.77-115.93-20.79-21.7-18.23-25.42-40.32-38.96-62.52-17.39-28.52-65.6-29.03-84.55-64.22-16.49-30.63-4.05-57.42-6.7-87.91-2.23-25.64-38.07-52.3-40.48-85.09-2.81-38.3,21.83-54.23,36.31-83.3,16.06-32.26-12.14-75.37,17.88-111.13,17.69-21.08,38.63-25.45,60.79-38.11,30.04-17.16,30.48-64.86,64.19-84.58,25.21-14.74,50.48-9,77.54-7.6C296,43.11,318.03.98,358.65.02ZM169.32,557.5c154.45,149.86,414.15,70.09,458.88-138.97C675.36,198.11,450.21,15.34,244.72,110.62,70.18,191.55,30.59,422.89,169.32,557.5Z" fill="#0a0463"/><path d="M169.32,557.5C30.59,422.89,70.18,191.55,244.72,110.62c205.49-95.28,430.64,87.49,383.48,307.91-44.73,209.05-304.43,288.83-458.88,138.97ZM329.87,162.94c5.95,6.16,17.02,6.74,24.82,4.35,13-3.98,16.13-19.49,10.48-30.63-6.39-12.61-24.57-8.96-29.59-15.12-6.6-8.09,8.31-14.07,14.69-7.81,1.74,1.71,2.35,6.02,3.89,6.36.5.11,9.09-1.03,9.45-1.52-.51-31.31-52.53-20.84-37.95,9.45,5.71,11.87,17.89,8.74,26.88,13.54,9.18,4.91,1.37,18.32-9.91,15.07-7.35-2.12-7.44-10.84-9.28-11.39s-7.31,2.19-9.78,1.65c.23,5.21,2.7,12.3,6.32,16.05ZM301.17,107.35c-3.58-.32-6.92,1.38-10.34,2.18-.21,1.25,1.57,10.8,2.17,11.58,1.91,2.51,7.9-2.36,5.23,6.05-.57,1.8-3.08,3.1-3.09,4.68,0,1.08,2.32,3.66,3.16,3.8,1.15.19,3.93-2.89,4.49-3.92,4.34-7.9-.91-16.31-1.62-24.38ZM456.83,137.44c1.01-9.73-1.13-18.1-10.06-23.06-28.31-15.72-48.93,28.32-39.85,51.04,4.53,11.33,18.64,16.37,29.59,11.47,3.56-1.59,13.71-10.09,10.93-14.13-.56-.82-5.67-4.63-6.56-4.73-3.16-.35-5.86,7.73-11.18,8.6-20.09,3.25-13.1-26.66-6.57-36.67,8.27-12.7,24.08-7.6,22.52,7.48h11.19ZM267.59,116.85c-.96-.69-7.03,2.41-8.3,3.15-.77.44-1.3-.13-1.09,1.46l16.34,36.6-35.28-27.12c-2.97-1.35-7.21,2.98-10.34,3.52,6.94,20.02,18.14,38.39,26.33,57.95,1.31,4.29,10.75-1.14,10.6-2.8l-16.23-35.85,35.27,27.14c1.67.84,8.21-3.58,10.36-4.44l-27.65-59.62ZM492.73,141.1c-22.82,3.08-46.22,42.92-23.79,60.34,29.14,22.64,66.38-31.21,44.2-52.81-4.85-4.73-13.66-8.43-20.4-7.52ZM202.91,152.17c-1.59.95-7.71,5.33-7.4,7.07.52,2.89,13.9,14.07,15.07,17.74.35,1.09.43,1.49-.06,2.57-.69,1.51-13.21,12.19-14.52,11.94-2.78-.54-14.29-17.24-16.64-17.84-1.48-.38-7.96,5.07-8.01,6.32l43.43,49.53c1.27,0,7.38-5.97,7.19-7.18-.51-3.33-18.31-18.9-17.88-21.54l15.75-13.42c3.36,2.6,15.84,19.87,18.32,20.51,1.51.39,8.48-4.81,8.04-7.18l-43.3-48.52ZM352.61,181.55c-136.12,6.5-220.65,154.47-148.93,273.19,71.77,118.81,247.97,116.57,316.06-4.51,69.89-124.27-26.53-275.39-167.13-268.68ZM515.4,223.56l39.92-32.79c1.14-2.07-5.26-10.41-8.2-8.18l-48.17,40.45,23.24,28.36c1.5,2.03,8.58-3.97,9.07-4.73.73-1.15-.08-1.96-.61-2.88-2.57-4.44-9.74-10.6-13.12-15.27-.88-1.21-2.93-3.56-2.12-4.97ZM152.22,211.61c-10.36,1.75-20.05,14.79-19.58,25.13,1.06,23.48,44.06,47.82,61.43,24.48,18.65-25.07-17.44-53.73-41.85-49.61ZM583.86,231.33l-55.27,28.23-.03,3.49c3.76,4,13.24,28.85,15.95,30.57,1.12.71,9.45-3.19,9.48-5.19.07-3.8-12.28-21.44-10.82-23.71l46.08-23.63c2.15-2.34-1.25-10.58-5.39-9.76ZM149,307.73c.47,2.61-2.36,9.14-.03,10.79,1.43,1.01,8.6,1.37,10.69,1.16,16.42-1.64,19.92-24.23,5.1-32.43-6.17-3.42-41.14-14.53-48.22-15.47-.97-.13-1.95-.46-2.84.2-.52.38-3.65,9.42-1.68,10.41,12.2,4.06,25.03,6.8,37.17,10.98,4.34,1.49,14.13,3.89,13.57,9.56-.87,8.92-13.06,4.08-13.76,4.81ZM620.17,327.48l-9.07-39.44-63.98,13.71c1.39,4.8,6.97,39.13,8.65,40.32.42.3,9.84-1.32,10.2-1.69,1.73-1.79-5.47-25.84-5.06-29.99l17.1-3.48c1.15,3.19,4.28,24.84,5.28,25.68,1.09.92,10.92-.98,11.16-2.17l-5.17-26.05c3.09-.29,13.19-4.46,14.39-1.19,1.43,3.93,4.39,25.93,5.33,26.92l11.15-2.62ZM164.48,350.74h-12.9c-1.33,13.41,1.18,11.37,12.9,11.19-.55-4,1.66-7.41,0-11.19ZM599.65,392.12c-.3.42.82,9.79,1.14,10.27,2.84,4.34,16.09-5.18,18.4-9.21,25.12-43.97-70.12-60.81-65.2-10.19.46,4.68,4.79,17.55,9.89,18.49s16.34,1.75,21.48,1.81c1.13.01,2.79.11,3.49-.88,1.15-1.63,1-19.91,1.24-23.28l-10.36-.5c-2.74,6.36,3.28,14.9-7.76,12.17-3.94-.98-6.16-6.79-6.61-10.62-3.03-25.37,54.55-20.69,44.57,4.61-2.27,5.74-9.74,6.58-10.28,7.35ZM110.35,381.67c-1.26-3-.55-14.36-2.58-15.96-.42-.33-9.91.34-10.25,1.92.59,4.49,2.64,42.13,4.74,42.52.77.14,9.93-1.31,10.26-1.77l-1.36-15.51c6.21-1.5,54.19-3.77,54.97-6.56.15-.53-.63-10.63-2.97-9.83l-52.82,5.17ZM612.37,432.53l-61.26-21.5-14.28,38.09c.37,1.21,9.32,4.21,10.28,3.61,2.51-1.56,7.85-26.12,10.89-27.08,2-.63,13.18,4.26,15.83,5.61.59,3.67-8.25,19.35-8.53,24.15-.14,2.46,10.37,5.06,10.99,4.51l8.61-24.54c.73-.52,12.07,3.21,12.56,3.91,1.94,2.81-8.34,23.02-8.3,27.88l10.38,3.98,12.83-38.62ZM162.83,457.33c1.58,1.13,9.75-4.94,11.1-6.4,8.08-8.68,5.85-22.07-1.28-30.54-10.98-13.05-34.34-5.32-36.46,11.72-.64,5.19.75,9.93.67,14.43-.24,13.8-12.83,10.63-14.35-.13-.96-6.78,5.58-8.11,5.89-9.41.71-3-2.48-7.3-3.44-10.22-15.57,3.21-17.21,21.34-8.64,32.75,8.47,11.27,27.77,7.66,32.49-5.34,2.44-6.73.21-15.19,1.02-22.2,1.2-10.37,16.33-8.15,17.23,3.48.67,8.66-7.5,10.7-7.81,12.18-.25,1.19,3.15,9.38,3.57,9.68ZM258.2,564.91c14.79-3.42,18.93-18.54,5.94-27.88-2.31-1.66-18.49-11.14-20.01-10.9l-28.91,49.46c.35,1.52,24.61,14.77,27.16,15.06,9.57,1.09,18.93-9.12,18.43-18.4-.17-3.14-1.95-4.61-2.61-7.34ZM465.49,557.1l-5.16-9.72c.41-2.45,19.63-10.7,21.06-13.44.8-1.53-3.1-7.27-4.53-7.64-1.24-.32-2.14.41-3.18.85-5.17,2.21-19.39,10.47-24.04,13.8-1.11.8-2.2,1.33-2.33,2.92-.32,3.93,24.75,40.56,27.12,47.7,1.01,1.23,2.56,1.04,3.91.48l28.28-16.04c.35-1.15-.17-2.12-.61-3.13-2.19-5.03-2.81-6.46-7.97-4.15-3.63,1.62-15.53,10.32-17.75,10.68-1.97.32-8.46-11.32-7.94-13.09.6-2.05,18.16-10.07,18.74-10.99,1.05-1.67-2.35-7.89-3.91-8.41-3.69-1.21-19.44,11.8-21.71,10.17ZM426.73,601.03l12.83-42.65c.67-2.22-.79-9.95-3.08-10.6-2.06-.59-27.79,8.95-32.17,9.9l1.8,8.94c1.46,1.46,18.24-5.32,21.47-5.14,1.71,1.59-12.87,36.09-11.82,44.92.15,1.28,1.55,6.63,2.33,7.18,1.54,1.08,31.83-9.3,36.17-10.4,1.38-1.04-.45-8.67-3.04-9.07-4.02-.62-23.59,7.82-24.49,6.92ZM322.67,558.93l-33.54-9.15-16.27,55.51c4.42.9,33.43,10.96,35.16,9.45.36-.31,2.05-8.86,1.71-9.33-.75-1.05-21.81-5.49-24.87-6.96,1.21-2.37,3.23-14.07,4.83-14.55,3.6-.16,20.94,7.06,22.6,5.88.59-.42,2.25-7.87,2.67-9.36l-22.34-6.06c-.3-4.16,1.84-7.96,2.64-11.96l25.24,6c.37-1.52,2.62-8.84,2.18-9.46ZM390.55,559.82l-9.4.79,6.14,56.22c.89,2.83,7.78.94,10.13.48l-6.87-57.49ZM344.19,561.46h-9.47s-2.58,57.64-2.58,57.64l33.54,1.72c-.94-2.19,1.73-8.84.04-9.93-1.93-1.25-17.54-.59-21.11-1.25-.98-.18-1.74-.29-2.03-1.41l1.6-46.76Z" fill="#f9f9fb"/><path d="M352.61,181.55c140.6-6.71,237.02,144.41,167.13,268.68-68.1,121.08-244.29,123.32-316.06,4.51-71.72-118.72,12.81-266.69,148.93-273.19ZM460.56,272.17c-27.87-28.16-55.43-56.64-83.69-84.44-1.28-1.46-4.97-3.36-6.47-1.28l167.68,170.3c.81-2.14.85-5.39-.39-7.35-25.79-25.66-51.58-51.41-77.13-77.23ZM352.78,186.46c-22.09.13-44.97,5.47-65.07,14.47-3.09,1.38-13.51,5.55-14.04,8.32l.42,77.86c5.14,2.41,10.69,16.73,17.09,14.52,2.49-.86,3.35-11.58,3.05-14.03-.85-6.87-6.44-8.12-8.07-12.58-2.78-7.6,7.56-2.14,11.26-1.8,6.84.64,8.26-.18,11.94-5.9l1.28,5.15,6.01-2.57c.84,2.84-1.33,5.04-1.67,7.35-1.05,7.21-.43,5.75-3.05,12.43-3.63,9.3,2.23,11.61,2.95,18.58.41,3.99-1.23,7.99-.71,12.72,1.13,10.31,8.98,16.71,12.36,25.47.95,2.45,2.15,10.59,3.56,11.08,10.74,3.7-.4-17.12-1.34-20.17-3.82-12.34-1.17-24.43,13.7-24.46.02,3.8-3.28,6.15-4.34,9.84-3.52,12.37,5.87,24.32,3.46,37.01-1.3,6.89-12.22,4.87-13.37,6.45-.56.77.97,4.27.11,6.95-1.64,5.15-9.18,7.01-8.16,16.63.59,5.6,7.27,8.82,4.29,13.9-2.39,4.08-10.92,9.39-14,13.57-3.36,2.45-9.3-2.02-7.38-5.3.63-1.07,8.04-3.43,10.17-6.59,1.03-1.53,2.59-5.88,2.52-7.67-.05-1.42-3.45-8.02-4.38-9.41-2.17-3.23-7.95-7.36-8.23-10.59-.38-4.32,6.76-9.92,5.72-14.85-5.06-1.16-8.42-2.86-13.11.07-5.77,3.6-3.71,11.48-5.38,11.95-4.9,1.36-5.69-4.55-7.73-7.72-5.93-9.21-5.21-.94-10.22-.87-4.09.06-4.7-3.47-5.25-3.57-3.97-.7-6.37,8.27-8.48,10.43-6.25,6.42-5.1-3.74-6.29-6.71-.97-2.44-5.19-4.98-7.72-5.19-.91-.08-7.69.82-8.02,1.05-3.77,2.54,3.25,9.34,3.95,11.63,2.06,6.74-4.19,9.57-7.51,14.93-3.76,6.07-6.46,12.73-.21,18.6,2.32,2.18,6.26,1.92,8.17,4.74,2.61,3.85-3.52,7.13-6.93,5.19-2.34-3.89-12.58-10.28-13.98-13.53-2.87-6.66,7.33-10.45,3.38-20.59-1.52-3.9-7.35-8.72-7.98-11.87-.47-2.32,1.59-3.56,1.37-4.72-.46-2.37-10.46.1-13.1-4.98-4.76-9.15,4.34-24.66,3.68-34.64-.4-6.05-4.04-8.89-6.05-14.15,13.53-.17,17.83,9.37,15.09,21.54-.94,4.16-9.34,20.28-5.69,22.8,5.53,3.81,5.47-6.13,6.77-9.67,3.16-8.59,11.76-17.17,12.98-26.57.61-4.68-1.03-8.5-.71-12.71.36-4.75,4.27-8.4,4.15-12.94-.12-4.23-3.4-7.44-4.02-10.6-.51-2.55.14-5.07-.23-7.51-.3-2-2.81-4.34-1.67-7.35l6.01,2.57,1.28-5.15c3.68,5.72,5.1,6.54,11.94,5.9,2.75-.26,9.96-3.61,11.34-1.66,2.2,3.12-5.32,8.2-6.84,11.32-1.91,3.9-1.74,8.62-1,12.86,2.77,15.67,12.03-1.44,16.34-6.13,1.18-1.28,3.05-1.49,3.05-1.66v-77.41c-8.18,3.93-16.58,9.76-23.62,15.51-67.08,54.78-84.3,151.46-39.51,226.11,30.54,50.89,86.02,83.87,145.67,86.08V186.46ZM536.78,335.25c-11.41-74.75-71.95-134.53-146.16-147.07l146.16,147.07ZM369.98,208.82v33.97c0,.58,1.98,2.76,2.56,3.46l159.53,160.38c1.6.69,2.32-4.71,2.6-5.98,1.69-7.73,2.49-15.76,3.63-23.59-54.82-56.07-110.21-111.56-165.74-166.96l-2.59-1.28ZM529.04,421.27c.22-.19,1.27-5.04.08-5.62l-156.55-157.38-2.58-1.28v4.71c46.53,49.43,95.73,96.96,143.61,145.35,3.4,3.44,8.97,10.81,12.37,13.39.79.6,2.46,1.35,3.07.83ZM369.98,283.65v36.55l137.57,138.52,1.19.35c1.7-.36,13.45-20.54,13.4-22.78l-152.17-152.64ZM271.1,293.11c-8.98-.61-7.06,16.43-9.6,17.92-1.04.61-7.29-.37-7.67,1.55-.44,3.03,2.4,6.06,2.64,8.57.34,3.42-2.91,5.33-1.28,8.92.77,1.69,11.89,8.42,12.45,7.76-1.33-3.55,4-10.36-.44-11.18-4.04-.74-4.74,1.49-3.78-5.52.87-6.29,7.66-9.84,7.66-11.25v-16.77ZM273.68,293.11v17.63c0,.7,6.69,4.04,7.66,11.26.86,6.38-.04,3.97-3.78,4.65-4.4.81.62,6.92-.44,10.33.77.8,10.88-4.48,11.59-6.04,1.54-3.4-.88-6.99-.38-10.67.36-2.68,3.01-4.73,2.62-7.7-3.22-2.83-8.23.7-9.34-4.6-1.23-5.9.81-13.02-7.93-14.86ZM395.44,357.95c-8.02-8.16-16.03-16.36-24.18-24.4-2.25-.94-1.23,5.78-1.07,6.68l129.17,130.09c2.02,2.76,4.94-3.04,3.09-4.79-35.94-35.59-71.6-71.52-107.01-107.58ZM265.82,340.54c-.92-1.44-8.81-2.75-10.69-3.49-2.02-.8-2.71-2.81-4.66-2.65,2.45,3.92-10.32,10.5-8.6,12.04,2.25-.1,10.44-.05,11.65,1.67,2.29,3.26-3.42,16.51,5.78,13.62.82-.26,5.45-3.87,5.59-4.63.2-1.06-.91-3.26-.75-5.06.21-2.42,2.5-10.19,1.67-11.5ZM294.31,334.4c-1.86-.35-2.34,1.67-4.08,2.36-2.52.99-10.39,1.59-11.27,4.24-.98,2.95,1.53,7.85,1.59,11.04.04,1.83-1.32,4-.9,5.84.1.43,6.94,4.73,7.5,4.78,5.85.55,2.63-12.53,4.09-14.56.85-1.18,9.67-1.72,11.66-1.67-1.39-5.18-9.74-5.26-8.6-12.03ZM369.98,360.2v32.25l103.2,104.11c.61.46,1.2.44,1.91.27,2.15-.53,16.27-14.43,16.06-15.67l-121.17-120.96ZM369.98,405.79c.08,2.17-.58,4.62.81,6.49l92.65,93.18c2.07.54,4.84-2.19,2.89-3.8l-96.35-95.87ZM369.98,432.45v33.11l58.5,58.52c.61.46,1.21.37,1.9.27,1.96-.28,20.17-9.52,20.43-10.65l-80.83-81.26ZM419.85,528.77l-49.86-49.87c.08,2.35-.7,5.12,1.23,6.93,6.32,4.65,41.28,43.5,44.79,43.83,1.35.13,2.54-.8,3.84-.89ZM369.98,538.24c3.46.03,29.23-2.31,29.22-4.73l-29.22-28.81v33.54Z" fill="#0a0463"/><path d="M267.59,116.85l27.65,59.62c-2.15.87-8.7,5.29-10.36,4.44l-35.27-27.14,16.23,35.85c.15,1.66-9.29,7.09-10.6,2.8-8.19-19.56-19.39-37.94-26.33-57.95,3.13-.54,7.37-4.86,10.34-3.52l35.28,27.12-16.34-36.6c-.21-1.6.32-1.02,1.09-1.46,1.27-.74,7.35-3.84,8.3-3.15Z" fill="#0a0463"/><path d="M599.65,392.12c.54-.77,8.02-1.6,10.28-7.35,9.97-25.29-47.6-29.97-44.57-4.61.46,3.82,2.68,9.64,6.61,10.62,11.04,2.74,5.02-5.81,7.76-12.17l10.36.5c-.24,3.37-.09,21.65-1.24,23.28-.7.99-2.36.89-3.49.88-5.15-.06-16.52-.9-21.48-1.81s-9.44-13.8-9.89-18.49c-4.92-50.61,90.32-33.78,65.2,10.19-2.31,4.04-15.56,13.55-18.4,9.21-.32-.48-1.44-9.84-1.14-10.27Z" fill="#0a0463"/><path d="M492.73,141.1c6.74-.91,15.55,2.8,20.4,7.52,22.18,21.6-15.06,75.45-44.2,52.81-22.42-17.42.97-57.26,23.79-60.34ZM493.61,153.12c-13.1,1.54-29.83,28.13-17.82,38.88,14.09,12.61,34.51-14.37,32.54-28.26-.93-6.59-8.27-11.38-14.72-10.62Z" fill="#0a0463"/><path d="M152.22,211.61c24.41-4.13,60.5,24.54,41.85,49.61-17.37,23.34-60.37-1-61.43-24.48-.47-10.34,9.22-23.38,19.58-25.13ZM155.66,222.79c-3.11.5-7.14,3.19-8.77,5.85-13.17,21.43,42.14,46.9,39.98,15.84-.78-11.27-20.63-23.39-31.21-21.69Z" fill="#0a0463"/><path d="M612.37,432.53l-12.83,38.62-10.38-3.98c-.05-4.86,10.24-25.07,8.3-27.88-.49-.7-11.83-4.43-12.56-3.91l-8.61,24.54c-.63.55-11.14-2.05-10.99-4.51.28-4.8,9.12-20.49,8.53-24.15-2.65-1.34-13.83-6.24-15.83-5.61-3.04.96-8.37,25.51-10.89,27.08-.96.6-9.92-2.41-10.28-3.61l14.28-38.09,61.26,21.5Z" fill="#0a0463"/><path d="M620.17,327.48l-11.15,2.62c-.94-1-3.9-23-5.33-26.92-1.19-3.27-11.3.9-14.39,1.19l5.17,26.05c-.24,1.2-10.07,3.09-11.16,2.17-1-.85-4.13-22.49-5.28-25.68l-17.1,3.48c-.42,4.15,6.79,28.21,5.06,29.99-.36.37-9.78,1.99-10.2,1.69-1.68-1.19-7.26-35.53-8.65-40.32l63.98-13.71,9.07,39.44Z" fill="#0a0463"/><path d="M202.91,152.17l43.3,48.52c.45,2.36-6.53,7.57-8.04,7.18-2.49-.65-14.96-17.91-18.32-20.51l-15.75,13.42c-.43,2.64,17.37,18.21,17.88,21.54.18,1.21-5.92,7.18-7.19,7.18l-43.43-49.53c.05-1.25,6.53-6.7,8.01-6.32,2.34.6,13.85,17.29,16.64,17.84,1.31.26,13.83-10.43,14.52-11.94.49-1.08.41-1.49.06-2.57-1.17-3.67-14.55-14.84-15.07-17.74-.31-1.74,5.8-6.12,7.4-7.07Z" fill="#0a0463"/><path d="M329.87,162.94c-3.62-3.75-6.09-10.84-6.32-16.05,2.47.54,8-2.17,9.78-1.65s1.94,9.27,9.28,11.39c11.28,3.25,19.09-10.17,9.91-15.07-8.99-4.81-21.16-1.67-26.88-13.54-14.58-30.29,37.44-40.76,37.95-9.45-.36.5-8.95,1.64-9.45,1.52-1.55-.35-2.15-4.66-3.89-6.36-6.38-6.26-21.28-.27-14.69,7.81,5.02,6.16,23.2,2.51,29.59,15.12,5.65,11.14,2.53,26.65-10.48,30.63-7.8,2.39-18.87,1.81-24.82-4.35Z" fill="#0a0463"/><path d="M162.83,457.33c-.42-.3-3.82-8.49-3.57-9.68.31-1.48,8.49-3.52,7.81-12.18-.9-11.63-16.03-13.84-17.23-3.48-.81,7.01,1.42,15.47-1.02,22.2-4.72,13-24.02,16.61-32.49,5.34-8.58-11.41-6.93-29.55,8.64-32.75.96,2.91,4.15,7.21,3.44,10.22-.31,1.29-6.84,2.63-5.89,9.41,1.52,10.76,14.11,13.93,14.35.13.08-4.49-1.32-9.24-.67-14.43,2.11-17.04,25.47-24.77,36.46-11.72,7.12,8.47,9.35,21.86,1.28,30.54-1.36,1.46-9.53,7.52-11.1,6.4Z" fill="#0a0463"/><path d="M258.2,564.91c.67,2.73,2.44,4.2,2.61,7.34.5,9.29-8.86,19.49-18.43,18.4-2.56-.29-26.82-13.54-27.16-15.06l28.91-49.46c1.52-.24,17.69,9.24,20.01,10.9,12.99,9.34,8.85,24.46-5.94,27.88ZM247.04,539.1c-.18,3.09-6.52,9.39-4.8,12.05.31.48,8.88,5.33,9.91,5.6,6.29,1.64,11.74-3.19,9.04-9.04-.81-1.75-13.26-9.29-14.16-8.61ZM249.33,566.9c-1.53-1.8-11.52-7.7-13.79-7.22-.69.14-5.82,10.79-6.5,12.46.16.67,10.35,6.6,11.8,7.17,7.42,2.95,13.34-6.7,8.5-12.41Z" fill="#0a0463"/><path d="M456.83,137.44h-11.19c1.56-15.08-14.25-20.18-22.52-7.48-6.53,10.01-13.52,39.92,6.57,36.67,5.33-.86,8.02-8.95,11.18-8.6.9.1,6,3.91,6.56,4.73,2.78,4.04-7.38,12.54-10.93,14.13-10.95,4.91-25.06-.14-29.59-11.47-9.08-22.72,11.54-66.76,39.85-51.04,8.93,4.96,11.07,13.33,10.06,23.06Z" fill="#0a0463"/><path d="M322.67,558.93c.45.62-1.81,7.94-2.18,9.46l-25.24-6c-.8,4-2.94,7.8-2.64,11.96l22.34,6.06c-.42,1.48-2.07,8.94-2.67,9.36-1.66,1.18-19-6.04-22.6-5.88-1.6.48-3.63,12.18-4.83,14.55,3.07,1.47,24.12,5.91,24.87,6.96.33.47-1.36,9.01-1.71,9.33-1.72,1.51-30.74-8.55-35.16-9.45l16.27-55.51,33.54,9.15Z" fill="#0a0463"/><path d="M465.49,557.1c2.27,1.63,18.02-11.38,21.71-10.17,1.57.52,4.96,6.74,3.91,8.41-.58.92-18.14,8.94-18.74,10.99-.52,1.77,5.97,13.41,7.94,13.09,2.22-.36,14.12-9.06,17.75-10.68,5.16-2.31,5.78-.88,7.97,4.15.44,1.01.96,1.98.61,3.13l-28.28,16.04c-1.35.56-2.9.75-3.91-.48-2.37-7.14-27.45-43.78-27.12-47.7.13-1.59,1.22-2.12,2.33-2.92,4.64-3.33,18.87-11.6,24.04-13.8,1.04-.44,1.93-1.17,3.18-.85,1.42.37,5.32,6.11,4.53,7.64-1.43,2.74-20.65,10.99-21.06,13.44l5.16,9.72Z" fill="#0a0463"/><path d="M426.73,601.03c.9.9,20.47-7.55,24.49-6.92,2.59.4,4.43,8.03,3.04,9.07-4.34,1.1-34.63,11.48-36.17,10.4-.78-.55-2.18-5.9-2.33-7.18-1.05-8.84,13.53-43.33,11.82-44.92-3.23-.18-20.02,6.6-21.47,5.14l-1.8-8.94c4.38-.95,30.11-10.49,32.17-9.9,2.29.65,3.74,8.38,3.08,10.6l-12.83,42.65Z" fill="#0a0463"/><path d="M110.35,381.67l52.82-5.17c2.35-.8,3.12,9.3,2.97,9.83-.78,2.79-48.76,5.06-54.97,6.56l1.36,15.51c-.33.45-9.49,1.91-10.26,1.77-2.1-.39-4.16-38.03-4.74-42.52.34-1.58,9.82-2.25,10.25-1.92,2.03,1.59,1.32,12.96,2.58,15.96Z" fill="#0a0463"/><path d="M515.4,223.56c-.81,1.41,1.24,3.76,2.12,4.97,3.38,4.67,10.55,10.83,13.12,15.27.53.92,1.34,1.73.61,2.88-.48.76-7.57,6.76-9.07,4.73l-23.24-28.36,48.17-40.45c2.94-2.23,9.34,6.11,8.2,8.18l-39.92,32.79Z" fill="#0a0463"/><path d="M149,307.73c.7-.73,12.89,4.11,13.76-4.81.56-5.67-9.23-8.07-13.57-9.56-12.14-4.18-24.97-6.91-37.17-10.98-1.97-.99,1.16-10.03,1.68-10.41.9-.66,1.87-.33,2.84-.2,7.08.94,42.04,12.05,48.22,15.47,14.82,8.2,11.31,30.8-5.1,32.43-2.09.21-9.26-.15-10.69-1.16-2.33-1.65.5-8.19.03-10.79Z" fill="#0a0463"/><path d="M583.86,231.33c4.14-.82,7.54,7.42,5.39,9.76l-46.08,23.63c-1.46,2.26,10.89,19.91,10.82,23.71-.03,2-8.36,5.9-9.48,5.19-2.71-1.72-12.19-26.57-15.95-30.57l.03-3.49,55.27-28.23Z" fill="#0a0463"/><path d="M344.19,561.46l-1.6,46.76c.29,1.12,1.05,1.23,2.03,1.41,3.57.66,19.18,0,21.11,1.25,1.69,1.09-.97,7.74-.04,9.93l-33.54-1.72,2.58-57.64h9.47Z" fill="#0a0463"/><path d="M390.55,559.82l6.87,57.49c-2.35.46-9.24,2.35-10.13-.48l-6.14-56.22,9.4-.79Z" fill="#0a0463"/><path d="M301.17,107.35c.72,8.07,5.96,16.48,1.62,24.38-.56,1.02-3.34,4.11-4.49,3.92-.85-.14-3.17-2.72-3.16-3.8,0-1.58,2.52-2.88,3.09-4.68,2.68-8.41-3.32-3.54-5.23-6.05-.6-.79-2.38-10.34-2.17-11.58,3.42-.8,6.75-2.5,10.34-2.18Z" fill="#0a0463"/><path d="M164.48,350.74c1.66,3.78-.55,7.19,0,11.19-11.72.19-14.23,2.23-12.9-11.19h12.9Z" fill="#0a0463"/><path d="M352.78,186.46v351.78c-59.64-2.22-115.13-35.19-145.67-86.08-44.8-74.64-27.57-171.33,39.51-226.11,7.04-5.75,15.44-11.58,23.62-15.51v77.41c0,.17-1.87.38-3.05,1.66-4.32,4.69-13.57,21.8-16.34,6.13-.75-4.24-.91-8.95,1-12.86,1.52-3.12,9.04-8.2,6.84-11.32-1.38-1.95-8.59,1.4-11.34,1.66-6.84.64-8.26-.18-11.94-5.9l-1.28,5.15-6.01-2.57c-1.14,3.01,1.37,5.35,1.67,7.35.37,2.44-.27,4.96.23,7.51.63,3.15,3.91,6.37,4.02,10.6.13,4.54-3.78,8.19-4.15,12.94-.32,4.21,1.32,8.03.71,12.71-1.22,9.4-9.82,17.98-12.98,26.57-1.3,3.54-1.24,13.48-6.77,9.67-3.65-2.51,4.75-18.63,5.69-22.8,2.74-12.17-1.56-21.71-15.09-21.54,2.01,5.26,5.65,8.11,6.05,14.15.67,9.98-8.43,25.49-3.68,34.64,2.64,5.08,12.64,2.61,13.1,4.98.22,1.16-1.83,2.4-1.37,4.72.63,3.15,6.46,7.96,7.98,11.87,3.94,10.14-6.25,13.93-3.38,20.59,1.4,3.25,11.64,9.64,13.98,13.53,3.41,1.94,9.53-1.33,6.93-5.19-1.91-2.82-5.85-2.56-8.17-4.74-6.25-5.87-3.56-12.53.21-18.6,3.32-5.35,9.57-8.18,7.51-14.93-.7-2.29-7.72-9.09-3.95-11.63.34-.23,7.12-1.12,8.02-1.05,2.53.21,6.75,2.76,7.72,5.19,1.19,2.97.04,13.13,6.29,6.71,2.11-2.17,4.51-11.13,8.48-10.43.55.1,1.17,3.62,5.25,3.57,5.01-.07,4.29-8.35,10.22.87,2.04,3.17,2.83,9.08,7.73,7.72,1.67-.46-.39-8.35,5.38-11.95,4.69-2.93,8.05-1.23,13.11-.07,1.04,4.93-6.1,10.53-5.72,14.85.29,3.22,6.06,7.35,8.23,10.59.93,1.39,4.33,7.98,4.38,9.41.07,1.79-1.49,6.15-2.52,7.67-2.13,3.16-9.54,5.51-10.17,6.59-1.92,3.29,4.02,7.76,7.38,5.3,3.09-4.18,11.61-9.49,14-13.57,2.98-5.08-3.7-8.31-4.29-13.9-1.02-9.62,6.53-11.49,8.16-16.63.85-2.68-.67-6.18-.11-6.95,1.15-1.58,12.07.44,13.37-6.45,2.4-12.69-6.99-24.64-3.46-37.01,1.05-3.69,4.36-6.05,4.34-9.84-14.88.03-17.53,12.12-13.7,24.46.94,3.04,12.08,23.86,1.34,20.17-1.4-.48-2.61-8.62-3.56-11.08-3.38-8.77-11.23-15.16-12.36-25.47-.52-4.72,1.12-8.73.71-12.72-.72-6.97-6.58-9.28-2.95-18.58,2.61-6.68,1.99-5.23,3.05-12.43.34-2.31,2.51-4.51,1.67-7.35l-6.01,2.57-1.28-5.15c-3.68,5.72-5.1,6.54-11.94,5.9-3.7-.35-14.04-5.8-11.26,1.8,1.63,4.46,7.22,5.71,8.07,12.58.3,2.45-.56,13.17-3.05,14.03-6.39,2.21-11.95-12.11-17.09-14.52l-.42-77.86c.53-2.77,10.95-6.93,14.04-8.32,20.09-9,42.98-14.34,65.07-14.47ZM286.57,393.74c1.43-1.36-4.59-7.58-5-9.25-.85-3.36,2.35-3.71,2.42-5.77.28-8.66-24.65-7.57-22.22.65.44,1.48,2.7,1.88,2.49,4.42-.12,1.37-10.51,14.35-1.28,9.13,3.49-1.97,4.57-5.42,10.25-5.23,4.77.16,11.65,7.68,13.35,6.05ZM269.48,407.44c-1.77-1.53-1.59-8.21-3.12-8.53-3.71-.78-2.66,8.24-3,8.59-2.35,2.43-4.6-4.33-3.43-6.45-.09-.78-1.13-.64-1.74-.02-.41.42-3.53,10.09-3.49,11.18.09,2.17,1.97,5.67,4.11,6.29,2.81.82,20.98.56,24.76.18,12.45-1.25,5.27-9.75,5.58-18.06-1.01-1.33-3.73,3.93-3.87,4.35-.72,2.07,2.34,4.43-2.57,3.39-4.01-.85-2.18-6.08-3.84-7.38-1.04-.81-3.07.89-3.47.5-.44-.42,1.03-3.53-1.72-2.58.08,4.09,1.07,8.26-4.2,8.53Z" fill="#f9f9fb"/><path d="M369.98,208.82l2.59,1.28c55.53,55.41,110.92,110.9,165.74,166.96-1.14,7.82-1.95,15.86-3.63,23.59-.28,1.27-1,6.67-2.6,5.98l-159.53-160.38c-.58-.7-2.56-2.88-2.56-3.46v-33.97Z" fill="#f9f9fb"/><path d="M369.98,283.65l152.17,152.64c.05,2.24-11.71,22.42-13.4,22.78l-1.19-.35-137.57-138.52v-36.55Z" fill="#f9f9fb"/><path d="M536.78,335.25l-146.16-147.07c74.21,12.54,134.75,72.32,146.16,147.07Z" fill="#f9f9fb"/><path d="M369.98,360.2l121.17,120.96c.22,1.24-13.9,15.14-16.06,15.67-.71.17-1.3.19-1.91-.27l-103.2-104.11v-32.25Z" fill="#f9f9fb"/><path d="M369.98,432.45l80.83,81.26c-.26,1.12-18.46,10.37-20.43,10.65-.7.1-1.3.19-1.9-.27l-58.5-58.52v-33.11Z" fill="#f9f9fb"/><path d="M460.56,272.17c25.55,25.82,51.34,51.57,77.13,77.23,1.23,1.96,1.2,5.21.39,7.35l-167.68-170.3c1.5-2.08,5.19-.18,6.47,1.28,28.25,27.79,55.82,56.28,83.69,84.44Z" fill="#f9f9fb"/><path d="M529.04,421.27c-.6.52-2.28-.23-3.07-.83-3.4-2.58-8.97-9.95-12.37-13.39-47.88-48.39-97.08-95.92-143.6-145.35v-4.71s2.57,1.28,2.57,1.28l156.55,157.38c1.19.58.14,5.43-.08,5.62Z" fill="#f9f9fb"/><path d="M395.44,357.95c35.41,36.06,71.07,71.99,107.01,107.58,1.86,1.75-1.06,7.54-3.09,4.79l-129.17-130.09c-.16-.9-1.18-7.62,1.07-6.68,8.15,8.04,16.16,16.24,24.18,24.4Z" fill="#f9f9fb"/><path d="M369.98,405.79l96.35,95.87c1.95,1.62-.82,4.35-2.89,3.8l-92.65-93.18c-1.38-1.87-.73-4.32-.81-6.49Z" fill="#f9f9fb"/><path d="M369.98,538.24v-33.54l29.22,28.81c.01,2.42-25.76,4.76-29.22,4.73Z" fill="#f9f9fb"/><path d="M271.1,293.11v16.77c0,1.42-6.8,4.96-7.66,11.25-.96,7.01-.26,4.78,3.78,5.52,4.44.81-.89,7.63.44,11.18-.56.66-11.68-6.07-12.45-7.76-1.64-3.59,1.61-5.5,1.28-8.92-.25-2.51-3.08-5.54-2.64-8.57.38-1.93,6.63-.94,7.67-1.55,2.53-1.49.62-18.53,9.6-17.92Z" fill="#f9f9fb"/><path d="M273.68,293.11c8.74,1.84,6.7,8.96,7.93,14.86,1.11,5.3,6.12,1.78,9.34,4.6.39,2.97-2.25,5.02-2.62,7.7-.5,3.67,1.92,7.27.38,10.67-.7,1.56-10.81,6.83-11.59,6.04,1.07-3.4-3.96-9.52.44-10.33,3.74-.69,4.64,1.72,3.78-4.65-.98-7.22-7.66-10.56-7.66-11.26v-17.63Z" fill="#f9f9fb"/><path d="M294.31,334.4c-1.14,6.77,7.21,6.85,8.6,12.03-2-.06-10.81.49-11.66,1.67-1.46,2.03,1.75,15.11-4.09,14.56-.57-.05-7.4-4.35-7.5-4.78-.42-1.85.94-4.01.9-5.84-.07-3.19-2.57-8.08-1.59-11.04.88-2.65,8.74-3.25,11.27-4.24,1.74-.68,2.23-2.7,4.08-2.36Z" fill="#f9f9fb"/><path d="M265.82,340.54c.83,1.31-1.46,9.08-1.67,11.5-.16,1.8.95,4.01.75,5.06-.15.76-4.77,4.37-5.59,4.63-9.2,2.89-3.49-10.36-5.78-13.62-1.21-1.73-9.4-1.78-11.65-1.67-1.73-1.53,11.05-8.12,8.6-12.04,1.95-.16,2.63,1.85,4.66,2.65,1.88.75,9.77,2.05,10.69,3.49Z" fill="#f9f9fb"/><path d="M419.85,528.77c-1.3.09-2.49,1.02-3.84.89-3.51-.33-38.46-39.18-44.79-43.83-1.94-1.81-1.16-4.58-1.23-6.93l49.86,49.87Z" fill="#f9f9fb"/><path d="M493.61,153.12c6.46-.76,13.79,4.03,14.72,10.62,1.96,13.89-18.45,40.86-32.54,28.26-12.02-10.75,4.72-37.34,17.82-38.88Z" fill="#f9f9fb"/><path d="M155.66,222.79c10.58-1.7,30.42,10.42,31.21,21.69,2.16,31.05-53.15,5.59-39.98-15.84,1.63-2.66,5.66-5.35,8.77-5.85Z" fill="#f9f9fb"/><path d="M249.33,566.9c4.84,5.71-1.08,15.36-8.5,12.41-1.44-.57-11.64-6.5-11.8-7.17.69-1.67,5.82-12.31,6.5-12.46,2.27-.48,12.27,5.42,13.79,7.22Z" fill="#f9f9fb"/><path d="M247.04,539.1c.9-.68,13.35,6.86,14.16,8.61,2.69,5.85-2.76,10.68-9.04,9.04-1.03-.27-9.6-5.12-9.91-5.6-1.73-2.66,4.62-8.96,4.8-12.05Z" fill="#f9f9fb"/><path d="M269.48,407.44c5.27-.26,4.28-4.44,4.2-8.53,2.75-.94,1.28,2.16,1.72,2.58.4.38,2.43-1.31,3.47-.5,1.67,1.3-.17,6.52,3.84,7.38,4.9,1.05,1.85-1.31,2.57-3.39.14-.42,2.86-5.68,3.87-4.35-.31,8.32,6.87,16.82-5.58,18.06-3.78.38-21.95.64-24.76-.18-2.14-.63-4.02-4.13-4.11-6.29-.04-1.09,3.08-10.76,3.49-11.18.61-.63,1.65-.77,1.74.02-1.17,2.12,1.08,8.88,3.43,6.45.34-.35-.71-9.37,3-8.59,1.53.32,1.35,6.99,3.12,8.53Z" fill="#0a0463"/><path d="M286.57,393.74c-1.7,1.63-8.58-5.9-13.35-6.05-5.68-.19-6.77,3.26-10.25,5.23-9.23,5.22,1.17-7.76,1.28-9.13.21-2.54-2.05-2.94-2.49-4.42-2.43-8.21,22.5-9.31,22.22-.65-.07,2.06-3.26,2.41-2.42,5.77.42,1.66,6.43,7.88,5,9.25Z" fill="#0a0463"/></svg>