<?xml version="1.0" encoding="UTF-8"?><svg id="Layer_1" xmlns="http://www.w3.org/2000/svg" viewBox="0 0 1034 1034"><path d="M41.76,611.81c-2.46.84-4.59,1.42-6.35,1.69s-3.16.22-4.19-.13-1.68-1.03-1.94-2.03c-.2-.75-.15-1.86.05-3.2.2-1.34.55-2.92.96-4.6.41-1.68.88-3.46,1.31-5.21.44-1.75.84-3.47,1.11-5.03.22-1.17.42-2.41.6-3.72s.34-2.68.49-4.11c.15-1.43.28-2.92.39-4.46.11-1.54.21-3.13.29-4.76s.14-3.31.19-5.02c.05-1.71.08-3.46.1-5.23.02-1.77.02-3.58,0-5.4-.01-1.82-.04-3.66-.08-5.52-.04-1.85-.09-3.72-.16-5.59-.07-1.87-.15-3.75-.24-5.62-.09-1.87-.2-3.74-.32-5.6-.12-1.86-.25-3.71-.39-5.54-.14-1.83-.3-3.64-.46-5.43-.17-1.79-.34-3.55-.53-5.28-.19-1.73-.38-3.42-.59-5.08-.21-1.66-.43-3.27-.65-4.84-.23-1.57-.46-3.03-.71-4.43-.25-1.4-.5-2.76-.77-4.06-.26-1.3-.54-2.54-.82-3.72-.28-1.18-.57-2.29-.86-3.34-.75-2.66-1.61-4.88-2.52-6.76-.9-1.88-1.85-3.42-2.77-4.7-.92-1.28-1.82-2.31-2.62-3.18-.8-.87-1.52-1.58-2.07-2.22-.55-.64-.95-1.21-1.11-1.82-.15-.56-.13-1.21.08-1.97.21-.76.61-1.62,1.22-2.59.61-.97,1.42-2.05,2.44-3.23s2.28-2.49,3.76-3.9,3.2-2.94,5.16-4.57c1.96-1.63,4.18-3.37,6.65-5.22,1.14-.86,2.31-1.71,3.51-2.55,1.2-.84,2.42-1.68,3.67-2.51,1.25-.83,2.52-1.65,3.81-2.47,1.29-.82,2.61-1.63,3.94-2.43,1.33-.8,2.69-1.59,4.06-2.38,1.37-.79,2.76-1.56,4.16-2.33s2.82-1.53,4.25-2.28c1.43-.75,2.88-1.49,4.33-2.23,1.96-.99,3.91-1.92,5.84-2.79s3.84-1.68,5.73-2.43,3.76-1.45,5.61-2.08c1.85-.64,3.68-1.21,5.49-1.73s3.59-.98,5.35-1.39c1.76-.4,3.49-.75,5.2-1.04,1.71-.29,3.39-.52,5.04-.7,1.65-.18,3.28-.3,4.88-.36,1.6-.06,3.17-.07,4.7-.02,1.54.05,3.04.16,4.52.32s2.92.38,4.32.66c1.41.28,2.78.61,4.12,1,1.34.39,2.64.84,3.91,1.34s2.49,1.07,3.68,1.69c1.19.62,2.34,1.3,3.45,2.03s2.18,1.53,3.21,2.39c1.03.85,2.02,1.77,2.96,2.74.94.97,1.84,2.01,2.7,3.1.86,1.1,1.67,2.25,2.43,3.47.76,1.22,1.48,2.5,2.15,3.84.67,1.34,1.29,2.75,1.86,4.22.57,1.47,1.09,3.01,1.56,4.61.4,1.36.76,2.71,1.08,4.07.32,1.35.61,2.7.86,4.05.25,1.35.46,2.69.64,4.03.18,1.34.32,2.68.42,4.01.11,1.33.18,2.83.21,4.49.03,1.66.03,3.32,0,4.96-.04,1.65-.11,3.29-.21,4.92-.1,1.63-.24,3.25-.42,4.87s-.38,3.22-.62,4.81c-.24,1.59-.51,3.18-.82,4.75-.31,1.57-.65,3.14-1.02,4.69-.37,1.55-.78,3.1-1.21,4.63-.44,1.53-.91,3.06-1.41,4.57-.5,1.51-1.03,3.01-1.6,4.5-.56,1.49-1.16,2.96-1.78,4.43s-1.28,2.92-1.97,4.36c-.69,1.44-1.4,2.87-2.15,4.28-.75,1.41-1.52,2.82-2.33,4.21-.81,1.39-1.64,2.76-2.5,4.13-.86,1.36-1.76,2.71-2.68,4.05-.92,1.33-1.87,2.66-2.85,3.96-.98,1.31-1.98,2.6-3.01,3.88s-2.09,2.54-3.18,3.79c-1.09,1.25-2.2,2.48-3.34,3.7-1.14,1.22-2.31,2.42-3.5,3.61-1.19,1.19-2.41,2.36-3.66,3.52-1.24,1.16-2.51,2.3-3.81,3.43-1.3,1.13-2.62,2.24-3.96,3.34-1.35,1.1-2.72,2.18-4.11,3.24-1.39,1.07-2.81,2.11-4.25,3.15s-2.91,2.05-4.4,3.05c-1.49,1-3,1.99-4.54,2.96-1.54.97-3.09,1.92-4.67,2.86-1.58.94-3.18,1.86-4.81,2.76-1.62.91-3.27,1.8-4.94,2.67-1.67.87-3.36,1.73-5.07,2.58-1.73.85-3.42,1.67-5.08,2.46-1.66.79-3.28,1.55-4.86,2.28-1.58.73-3.13,1.43-4.63,2.09-1.5.67-2.96,1.3-4.37,1.9-1.41.6-2.78,1.17-4.1,1.71-1.32.54-2.59,1.04-3.81,1.52-1.22.47-2.39.91-3.51,1.32-1.12.4-2.19.77-3.18,1.11ZM124.04,470.63c-.57-1.92-1.19-3.76-1.87-5.51-.68-1.75-1.41-3.42-2.19-5-.78-1.58-1.62-3.06-2.5-4.45-.88-1.39-1.82-2.69-2.8-3.88s-2-2.29-3.07-3.28c-1.07-.99-2.18-1.88-3.34-2.66-1.16-.78-2.35-1.45-3.59-2-1.24-.55-2.51-.99-3.82-1.31-1.31-.32-2.66-.51-4.04-.58s-2.8,0-4.24.18c-1.45.19-2.93.52-4.43.99-1.51.47-3.04,1.08-4.61,1.83-1.4.68-2.73,1.43-3.99,2.25s-2.46,1.71-3.58,2.67c-1.13.95-2.19,1.97-3.2,3.04-1,1.07-1.94,2.21-2.82,3.39s-1.7,2.42-2.47,3.7-1.47,2.61-2.13,3.98c-.65,1.37-1.25,2.78-1.8,4.22-.55,1.44-1.05,2.92-1.5,4.43s-.85,3.04-1.21,4.6-.67,3.14-.93,4.74-.49,3.22-.68,4.84-.33,3.27-.44,4.91c-.11,1.65-.18,3.3-.21,4.95-.03,1.65-.04,3.4,0,5.25.03,1.84.09,3.68.19,5.52.09,1.83.21,3.66.36,5.47s.32,3.61.52,5.39c.2,1.78.42,3.54.66,5.28.24,1.74.5,3.45.79,5.13.28,1.68.58,3.34.89,4.96s.64,3.21.99,4.75c.34,1.55.7,3.05,1.06,4.51.6,2.41,1.22,4.66,1.86,6.76s1.31,4.03,2.01,5.81c.7,1.78,1.43,3.4,2.2,4.86s1.58,2.76,2.43,3.9c.85,1.14,1.76,2.11,2.71,2.93.95.81,1.96,1.47,3.03,1.96,1.07.49,2.19.82,3.39.98,1.19.17,2.45.17,3.79,0,1.33-.16,2.74-.49,4.23-.97s3.06-1.14,4.72-1.96c1.35-.67,2.67-1.39,3.94-2.17,1.27-.78,2.5-1.61,3.69-2.49,1.19-.88,2.33-1.82,3.43-2.81,1.1-.99,2.16-2.02,3.18-3.11,1.02-1.08,2-2.22,2.93-3.39.94-1.18,1.83-2.4,2.69-3.67.85-1.27,1.67-2.57,2.44-3.92.77-1.35,1.5-2.74,2.19-4.16.69-1.43,1.34-2.89,1.94-4.39.61-1.5,1.17-3.03,1.7-4.59.53-1.56,1.01-3.16,1.45-4.78s.85-3.27,1.21-4.95c.36-1.67.68-3.37.97-5.1.28-1.72.52-3.46.72-5.23s.36-3.54.48-5.34c.12-1.79.2-3.61.24-5.43.04-1.82.04-3.66,0-5.5-.04-1.84-.12-3.69-.24-5.55s-.28-3.72-.48-5.58c-.2-1.86-.44-4.02-.72-5.51s-.6-2.99-.95-4.48c-.36-1.49-.75-2.97-1.19-4.45Z" fill="#fff"/><path d="M180.58,547.95c-1.69.06-3.22-.06-4.51-.35-1.3-.29-2.37-.74-3.16-1.32-.79-.58-1.31-1.3-1.49-2.11-.15-.67-.09-1.59.1-2.72.19-1.12.53-2.44.95-3.89.42-1.45.92-3.04,1.45-4.69.53-1.65,1.08-3.37,1.6-5.1s1.01-3.46,1.41-5.14c.31-1.29.61-2.67.88-4.14.27-1.47.52-3.02.75-4.64.23-1.62.44-3.32.64-5.08.19-1.76.37-3.58.52-5.46.16-1.88.29-3.81.41-5.78.12-1.97.22-3.99.3-6.04s.15-4.13.2-6.24.08-4.24.1-6.39c.02-2.15.02-4.31,0-6.47s-.04-3.51-.09-5.24c-.04-1.72-.1-3.44-.17-5.14-.07-1.7-.16-3.39-.26-5.07s-.21-3.32-.34-4.95-.26-3.22-.42-4.79c-.15-1.57-.31-3.1-.49-4.59-.17-1.49-.36-2.94-.56-4.35-.2-1.4-.4-2.76-.62-4.06-.22-1.3-.45-2.55-.68-3.74-.24-1.19-.49-2.31-.74-3.37-.26-1.06-.52-2.05-.8-2.97-.75-2.52-1.58-4.62-2.43-6.39-.85-1.77-1.72-3.21-2.56-4.41-.84-1.2-1.64-2.16-2.37-2.98-.72-.81-1.36-1.48-1.86-2.09-.5-.61-.87-1.16-1.04-1.74-.24-.81-.12-1.63.31-2.46s1.16-1.67,2.14-2.51c.98-.84,2.2-1.67,3.61-2.49s3-1.62,4.71-2.4c1.71-.78,3.54-1.53,5.44-2.25,1.89-.72,3.84-1.4,5.79-2.05s3.9-1.25,5.78-1.8c1.88-.56,3.7-1.06,5.4-1.52,1.69-.46,3.26-.87,4.64-1.22,2.41-.62,4.7-1.19,6.89-1.73,2.19-.53,4.27-1.03,6.25-1.48s3.86-.88,5.64-1.26,3.48-.73,5.08-1.04c1.6-.31,3.12-.59,4.55-.83,1.43-.24,2.79-.45,4.07-.63,1.28-.18,2.48-.32,3.62-.42s2.2-.18,3.21-.22,1.95-.05,2.84-.03c.89.02,1.73.08,2.5.17,1.67.21,3.19.68,4.55,1.33,1.36.65,2.58,1.49,3.66,2.47,1.08.97,2.04,2.08,2.88,3.27.84,1.19,1.58,2.46,2.22,3.76.64,1.3,1.19,2.62,1.66,3.91.47,1.29.87,2.55,1.21,3.72.46,1.59.74,3.17.84,4.67.1,1.5,0,2.91-.26,4.15s-.72,2.3-1.35,3.1c-.63.8-1.44,1.34-2.43,1.53-1.18.23-2.39.07-3.66-.39-1.27-.46-2.61-1.23-4.05-2.2-1.44-.97-3-2.15-4.7-3.45-1.93-1.47-3.7-2.79-5.36-3.97-1.66-1.18-3.2-2.23-4.65-3.14-1.45-.91-2.82-1.69-4.14-2.34-1.32-.65-2.58-1.17-3.82-1.56-1.24-.4-2.46-.67-3.7-.81s-2.48-.17-3.77-.07-2.62.32-4.03.65c-1.97.47-3.74,1.11-5.32,1.87s-2.96,1.67-4.17,2.68-2.24,2.13-3.1,3.35c-.86,1.21-1.56,2.51-2.11,3.88-.55,1.37-.94,2.8-1.2,4.28s-.37,3-.37,4.55c0,1.55.14,3.12.39,4.69.25,1.57.6,3.15,1.06,4.7.49,1.66,1.08,3.26,1.76,4.77s1.46,2.94,2.33,4.26c.87,1.32,1.83,2.53,2.88,3.6s2.19,2.01,3.42,2.79c1.23.78,2.54,1.4,3.94,1.84s2.88.69,4.44.74c1.56.05,3.2-.12,4.92-.51,1.48-.34,2.87-.85,4.16-1.54,1.29-.69,2.48-1.57,3.55-2.64,1.07-1.07,2.03-2.34,2.86-3.81.83-1.47,1.54-3.15,2.09-5.04.57-1.93,1.01-3.4,1.46-4.51.46-1.12.93-1.88,1.54-2.43.62-.55,1.39-.87,2.44-1.09.89-.19,1.77-.1,2.63.22s1.71.89,2.54,1.67,1.63,1.78,2.41,2.96c.78,1.19,1.53,2.56,2.26,4.1.72,1.54,1.41,3.24,2.07,5.08s1.28,3.82,1.85,5.91c.79,2.86,1.44,5.43,1.93,7.72.49,2.29.82,4.29.97,6.02s.12,3.18-.1,4.37-.64,2.11-1.26,2.79c-.63.67-1.46,1.1-2.53,1.29-.92.17-1.81.03-2.74-.36-.94-.4-1.92-1.06-3.04-1.94s-2.36-2-3.82-3.27c-.92-.8-1.9-1.52-2.93-2.15-1.04-.63-2.13-1.17-3.31-1.6-1.18-.43-2.43-.75-3.77-.94-1.35-.19-2.78-.26-4.33-.17s-3.2.32-4.98.71c-1.7.38-3.3.88-4.78,1.48-1.48.6-2.86,1.3-4.13,2.09-1.27.79-2.43,1.67-3.49,2.63-1.06.96-2.01,2-2.87,3.1-.85,1.1-1.61,2.28-2.26,3.5-.66,1.23-1.21,2.23-1.67,3.88-.46,1.65-.83,3.35-1.1,5.1-.27,1.75-.46,3.55-.55,5.38-.09,1.83-.09,3.69,0,5.57.08,1.88.26,3.78.51,5.68.26,1.9.6,3.81,1.02,5.72.42,1.9.92,3.69,1.5,5.37.58,1.68,1.23,3.24,1.95,4.67.73,1.43,1.53,2.74,2.4,3.9.87,1.17,1.82,2.2,2.84,3.08,1.02.88,2.1,1.62,3.26,2.19,1.16.58,2.38,1,3.68,1.25,1.29.25,2.65.34,4.08.25,1.43-.09,2.92-.35,4.47-.8.89-.26,1.77-.56,2.66-.96.89-.39,1.77-.86,2.66-1.45.89-.58,1.78-1.28,2.67-2.11.89-.83,1.79-1.81,2.7-2.95.91-1.14,1.82-2.45,2.74-3.95.92-1.5,1.85-3.19,2.79-5.11s1.89-4.04,2.86-6.42c.96-2.37,1.94-4.99,2.93-7.87.72-2.13,1.45-4.09,2.19-5.84s1.5-3.31,2.28-4.62c.78-1.31,1.58-2.38,2.41-3.16s1.68-1.29,2.57-1.48c.94-.2,1.85-.04,2.72.41.87.46,1.69,1.22,2.46,2.25.76,1.03,1.46,2.33,2.08,3.86.62,1.53,1.16,3.29,1.6,5.24.38,1.71.71,3.44.97,5.17.26,1.74.45,3.48.56,5.21s.16,3.45.12,5.15c-.04,1.69-.16,3.36-.37,4.98-.21,1.62-.5,3.2-.9,4.72-.39,1.52-.88,2.98-1.47,4.36-.59,1.38-1.28,2.69-2.08,3.9-.8,1.21-1.71,2.33-2.74,3.34-.5.47-1.08.94-1.75,1.39s-1.43.91-2.28,1.36c-.85.45-1.8.91-2.85,1.37-1.05.46-2.2.92-3.46,1.4s-2.63.96-4.11,1.47c-1.48.51-3.08,1.03-4.8,1.58-1.72.55-3.56,1.12-5.53,1.73-1.97.61-4.07,1.24-6.3,1.92s-4.6,1.4-7.12,2.16c-2.51.77-5.17,1.58-7.97,2.46-1.62.51-3.31,1.02-5.04,1.55s-3.5,1.05-5.28,1.57c-1.78.52-3.59,1.04-5.38,1.55-1.8.51-3.58,1-5.34,1.48-1.76.48-3.49.93-5.16,1.36-1.68.43-3.3.82-4.84,1.18-1.54.36-3.01.68-4.38.94s-2.63.49-3.78.65c-1.14.16-2.16.25-3.03.28Z" fill="#fff"/><path d="M322.29,495.62c-.71-1.55-1.41-3.12-2.1-4.71s-1.36-3.21-2.03-4.84-1.32-3.28-1.96-4.95c-.64-1.67-1.28-3.35-1.91-5.04s-1.25-3.19-1.86-4.78c-.61-1.59-1.22-3.18-1.82-4.77-.6-1.59-1.2-3.19-1.79-4.78-.59-1.59-1.18-3.19-1.77-4.78-.59-1.59-1.17-3.18-1.75-4.77-.58-1.58-1.16-3.17-1.74-4.74-.58-1.57-1.16-3.14-1.74-4.7-.58-1.56-1.16-3.11-1.75-4.65s-1.17-3.07-1.76-4.58c-.59-1.52-1.19-3.02-1.79-4.51-.6-1.49-1.21-2.96-1.82-4.42-.61-1.46-1.23-2.9-1.86-4.32s-1.26-2.83-1.9-4.21-1.3-2.75-1.96-4.09c-.66-1.34-1.34-2.67-2.02-3.96s-1.38-2.57-2.09-3.82c-.76-1.34-1.49-2.61-2.22-3.81-.73-1.21-1.46-2.36-2.19-3.46s-1.48-2.17-2.24-3.2-1.56-2.04-2.38-3.03c-.83-.99-1.69-1.97-2.6-2.95-1.06-1.11-2.42-2.55-3.59-3.92-1.17-1.38-2.14-2.7-2.41-3.6-.19-.62-.08-1.26.29-1.9.37-.64,1.01-1.29,1.88-1.93s1.99-1.28,3.32-1.9,2.87-1.22,4.59-1.8c1.73-.58,3.64-1.13,5.71-1.65,2.07-.52,4.31-.99,6.68-1.43,2.47-.45,4.84-.82,7.09-1.09,2.25-.28,4.38-.47,6.35-.56,1.97-.09,3.79-.1,5.42,0s3.07.3,4.3.6c1.22.3,2.23.71,2.98,1.23.75.52,1.26,1.15,1.48,1.9.37,1.25.26,2.49.04,3.93s-.6,3.1-.7,5.14c-.03.62-.04,1.37-.02,2.24.01.87.05,1.86.12,2.97s.17,2.35.3,3.7c.14,1.36.31,2.84.53,4.44s.49,3.33.81,5.18c.32,1.85.69,3.83,1.13,5.93.43,2.11.93,4.34,1.49,6.7.56,2.36,1.2,4.86,1.91,7.49.58,2.15,1.18,4.28,1.79,6.37.61,2.1,1.24,4.16,1.88,6.19.64,2.03,1.3,4.01,1.97,5.95.67,1.94,1.35,3.83,2.05,5.66.69,1.83,1.4,3.6,2.12,5.3.72,1.7,1.44,3.34,2.18,4.89.74,1.55,1.48,3.03,2.23,4.41.75,1.39,1.51,2.68,2.28,3.88.77,1.2,1.54,2.29,2.31,3.27s1.56,1.86,2.34,2.61c.78.75,1.57,1.38,2.36,1.88s1.58.86,2.37,1.08c.79.22,1.58.3,2.37.24.87-.07,1.71-.31,2.53-.71.82-.4,1.61-.95,2.37-1.64.76-.69,1.5-1.53,2.21-2.49.71-.96,1.39-2.04,2.05-3.23.65-1.19,1.28-2.49,1.88-3.89.6-1.39,1.16-2.88,1.7-4.44.54-1.56,1.04-3.2,1.51-4.91.47-1.7.92-3.47,1.32-5.27.41-1.81.78-3.67,1.13-5.55.34-1.89.65-3.81.92-5.74.27-1.94.51-3.89.71-5.84.2-1.96.37-3.91.49-5.86.13-1.95.22-3.88.27-5.79.05-1.91.07-3.8.04-5.64-.03-1.85-.09-3.66-.2-5.41s-.25-3.46-.44-5.11c-.19-1.64-.42-3.22-.69-4.72-.27-1.5-.59-2.93-.94-4.26-.59-2.22-1.34-4.31-2.18-6.28-.84-1.97-1.77-3.81-2.73-5.52-.96-1.71-1.95-3.3-2.91-4.77-.96-1.46-1.88-2.8-2.72-4.01-.83-1.21-1.57-2.3-2.15-3.26-.58-.96-1-1.81-1.21-2.53-.27-.95-.17-1.79.3-2.54.47-.74,1.3-1.39,2.49-1.94s2.74-1.02,4.65-1.39c1.91-.38,4.17-.67,6.79-.87,1.97-.16,3.79-.18,5.45-.07,1.67.11,3.18.35,4.56.74,1.38.38,2.62.91,3.73,1.57,1.11.67,2.09,1.48,2.96,2.44.86.96,1.61,2.07,2.25,3.34s1.17,2.69,1.6,4.27c.24.9.46,1.86.66,2.89s.36,2.13.5,3.29.26,2.38.35,3.66c.09,1.28.16,2.61.2,4,.04,1.39.06,2.83.05,4.31,0,1.49-.04,3.02-.1,4.6-.06,1.58-.14,3.2-.25,4.86-.11,1.66-.24,3.35-.39,5.08-.16,1.73-.33,3.49-.54,5.28-.2,1.79-.43,3.61-.68,5.45s-.53,3.71-.82,5.6c-.3,1.89-.62,3.79-.97,5.71s-.71,3.85-1.11,5.79-.81,3.89-1.25,5.83-.9,3.9-1.38,5.85c-.48,1.95-.99,3.9-1.52,5.84-.53,1.94-1.08,3.87-1.66,5.79-.57,1.92-1.17,3.82-1.79,5.71s-1.26,3.75-1.92,5.6c-.66,1.84-1.35,3.66-2.06,5.45s-1.44,3.54-2.19,5.26c-.75,1.72-1.52,3.4-2.32,5.04s-1.61,3.24-2.45,4.8c-.84,1.56-1.69,3.07-2.57,4.52s-1.78,2.85-2.7,4.18-1.86,2.6-2.82,3.8c-.96,1.2-1.95,2.33-2.95,3.38-1,1.05-2.03,2.03-3.07,2.92-1.04.89-2.11,1.68-3.19,2.43-1.08.75-2.19,1.42-3.31,1.99-1.12.57-2.27,1.05-3.43,1.43-1.16.38-2.35.65-3.55.82-1.38.19-2.66.18-3.85-.02s-2.29-.6-3.33-1.17c-1.03-.57-2-1.32-2.91-2.23-.91-.91-1.77-1.97-2.6-3.17-.83-1.2-1.62-2.55-2.4-4.01-.78-1.46-1.54-3.05-2.3-4.74Z" fill="#fff"/><path d="M438.93,495.29c-.2-.83-.09-2.07.55-3.54.65-1.86,1.22-3.67,1.73-5.43s.93-3.49,1.3-5.18.67-3.33.91-4.95c.24-1.61.42-3.19.55-4.74s.2-3.06.22-4.55c.02-1.49,0-2.94-.07-4.38-.07-1.43-.17-2.84-.32-4.23-.15-1.39-.33-2.75-.54-4.1-.21-1.35-.46-2.67-.72-3.98-.27-1.31-.56-2.61-.87-3.89-.3-1.22-.65-2.5-1.04-3.83-.39-1.33-.83-2.7-1.31-4.12-.48-1.42-1-2.87-1.55-4.36-.56-1.49-1.15-3.01-1.78-4.55s-1.29-3.11-1.98-4.7c-.69-1.59-1.41-3.19-2.16-4.8-.75-1.61-1.52-3.23-2.31-4.86s-1.61-3.25-2.44-4.87-1.69-3.23-2.55-4.84-1.75-3.19-2.64-4.76c-.89-1.57-1.8-3.12-2.71-4.65-.91-1.53-1.83-3.02-2.75-4.49s-1.84-2.9-2.77-4.3c-.92-1.4-1.85-2.75-2.76-4.07-.92-1.31-1.83-2.58-2.74-3.8-.91-1.22-1.8-2.38-2.69-3.49-.89-1.11-1.76-2.17-2.62-3.16s-1.7-1.93-2.52-2.79c-.82-.87-1.63-1.66-2.41-2.39-1.08-1.02-1.88-1.93-2.44-2.68s-.88-1.37-1-1.82c-.23-.83-.11-1.62.31-2.35.42-.74,1.13-1.43,2.08-2.07.96-.64,2.15-1.23,3.55-1.76,1.39-.54,2.97-1.02,4.7-1.44,1.72-.43,3.58-.79,5.53-1.1,1.95-.31,3.99-.55,6.06-.73,1.94-.17,3.93-.27,5.9-.3s3.93.01,5.8.14,3.67.33,5.32.62c1.65.29,3.16.67,4.47,1.14,1.3.47,2.4,1.04,3.23,1.7s1.39,1.43,1.62,2.3c.07.28.1.95-.02,1.84-.12.89-.38,2.02-.88,3.2-.38,1.02-.63,2.14-.79,3.33-.15,1.19-.2,2.46-.17,3.79.04,1.33.16,2.73.36,4.18.19,1.45.46,2.95.78,4.49s.69,3.12,1.1,4.73c.46,1.8,1,3.62,1.6,5.46s1.27,3.68,1.99,5.5c.72,1.83,1.49,3.64,2.31,5.41s1.68,3.5,2.57,5.17,1.81,3.27,2.76,4.78c.94,1.51,1.91,2.94,2.88,4.24.97,1.31,1.96,2.5,2.94,3.55.98,1.05,1.96,1.96,2.93,2.7.97.74,1.92,1.32,2.85,1.7s1.83.57,2.7.54c1.2-.04,2.34-.33,3.4-.82s2.07-1.2,3-2.09c.93-.89,1.79-1.96,2.58-3.18.79-1.22,1.51-2.59,2.16-4.08.65-1.49,1.23-3.1,1.74-4.8s.94-3.48,1.3-5.32c.36-1.84.65-3.73.87-5.65s.36-3.85.42-5.78c.07-1.93.06-3.85-.03-5.72-.08-1.88-.24-3.71-.48-5.47-.24-1.76-.55-3.45-.94-5.02-.59-2.37-1.33-4.44-2.16-6.26-.83-1.82-1.74-3.4-2.65-4.78-.91-1.39-1.82-2.58-2.65-3.65-.83-1.07-1.58-2-2.18-2.86-.59-.86-1.03-1.65-1.22-2.42-.24-.96-.11-1.88.33-2.73.44-.85,1.19-1.65,2.17-2.38s2.2-1.39,3.59-1.97c1.39-.58,2.94-1.08,4.59-1.49,1.65-.41,3.4-.73,5.18-.94,2.41-.29,4.53-.34,6.38-.2,1.86.14,3.45.48,4.82.98,1.37.5,2.51,1.16,3.44,1.93.94.78,1.68,1.67,2.25,2.65.57.97.97,2.02,1.24,3.11.17.71.31,1.53.41,2.44.1.92.17,1.93.2,3.04s.03,2.3,0,3.57c-.04,1.27-.11,2.62-.22,4.05-.11,1.42-.25,2.91-.43,4.46s-.39,3.16-.64,4.82c-.25,1.66-.53,3.37-.85,5.11s-.67,3.53-1.06,5.35-.81,3.66-1.27,5.52-.96,3.75-1.49,5.64-1.1,3.79-1.7,5.69-1.24,3.8-1.91,5.69c-.67,1.89-1.38,3.77-2.12,5.63s-1.52,3.7-2.33,5.51c-.81,1.81-1.66,3.6-2.54,5.34-1.36,2.68-2.62,5.12-3.76,7.36-1.14,2.24-2.17,4.29-3.09,6.17-.92,1.88-1.74,3.6-2.45,5.2-.72,1.59-1.33,3.06-1.86,4.44-.53,1.38-.96,2.66-1.3,3.89s-.61,2.4-.78,3.55-.28,2.27-.3,3.41c-.03,1.14.02,2.29.14,3.48.12,1.2.3,2.44.55,3.77.25,1.33.55,2.73.91,4.25.48,2.02,1.09,3.92,1.79,5.68.69,1.76,1.46,3.4,2.26,4.9.8,1.5,1.61,2.88,2.4,4.13.79,1.25,1.55,2.37,2.22,3.36.67.99,1.26,1.86,1.71,2.59s.76,1.35.87,1.83c.22.94.06,1.82-.42,2.65-.48.83-1.27,1.6-2.33,2.3s-2.37,1.33-3.87,1.89c-1.51.56-3.21,1.04-5.05,1.43-1.84.4-3.82.71-5.87.92-2.05.22-4.18.34-6.31.36-2.2.02-4.38-.05-6.48-.22-2.1-.17-4.12-.44-6.02-.79-1.9-.35-3.68-.8-5.3-1.32-1.62-.52-3.07-1.13-4.31-1.8-1.24-.68-2.27-1.42-3.05-2.23-.78-.81-1.3-1.68-1.52-2.61Z" fill="#fff"/><path d="M519.49,438.71c-.43-1.85-.82-3.69-1.15-5.52-.33-1.83-.62-3.65-.85-5.45-.24-1.81-.42-3.6-.56-5.38-.14-1.78-.23-3.54-.28-5.29-.05-1.75-.04-3.49,0-5.21.05-1.72.14-3.42.27-5.11.14-1.69.32-3.36.54-5.01.22-1.65.49-3.29.8-4.9.31-1.62.66-3.21,1.05-4.79.39-1.58.83-3.14,1.3-4.67s.99-3.05,1.54-4.55,1.15-2.97,1.78-4.42,1.3-2.88,2-4.28,1.45-2.78,2.23-4.13,1.59-2.68,2.44-3.98c.85-1.3,1.73-2.57,2.65-3.82s1.87-2.46,2.85-3.65c.98-1.19,2-2.35,3.05-3.47s2.13-2.22,3.24-3.29,2.25-2.09,3.42-3.09c1.17-1,2.37-1.96,3.6-2.88,1.23-.92,2.48-1.81,3.77-2.66,1.28-.85,2.59-1.66,3.93-2.43,1.34-.77,2.7-1.5,4.09-2.18,1.39-.68,2.8-1.33,4.24-1.92s2.9-1.14,4.38-1.64c1.48-.5,2.99-.95,4.52-1.35s3.08-.75,4.65-1.04c1.73-.32,3.45-.59,5.15-.8,1.7-.21,3.38-.36,5.04-.45,1.66-.09,3.31-.13,4.93-.1s3.23.11,4.81.25c1.58.14,3.14.34,4.68.6,1.54.26,3.06.57,4.55.95,1.49.38,2.96.81,4.41,1.3,1.44.49,2.86,1.04,4.26,1.65,1.39.61,2.76,1.27,4.1,1.99,1.34.72,2.65,1.5,3.93,2.33,1.28.83,2.54,1.73,3.76,2.67s2.42,1.95,3.58,3c1.16,1.06,2.29,2.17,3.39,3.33,1.1,1.16,2.17,2.38,3.2,3.64,1.03,1.27,2.03,2.58,3,3.95.96,1.37,1.89,2.79,2.78,4.25.89,1.47,1.75,2.98,2.57,4.54.82,1.56,1.6,3.17,2.34,4.82.74,1.65,1.45,3.35,2.11,5.09.66,1.74,1.29,3.52,1.87,5.34.58,1.82,1.12,3.68,1.62,5.58s.95,3.84,1.36,5.81c.42,2.02.8,4.04,1.12,6.05s.61,4.01.85,6c.24,1.99.43,3.96.57,5.93.15,1.96.25,3.91.31,5.85.06,1.93.07,3.85.05,5.75-.03,1.9-.1,3.78-.21,5.64-.11,1.86-.26,3.7-.46,5.52-.19,1.82-.43,3.61-.7,5.38-.27,1.77-.59,3.52-.94,5.24-.35,1.72-.74,3.41-1.17,5.08-.43,1.67-.89,3.3-1.39,4.91-.5,1.61-1.04,3.19-1.61,4.73-.57,1.55-1.18,3.06-1.83,4.54-.64,1.48-1.32,2.93-2.03,4.34s-1.46,2.79-2.24,4.14-1.59,2.65-2.43,3.92c-.84,1.27-1.72,2.5-2.62,3.69-.91,1.19-1.84,2.34-2.81,3.46s-1.96,2.18-2.99,3.21c-1.02,1.03-2.08,2.02-3.16,2.96-1.08.94-2.19,1.84-3.33,2.7s-2.3,1.67-3.49,2.43-2.4,1.48-3.64,2.15c-1.24.67-2.5,1.29-3.79,1.87s-2.6,1.1-3.94,1.57c-1.34.47-2.69.9-4.08,1.27-1.38.37-2.78.69-4.21.96s-2.87.48-4.33.65-2.95.27-4.45.32c-1.69.06-3.36.06-5.03,0-1.66-.06-3.31-.17-4.95-.33-1.64-.17-3.26-.39-4.86-.66-1.61-.27-3.19-.6-4.77-.97-1.57-.38-3.12-.8-4.66-1.28-1.53-.48-3.05-1-4.54-1.58-1.49-.58-2.97-1.2-4.42-1.87-1.45-.67-2.88-1.39-4.28-2.15-1.4-.76-2.79-1.57-4.14-2.42-1.35-.85-2.68-1.75-3.99-2.69-1.3-.94-2.58-1.92-3.82-2.94-1.25-1.02-2.46-2.09-3.65-3.19-1.19-1.1-2.34-2.25-3.47-3.43-1.12-1.18-2.22-2.4-3.27-3.66-1.06-1.26-2.08-2.55-3.07-3.88-.99-1.33-1.94-2.7-2.86-4.1-.92-1.4-1.8-2.84-2.64-4.31s-1.65-2.97-2.41-4.51c-.76-1.54-1.49-3.1-2.17-4.7s-1.32-3.23-1.92-4.89-1.15-3.35-1.66-5.07-.97-3.47-1.39-5.25ZM621.37,394.16c-.45-2.08-.92-4.11-1.43-6.08s-1.04-3.9-1.61-5.76c-.57-1.86-1.17-3.66-1.8-5.4-.63-1.74-1.29-3.41-1.99-5.01-.69-1.6-1.42-3.13-2.18-4.59-.76-1.46-1.55-2.84-2.38-4.14-.83-1.3-1.69-2.52-2.58-3.66-.89-1.14-1.82-2.19-2.79-3.15-.96-.96-1.96-1.83-3-2.61s-2.11-1.47-3.21-2.06c-1.11-.59-2.25-1.08-3.43-1.48-1.18-.39-2.4-.69-3.65-.88-1.26-.19-2.55-.28-3.88-.26-1.33.02-2.7.14-4.11.38-1.5.25-2.94.59-4.32,1.01-1.39.42-2.71.93-3.99,1.51-1.27.58-2.49,1.24-3.66,1.98-1.17.73-2.28,1.54-3.34,2.41-1.06.87-2.07,1.81-3.03,2.81s-1.86,2.06-2.72,3.18-1.66,2.3-2.42,3.53-1.47,2.51-2.13,3.84c-.66,1.33-1.28,2.71-1.85,4.13s-1.09,2.89-1.57,4.39c-.48,1.5-.91,3.05-1.3,4.63-.39,1.58-.73,3.19-1.04,4.84s-.56,3.32-.78,5.02c-.22,1.7-.4,3.43-.54,5.18-.14,1.75-.24,3.53-.3,5.32-.06,1.79-.08,3.6-.06,5.43.02,1.83.07,3.66.16,5.51s.22,3.71.38,5.57c.16,1.86.36,3.74.59,5.61.23,1.87.49,3.74.79,5.61s.63,3.74.99,5.59c.36,1.86.75,3.71,1.17,5.55.49,2.13,1,4.19,1.54,6.19.54,2,1.11,3.93,1.71,5.8.6,1.86,1.23,3.66,1.9,5.38.67,1.72,1.37,3.37,2.11,4.94s1.52,3.07,2.34,4.49c.82,1.42,1.68,2.76,2.59,4.02s1.86,2.43,2.86,3.53c1,1.09,2.05,2.1,3.16,3.01,1.1.92,2.26,1.74,3.47,2.48,1.21.74,2.48,1.38,3.81,1.92,1.33.55,2.71,1,4.16,1.35,1.45.35,2.96.6,4.54.75,1.58.15,3.23.19,4.94.12,1.44-.06,2.82-.21,4.15-.45,1.33-.24,2.6-.57,3.83-.99s2.4-.92,3.52-1.51c1.12-.58,2.19-1.25,3.21-1.99s1.99-1.56,2.91-2.45c.92-.89,1.8-1.85,2.62-2.89.83-1.03,1.61-2.13,2.34-3.29.73-1.16,1.42-2.39,2.06-3.67.64-1.28,1.24-2.62,1.79-4.02.55-1.39,1.06-2.84,1.52-4.34.46-1.5.88-3.04,1.26-4.63.38-1.59.71-3.23,1.01-4.9.3-1.67.55-3.39.76-5.14s.39-3.53.53-5.34.23-3.65.29-5.52c.06-1.86.08-3.75.07-5.66-.02-1.91-.07-3.83-.15-5.77-.09-1.94-.21-3.89-.37-5.85s-.35-3.93-.57-5.9-.48-3.94-.77-5.91-.61-3.94-.97-5.89c-.35-1.96-.74-3.9-1.15-5.84Z" fill="#fff"/><path d="M673.67,488.99c-.2-.88-.16-1.83.05-2.86s.57-2.15,1.02-3.36c.46-1.21,1-2.52,1.57-3.94.56-1.42,1.15-2.96,1.68-4.62s.98-3.48,1.35-5.37c.16-.82.34-1.74.48-2.73.14-.98.27-2.03.39-3.15s.21-2.3.3-3.55.16-2.56.22-3.92.11-2.79.14-4.26c.03-1.48.06-3,.07-4.58,0-1.57,0-3.2,0-4.86s-.04-3.37-.07-5.12-.08-3.53-.13-5.34c-.05-1.82-.11-3.66-.18-5.54s-.15-3.78-.23-5.7c-.09-1.92-.18-3.87-.28-5.83-.1-1.96-.21-3.94-.32-5.93-.09-1.54-.18-3.14-.28-4.79-.1-1.64-.21-3.33-.33-5.06-.12-1.72-.25-3.48-.38-5.26-.14-1.78-.28-3.58-.43-5.4s-.31-3.64-.47-5.47c-.16-1.83-.33-3.66-.51-5.48s-.36-3.63-.54-5.42c-.19-1.79-.38-3.56-.57-5.29s-.39-3.44-.6-5.1c-.2-1.66-.41-3.27-.62-4.83-.21-1.56-.42-3.06-.64-4.49-.21-1.43-.43-2.8-.65-4.08-.22-1.28-.44-2.49-.66-3.6-.35-1.76-.82-3.55-1.36-5.31-.54-1.76-1.13-3.49-1.74-5.13-.6-1.64-1.22-3.2-1.78-4.62-.56-1.42-1.07-2.69-1.47-3.77s-.69-1.97-.82-2.61c-.22-1.08-.18-2.16.11-3.21.29-1.05.84-2.08,1.64-3.08.81-1,1.87-1.96,3.2-2.87,1.33-.91,2.93-1.78,4.79-2.59,1.86-.81,4-1.55,6.41-2.22,2.12-.59,4.06-1.06,5.84-1.32,1.78-.26,3.4-.33,4.9-.21,1.5.12,2.87.41,4.15.88s2.46,1.11,3.58,1.92c1.12.8,2.17,1.77,3.19,2.89,1.02,1.12,2,2.39,2.98,3.79.98,1.41,1.95,2.95,2.95,4.63s2.03,3.48,3.11,5.39c.99,1.73,1.85,3.25,2.66,4.66.8,1.41,1.54,2.7,2.29,4,.74,1.29,1.48,2.59,2.29,3.99s1.67,2.91,2.66,4.62c1.27,2.2,2.52,4.35,3.74,6.44,1.22,2.09,2.42,4.13,3.6,6.11,1.17,1.98,2.33,3.91,3.45,5.79,1.13,1.88,2.23,3.7,3.3,5.47,1.08,1.77,2.13,3.49,3.16,5.16,1.03,1.67,2.03,3.29,3.01,4.85.98,1.57,1.93,3.09,2.86,4.56.93,1.47,1.83,2.89,2.71,4.27.88,1.37,1.73,2.7,2.55,3.98.83,1.28,1.63,2.51,2.4,3.7.78,1.19,1.52,2.33,2.25,3.42.72,1.1,1.42,2.15,2.1,3.15s1.32,1.97,1.94,2.89c.62.92,1.22,1.79,1.78,2.63.57.83,1.11,1.62,1.63,2.37.52.75,1.01,1.46,1.47,2.12,1.79,2.57,3.32,4.59,4.64,6.09,1.33,1.5,2.45,2.51,3.42,3.08.97.57,1.79.72,2.52.5.43-.13.81-.4,1.16-.8.35-.4.66-.94.93-1.6s.51-1.44.72-2.34.37-1.9.51-3c.14-1.11.25-2.31.32-3.61.08-1.3.13-2.68.15-4.15.02-1.47.01-3.01-.02-4.63s-.09-3.3-.17-5.05-.18-3.55-.31-5.4c-.12-1.85-.27-3.75-.43-5.68-.16-1.93-.34-3.9-.54-5.9s-.41-4.02-.64-6.05-.47-4.09-.73-6.14-.52-4.11-.8-6.16-.57-4.09-.86-6.11c-.3-2.02-.6-4.02-.91-5.99-.31-1.97-.63-3.9-.95-5.8-.32-1.89-.64-3.74-.97-5.53-.33-1.79-.65-3.53-.98-5.19-.58-2.96-1.23-5.64-1.93-8.06-.7-2.42-1.44-4.59-2.2-6.55-.76-1.96-1.55-3.7-2.33-5.27-.78-1.57-1.56-2.96-2.31-4.21s-1.48-2.37-2.15-3.39c-.68-1.02-1.3-1.94-1.85-2.81-.55-.87-1.02-1.67-1.4-2.46-.38-.79-.65-1.56-.8-2.36-.2-1.02-.14-2.06.13-3.1.27-1.04.77-2.09,1.45-3.11.69-1.03,1.57-2.04,2.63-3.01,1.05-.97,2.28-1.91,3.65-2.8,1.37-.89,2.88-1.72,4.51-2.48s3.38-1.44,5.22-2.04c2.13-.69,4.21-1.2,6.19-1.52,1.98-.32,3.85-.46,5.56-.4,1.71.06,3.26.31,4.59.76s2.45,1.1,3.29,1.96c.84.86,1.42,1.92,1.66,3.2.22,1.15.13,2.6-.14,4.2s-.71,3.37-1.21,5.15c-.31,1.18-.61,2.34-.89,3.49-.28,1.15-.54,2.28-.79,3.41-.25,1.13-.47,2.25-.69,3.37-.21,1.12-.41,2.24-.59,3.37-.18,1.13-.34,2.27-.49,3.42-.15,1.15-.28,2.32-.39,3.5-.11,1.18-.21,2.39-.3,3.62-.08,1.23-.15,2.49-.2,3.78-.05,1.29-.09,2.62-.11,3.99-.02,1.37-.03,2.77-.02,4.22s.03,2.95.07,4.5.09,3.15.16,4.82c.07,1.66.15,3.38.25,5.17s.21,3.64.34,5.56c.13,1.92.27,3.91.42,5.98s.32,4.21.5,6.44c.18,2.23.38,4.54.59,6.93.21,2.4.43,4.88.67,7.46s.48,5.25.75,8.01c.32,3.41.63,6.69.91,9.86.28,3.16.53,6.21.77,9.13.23,2.93.44,5.74.62,8.44s.34,5.29.48,7.78.25,4.87.33,7.15c.09,2.28.15,4.46.18,6.54.04,2.08.05,4.07.04,5.96s-.05,3.69-.11,5.4-.15,3.33-.26,4.87-.25,2.99-.42,4.36c-.16,1.37-.35,2.66-.57,3.87-.22,1.21-.46,2.35-.73,3.41-.27,1.06-.56,2.05-.88,2.96-.32.92-.67,1.76-1.04,2.54-.37.78-.77,1.49-1.2,2.13-.43.65-.88,1.23-1.36,1.75-.48.52-.99.98-1.52,1.39-.53.4-1.1.75-1.69,1.04-.59.29-1.21.53-1.85.71-.79.23-1.58.37-2.38.42-.8.05-1.6.01-2.41-.11s-1.63-.34-2.46-.64c-.83-.3-1.68-.69-2.54-1.17-.86-.48-1.74-1.04-2.64-1.69-.9-.65-1.82-1.39-2.77-2.22-.95-.83-1.92-1.74-2.92-2.75-1-1-2.03-2.1-3.1-3.28-1.07-1.18-2.16-2.45-3.3-3.81-1.14-1.36-2.31-2.81-3.53-4.35-1.22-1.54-2.47-3.17-3.78-4.89-1.3-1.72-2.65-3.53-4.05-5.43-1.4-1.9-2.85-3.9-4.35-5.98-1.5-2.09-3.06-4.26-4.67-6.53s-3.29-4.63-5.02-7.09c-1.23-1.75-2.43-3.46-3.58-5.13-1.15-1.67-2.27-3.3-3.34-4.88-1.08-1.59-2.12-3.13-3.12-4.64s-1.97-2.98-2.91-4.41c-.94-1.43-1.84-2.82-2.71-4.18s-1.71-2.68-2.52-3.96c-.81-1.29-1.59-2.54-2.35-3.76-.76-1.22-1.48-2.41-2.19-3.56-.7-1.15-1.38-2.28-2.04-3.37-.66-1.09-1.29-2.16-1.9-3.19-.61-1.04-1.2-2.04-1.78-3.03s-1.13-1.94-1.66-2.87c-1.29-2.27-2.37-4.14-3.33-5.61s-1.81-2.53-2.65-3.15c-.84-.63-1.66-.82-2.59-.56-.51.14-.95.38-1.32.75-.37.37-.68.88-.93,1.56-.25.68-.45,1.54-.59,2.62-.14,1.08-.23,2.37-.28,3.91s-.05,3.35,0,5.44.12,4.48.23,7.19c.11,2.71.24,5.76.42,9.15.09,1.73.2,3.47.32,5.21.11,1.74.23,3.47.35,5.19.12,1.73.25,3.45.39,5.15.13,1.71.27,3.4.42,5.08.15,1.68.3,3.34.45,4.98.16,1.64.32,3.25.49,4.84.17,1.59.34,3.15.52,4.68.18,1.53.37,3.03.56,4.49.19,1.46.39,2.89.59,4.27s.41,2.73.62,4.02.43,2.55.66,3.75c.23,1.2.46,2.35.69,3.44.35,1.64.74,3.23,1.16,4.77.43,1.54.9,3.03,1.43,4.48.53,1.45,1.13,2.85,1.8,4.21.67,1.36,1.43,2.69,2.28,3.97,1.22,1.85,2.47,3.44,3.6,4.84,1.13,1.4,2.15,2.62,2.95,3.73.79,1.11,1.35,2.11,1.57,3.07.21.94.08,1.92-.34,2.92-.42.99-1.14,1.99-2.14,2.96-.99.97-2.26,1.9-3.77,2.77-1.51.86-3.26,1.65-5.23,2.33-1.97.68-4.15,1.24-6.52,1.65-2.37.41-4.64.63-6.76.68-2.12.05-4.1.02-5.89-.34-1.79-.36-3.38-.86-4.74-1.47-1.36-.61-2.47-1.33-3.3-2.14-.83-.81-1.38-1.71-1.59-2.68Z" fill="#fff"/><path d="M222.57,750.81c-.24-1.27-.09-2.66.55-4.75.46-1.42.91-2.84,1.33-4.26s.84-2.82,1.22-4.22.74-2.79,1.07-4.16c.33-1.38.63-2.74.89-4.1.24-1.11.48-2.28.7-3.51.22-1.23.43-2.52.63-3.87.2-1.35.38-2.75.56-4.2.18-1.45.34-2.95.49-4.49s.3-3.13.43-4.75c.13-1.62.25-3.29.36-4.98.11-1.7.21-3.42.3-5.18.09-1.76.17-3.54.24-5.35.07-1.81.13-3.63.18-5.48s.09-3.71.12-5.58c.03-1.87.05-3.76.06-5.65.01-1.89.01-3.79,0-5.69s-.02-3.8-.05-5.7c-.02-1.9-.06-3.8-.1-5.68-.04-1.89-.09-3.77-.15-5.63-.06-1.87-.13-3.72-.2-5.56-.08-1.84-.16-3.65-.25-5.45-.09-1.8-.19-3.57-.3-5.31s-.22-3.46-.34-5.15c-.12-1.69-.25-3.34-.39-4.96-.14-1.62-.28-3.2-.43-4.74-.15-1.54-.31-3.04-.47-4.49-.16-1.45-.33-2.86-.51-4.22-.18-1.36-.36-2.67-.55-3.92s-.38-2.45-.58-3.59c-.2-1.14-.41-2.22-.62-3.24-.54-2.58-1.18-4.9-1.87-7.01s-1.45-3.99-2.21-5.69c-.76-1.69-1.53-3.19-2.27-4.52-.74-1.33-1.44-2.48-2.06-3.5-.62-1.01-1.16-1.88-1.57-2.63-.41-.75-.7-1.38-.81-1.92-.19-.89-.1-1.82.23-2.78.33-.96.9-1.95,1.68-2.94.77-.99,1.75-1.99,2.89-2.98,1.14-.99,2.44-1.96,3.87-2.89,1.43-.94,2.98-1.84,4.62-2.68s3.37-1.64,5.14-2.35,3.6-1.36,5.43-1.9c1.89-.56,3.78-1.03,5.64-1.4,1.86-.37,3.68-.64,5.44-.81,1.76-.17,3.44-.24,5.03-.21,1.58.03,3.06.17,4.4.41,1.34.24,2.54.59,3.57,1.04,1.03.45,1.88,1.01,2.52,1.67.64.66,1.08,1.43,1.26,2.32.25,1.14.09,2.4-.55,4.27-.46,1.28-.91,2.55-1.33,3.83s-.84,2.55-1.22,3.81c-.38,1.27-.74,2.53-1.07,3.79-.33,1.26-.63,2.51-.89,3.75-.23,1.09-.46,2.23-.67,3.41s-.42,2.41-.62,3.68c-.2,1.27-.39,2.58-.57,3.92-.18,1.35-.35,2.73-.51,4.15-.16,1.42-.32,2.88-.46,4.36-.14,1.49-.28,3.01-.4,4.56-.13,1.55-.24,3.13-.35,4.73-.11,1.6-.2,3.23-.29,4.88-.09,1.65-.16,3.32-.23,5.01-.07,1.69-.12,3.4-.17,5.13-.05,1.72-.08,3.47-.11,5.22s-.04,3.52-.04,5.29c0,1.77,0,3.55.02,5.34.02,1.79.05,3.58.09,5.37s.09,3.59.16,5.38.14,3.58.22,5.36c.09,1.78.18,3.56.29,5.33.11,1.77.23,3.53.36,5.27.13,1.75.28,3.48.44,5.19.16,1.72.33,3.41.51,5.09.18,1.68.38,3.33.58,4.97s.43,3.24.66,4.82c.23,1.58.48,3.13.74,4.65.26,1.52.53,3,.82,4.45.47,2.39.98,4.69,1.53,6.87.55,2.18,1.14,4.24,1.76,6.17s1.29,3.72,2,5.36c.71,1.64,1.45,3.12,2.24,4.44.79,1.31,1.61,2.46,2.48,3.41.87.95,1.77,1.71,2.72,2.26s1.93.89,2.96,1.01c1.03.12,2.1,0,3.21-.35,1.31-.42,2.51-1.01,3.62-1.76,1.11-.75,2.12-1.65,3.05-2.69s1.78-2.21,2.56-3.49,1.48-2.68,2.13-4.17c.65-1.49,1.23-3.07,1.77-4.72s1.03-3.37,1.49-5.14c.46-1.77.88-3.59,1.28-5.44s.77-3.73,1.13-5.61c.39-2.05.82-4.13,1.27-6.18s.92-4.07,1.42-6c.5-1.93,1.04-3.77,1.61-5.45.57-1.68,1.18-3.22,1.82-4.54.65-1.32,1.33-2.43,2.06-3.27.73-.84,1.5-1.41,2.33-1.65.82-.24,1.62-.21,2.42.06s1.57.78,2.33,1.51,1.5,1.68,2.22,2.83,1.41,2.49,2.08,4.01c.67,1.52,1.31,3.21,1.92,5.05.61,1.84,1.19,3.84,1.73,5.96.54,2.13,1.05,4.38,1.52,6.75.37,1.89.68,3.7.91,5.43.23,1.73.39,3.39.48,4.98.09,1.59.1,3.11.04,4.56-.06,1.45-.2,2.84-.41,4.17-.21,1.33-.51,2.6-.88,3.82s-.82,2.38-1.35,3.5-1.14,2.19-1.83,3.22c-.69,1.03-1.46,2.02-2.32,2.97s-1.8,1.87-2.82,2.76c-1.03.89-2.14,1.75-3.33,2.58-1.2.84-2.48,1.65-3.85,2.44-1.37.79-2.83,1.57-4.39,2.34-1.55.77-3.19,1.52-4.93,2.27-1.73.75-3.56,1.49-5.48,2.24-1.92.75-3.93,1.49-6.04,2.24-2.11.75-4.31,1.51-6.61,2.29-2.3.77-4.7,1.56-7.19,2.36-1.99.64-4.03,1.3-6.08,1.95-2.05.65-4.13,1.3-6.2,1.92-2.07.63-4.14,1.23-6.19,1.8s-4.07,1.1-6.04,1.58c-1.97.48-3.9.91-5.75,1.27-1.85.36-3.64.65-5.33.86-1.69.21-3.29.33-4.77.36-1.48.02-2.85-.05-4.08-.24s-2.32-.49-3.25-.93c-.93-.43-1.7-1-2.28-1.71-.59-.71-.99-1.56-1.18-2.58Z" fill="#fff"/><path d="M325.05,649.02c-.41-1.99-.77-3.97-1.09-5.95-.32-1.98-.59-3.95-.82-5.92-.23-1.97-.42-3.93-.57-5.88s-.25-3.9-.32-5.83c-.07-1.93-.09-3.85-.08-5.76s.07-3.81.16-5.69c.09-1.88.23-3.75.4-5.6.17-1.85.38-3.68.63-5.5.25-1.81.53-3.61.85-5.38.32-1.77.68-3.53,1.07-5.26.39-1.73.82-3.44,1.28-5.12s.96-3.34,1.49-4.98,1.1-3.24,1.69-4.82c.6-1.58,1.23-3.13,1.89-4.65.66-1.52,1.36-3.01,2.08-4.47s1.48-2.88,2.27-4.28c.79-1.39,1.61-2.75,2.45-4.07.85-1.32,1.72-2.61,2.63-3.86.91-1.25,1.84-2.46,2.8-3.64.96-1.17,1.95-2.31,2.97-3.41,1.02-1.1,2.06-2.15,3.13-3.16s2.16-1.87,3.29-2.74c1.12-.86,2.27-1.68,3.44-2.46s2.36-1.51,3.58-2.2c1.22-.69,2.46-1.33,3.72-1.93s2.55-1.15,3.86-1.65,2.64-.96,3.99-1.36,2.72-.76,4.11-1.07c1.39-.31,2.8-.56,4.23-.77,1.43-.21,2.88-.36,4.35-.46,1.73-.12,3.45-.18,5.15-.18,1.7,0,3.38.06,5.04.17,1.66.11,3.31.29,4.93.51,1.62.23,3.23.51,4.81.84,1.58.34,3.14.73,4.68,1.17s3.06.94,4.55,1.48c1.49.54,2.96,1.14,4.41,1.78,1.44.64,2.86,1.34,4.26,2.08,1.39.74,2.76,1.53,4.1,2.36,1.34.83,2.65,1.71,3.93,2.64,1.28.92,2.54,1.89,3.76,2.9,1.22,1.01,2.42,2.07,3.58,3.16,1.16,1.1,2.29,2.23,3.39,3.41s2.17,2.4,3.2,3.66,2.03,2.56,3,3.89c.96,1.34,1.89,2.71,2.78,4.12s1.75,2.86,2.57,4.34c.82,1.48,1.6,3,2.34,4.55.74,1.55,1.45,3.14,2.11,4.76s1.29,3.27,1.87,4.96c.58,1.69,1.12,3.4,1.62,5.15.5,1.75.95,3.53,1.36,5.34.42,1.86.8,3.71,1.12,5.55s.61,3.68.85,5.5c.24,1.83.43,3.64.57,5.45.15,1.81.25,3.6.31,5.39.06,1.78.07,3.56.05,5.32-.03,1.76-.1,3.51-.21,5.24-.11,1.73-.26,3.46-.46,5.16s-.43,3.4-.7,5.07c-.27,1.68-.59,3.34-.94,4.98-.35,1.64-.74,3.27-1.17,4.88-.43,1.61-.89,3.2-1.39,4.77-.5,1.57-1.04,3.12-1.61,4.66-.57,1.53-1.18,3.04-1.83,4.53s-1.32,2.96-2.03,4.41c-.71,1.45-1.46,2.87-2.24,4.27-.78,1.4-1.59,2.77-2.43,4.12s-1.72,2.67-2.62,3.97c-.91,1.3-1.84,2.57-2.81,3.8-.97,1.24-1.96,2.45-2.99,3.63-1.02,1.18-2.08,2.33-3.16,3.45-1.08,1.12-2.19,2.2-3.33,3.25-1.14,1.05-2.3,2.06-3.49,3.04-1.19.98-2.4,1.92-3.64,2.82s-2.5,1.77-3.79,2.59c-1.29.82-2.6,1.6-3.94,2.34-1.34.74-2.69,1.43-4.08,2.08-1.38.65-2.78,1.25-4.21,1.8s-2.87,1.05-4.33,1.5c-1.46.45-2.95.85-4.45,1.19-1.61.37-3.22.68-4.81.93-1.59.25-3.17.45-4.74.59-1.57.14-3.12.23-4.66.25-1.54.03-3.06,0-4.57-.09-1.51-.09-3-.23-4.48-.44s-2.93-.46-4.37-.78c-1.44-.32-2.86-.69-4.26-1.13s-2.78-.92-4.14-1.47c-1.36-.55-2.7-1.15-4.01-1.81-1.31-.66-2.61-1.38-3.87-2.15-1.27-.77-2.51-1.6-3.73-2.48-1.22-.88-2.41-1.82-3.57-2.81-1.17-.99-2.3-1.99-3.41-3.03s-2.19-2.13-3.24-3.27c-1.05-1.14-2.07-2.33-3.06-3.58-.99-1.24-1.95-2.54-2.87-3.88s-1.82-2.73-2.68-4.17-1.68-2.92-2.47-4.45c-.79-1.53-1.54-3.11-2.26-4.73-.72-1.62-1.4-3.29-2.04-5-.64-1.71-1.25-3.46-1.81-5.26-.56-1.8-1.09-3.63-1.57-5.51s-.93-3.8-1.32-5.75ZM426.93,593.58c-.45-2.02-.92-3.98-1.43-5.9-.51-1.92-1.04-3.78-1.61-5.59-.57-1.81-1.17-3.56-1.8-5.25s-1.29-3.32-1.99-4.89-1.42-3.07-2.18-4.51-1.55-2.81-2.38-4.11-1.69-2.53-2.58-3.68c-.89-1.15-1.82-2.23-2.79-3.23-.96-1-1.96-1.92-3-2.76-1.03-.84-2.11-1.59-3.21-2.26s-2.25-1.25-3.43-1.74c-1.18-.49-2.4-.88-3.65-1.18-1.26-.3-2.55-.5-3.88-.61-1.33-.1-2.7-.1-4.11,0-1.43.11-2.81.3-4.14.58-1.33.28-2.61.65-3.84,1.09s-2.41.97-3.54,1.58c-1.13.6-2.21,1.28-3.24,2.04-1.03.75-2.02,1.58-2.95,2.47s-1.83,1.86-2.67,2.89c-.84,1.03-1.64,2.12-2.4,3.27-.75,1.15-1.46,2.37-2.13,3.64-.66,1.27-1.29,2.6-1.86,3.98s-1.11,2.81-1.61,4.29c-.49,1.48-.95,3.01-1.36,4.58s-.78,3.19-1.12,4.85c-.33,1.66-.63,3.36-.88,5.09-.25,1.73-.47,3.5-.65,5.3s-.32,3.63-.43,5.49c-.11,1.86-.18,3.74-.21,5.65-.03,1.91-.03,3.84,0,5.78.03,1.95.1,3.91.2,5.89.1,1.98.24,3.96.4,5.96.17,2,.36,4,.59,6,.23,2.01.49,4.01.78,6.02.29,2,.61,4.01.96,6,.35,1.99.72,3.98,1.13,5.95.45,2.22.93,4.37,1.43,6.46.5,2.09,1.02,4.11,1.57,6.06.55,1.95,1.12,3.83,1.73,5.63.61,1.8,1.24,3.53,1.91,5.17.67,1.65,1.37,3.21,2.1,4.69s1.5,2.88,2.31,4.18c.81,1.31,1.65,2.52,2.54,3.65.89,1.12,1.81,2.15,2.78,3.09.97.93,1.98,1.77,3.04,2.51s2.17,1.37,3.32,1.91c1.16.53,2.36.96,3.62,1.29s2.56.54,3.93.65,2.78.11,4.26,0c1.48-.11,3.01-.32,4.6-.65,1.37-.28,2.7-.65,3.97-1.1,1.28-.45,2.5-.98,3.68-1.58s2.31-1.28,3.4-2.03c1.09-.75,2.12-1.56,3.12-2.45.99-.88,1.94-1.83,2.84-2.83.9-1.01,1.76-2.07,2.57-3.19.81-1.12,1.58-2.3,2.31-3.52.73-1.23,1.41-2.5,2.06-3.82.64-1.32,1.24-2.69,1.8-4.1.56-1.41,1.08-2.86,1.56-4.35.48-1.49.92-3.02,1.32-4.58.4-1.56.76-3.15,1.09-4.78s.61-3.28.86-4.96.46-3.38.64-5.11c.18-1.73.31-3.47.42-5.24.1-1.76.17-3.55.21-5.34.03-1.8.04-3.61,0-5.42-.03-1.82-.1-3.65-.2-5.48-.1-1.83-.23-3.68-.39-5.52-.16-1.84-.35-3.69-.58-5.53-.22-1.84-.48-3.68-.76-5.52-.28-1.83-.6-3.66-.94-5.48-.34-1.82-.71-3.62-1.11-5.42Z" fill="#fff"/><path d="M474.12,674.57c-.35-1.52-.59-3.07-.75-4.64s-.21-3.15-.19-4.75c.03-1.6.14-3.21.34-4.82.2-1.61.48-3.23.83-4.84.36-1.61.79-3.22,1.3-4.81s1.08-3.18,1.73-4.74c.64-1.57,1.35-3.11,2.12-4.63.77-1.52,1.6-3.02,2.49-4.48.89-1.46,1.83-2.9,2.82-4.29.99-1.4,2.04-2.75,3.12-4.07,1.09-1.31,2.22-2.58,3.39-3.8s2.38-2.39,3.63-3.51c1.43-1.27,2.77-2.45,4.04-3.57,1.27-1.12,2.48-2.18,3.64-3.19,1.16-1.01,2.28-1.98,3.37-2.93,1.09-.95,2.17-1.87,3.24-2.79s2.14-1.84,3.24-2.78c1.09-.93,2.21-1.89,3.37-2.87s2.37-2.01,3.64-3.08c1.27-1.07,2.61-2.2,4.04-3.39,1.87-1.58,3.62-3.08,5.26-4.53s3.16-2.85,4.57-4.2,2.68-2.67,3.83-3.96,2.17-2.55,3.05-3.79c.88-1.25,1.63-2.48,2.23-3.71.6-1.23,1.06-2.46,1.37-3.7.31-1.24.47-2.5.47-3.78,0-1.28-.15-2.58-.47-3.92-.36-1.51-.9-2.87-1.62-4.08-.72-1.21-1.61-2.27-2.66-3.2s-2.25-1.72-3.59-2.38c-1.34-.66-2.83-1.2-4.43-1.61-1.61-.41-3.34-.71-5.18-.9-1.84-.19-3.79-.26-5.83-.24-2.17.03-4.17.15-6.02.38-1.85.22-3.55.55-5.13.96-1.58.41-3.03.92-4.39,1.52-1.36.6-2.61,1.28-3.8,2.05-1.18.77-2.29,1.62-3.35,2.56-1.06.93-2.07,1.95-3.06,3.04s-1.95,2.26-2.91,3.49c-1.86,2.38-3.36,4.29-4.59,5.81-1.22,1.52-2.19,2.64-3.03,3.47-.84.83-1.56,1.36-2.29,1.7-.73.33-1.47.47-2.36.5-.91.03-1.75-.25-2.53-.81-.78-.56-1.48-1.41-2.11-2.49-.63-1.08-1.18-2.41-1.65-3.92-.47-1.52-.85-3.24-1.14-5.11-.29-1.87-.49-3.9-.58-6.04-.08-1.95-.13-3.82-.13-5.58,0-1.76.04-3.43.15-5.01.11-1.57.27-3.05.52-4.44.25-1.39.58-2.68,1-3.88s.95-2.31,1.58-3.32c.63-1.02,1.38-1.94,2.25-2.77.88-.83,1.88-1.58,3.03-2.23.84-.48,1.78-.91,2.8-1.31,1.02-.39,2.14-.75,3.33-1.07s2.46-.6,3.79-.85,2.74-.47,4.2-.66c1.46-.19,2.98-.35,4.55-.49s3.19-.25,4.85-.35c1.66-.1,3.35-.17,5.08-.23,1.73-.06,3.48-.11,5.26-.14,1.78-.03,3.57-.06,5.38-.08,1.81-.02,3.62-.03,5.44-.04,2.21,0,4.36.04,6.44.15,2.09.11,4.11.28,6.07.51,1.96.23,3.84.52,5.66.87s3.55.76,5.22,1.23c1.66.47,3.24.99,4.74,1.58,1.5.58,2.91,1.23,4.24,1.93,1.33.7,2.56,1.46,3.7,2.28,1.14.82,2.19,1.69,3.14,2.63s1.8,1.92,2.54,2.97c.74,1.05,1.38,2.15,1.91,3.31.53,1.16.95,2.38,1.25,3.65.23.97.4,1.98.51,3.03.11,1.05.16,2.13.15,3.24s-.08,2.26-.22,3.44-.34,2.38-.6,3.61-.6,2.49-1,3.76c-.4,1.28-.87,2.58-1.4,3.9-.54,1.32-1.14,2.66-1.82,4.01-.68,1.35-1.43,2.73-2.25,4.11s-1.72,2.78-2.69,4.19c-.97,1.41-2.02,2.83-3.14,4.25-1.12,1.43-2.32,2.86-3.6,4.3-1.28,1.44-2.64,2.89-4.07,4.34-1.44,1.45-2.96,2.91-4.56,4.36-1.6,1.46-3.29,2.92-5.06,4.38-1.49,1.22-2.85,2.34-4.13,3.4-1.28,1.06-2.48,2.05-3.63,3.01-1.16.96-2.27,1.89-3.39,2.82s-2.23,1.87-3.39,2.84c-1.16.97-2.35,1.98-3.63,3.07-1.28,1.08-2.64,2.24-4.13,3.51-1.64,1.4-3.19,2.76-4.63,4.08-1.44,1.32-2.77,2.6-4,3.86-1.22,1.25-2.34,2.47-3.34,3.67s-1.88,2.37-2.65,3.53c-.77,1.16-1.41,2.29-1.94,3.42-.52,1.13-.92,2.24-1.19,3.36-.27,1.11-.41,2.22-.42,3.33s.12,2.22.38,3.35c.31,1.34.79,2.54,1.42,3.61.63,1.07,1.41,2,2.34,2.8s2.01,1.48,3.23,2.04c1.22.56,2.58,1,4.08,1.34,1.5.33,3.13.56,4.9.69,1.76.13,3.66.17,5.67.12,2.02-.05,4.16-.19,6.41-.4,2.12-.2,4.11-.46,5.98-.78s3.62-.71,5.26-1.16,3.17-.97,4.61-1.56c1.44-.59,2.78-1.24,4.03-1.96s2.43-1.52,3.53-2.39,2.13-1.81,3.09-2.82c.97-1.02,1.87-2.11,2.73-3.28.86-1.17,1.68-2.42,2.44-3.74,1.23-2.12,2.36-4.07,3.44-5.77,1.08-1.7,2.09-3.18,3.08-4.39s1.94-2.17,2.9-2.83c.96-.66,1.91-1.03,2.9-1.08,1.09-.05,2.04.17,2.89.64.85.48,1.59,1.21,2.26,2.2.67.98,1.27,2.22,1.82,3.69s1.05,3.19,1.54,5.13c.52,2.06.95,4.01,1.3,5.86s.62,3.61.81,5.28.29,3.24.3,4.74c.02,1.49-.05,2.9-.2,4.24-.15,1.33-.39,2.59-.71,3.78s-.73,2.3-1.23,3.35c-.5,1.05-1.08,2.04-1.75,2.97-.67.93-1.43,1.8-2.28,2.62-.85.82-1.78,1.58-2.81,2.3s-2.14,1.39-3.34,2.01c-1.2.63-2.49,1.21-3.88,1.76-1.38.55-2.86,1.06-4.42,1.55-1.56.48-3.22.93-4.97,1.36-1.75.43-3.59.83-5.52,1.21-1.93.38-3.96.74-6.08,1.09-2.12.35-4.33.68-6.64,1-2.31.32-4.71.64-7.21.95-3.14.39-6.13.74-8.95,1.03-2.83.3-5.5.55-8.03.74s-4.91.34-7.16.43c-2.25.09-4.35.13-6.33.11-1.98-.02-3.82-.09-5.54-.22-1.72-.13-3.32-.32-4.81-.57-1.48-.25-2.85-.55-4.11-.91-1.26-.36-2.41-.78-3.46-1.26s-2-1.01-2.86-1.61c-.86-.59-1.62-1.24-2.3-1.95-.68-.71-1.28-1.47-1.79-2.29s-.96-1.7-1.33-2.63c-.37-.93-.67-1.92-.91-2.96Z" fill="#fff"/><path d="M584.88,674.15c-.17-.66-.29-1.32-.11-2.18.18-.86.66-1.91,1.7-3.34.42-.58.87-1.25,1.34-2.02.47-.77.97-1.63,1.5-2.57.52-.94,1.07-1.97,1.64-3.08.57-1.11,1.16-2.29,1.76-3.54.61-1.25,1.23-2.57,1.87-3.96.64-1.39,1.29-2.83,1.96-4.34.67-1.5,1.34-3.07,2.03-4.68.69-1.61,1.39-3.27,2.09-4.97.7-1.7,1.42-3.45,2.13-5.23s1.43-3.6,2.15-5.45,1.44-3.72,2.16-5.62c.72-1.9,1.44-3.82,2.15-5.76.71-1.94,1.42-3.9,2.12-5.86.7-1.97,1.4-3.94,2.08-5.92.68-1.98,1.36-3.96,2.02-5.94.66-1.98,1.31-3.95,1.94-5.92.63-1.96,1.25-3.92,1.85-5.86s1.18-3.85,1.74-5.75c.56-1.89,1.1-3.76,1.61-5.6.52-1.84,1.01-3.64,1.47-5.4s.9-3.48,1.31-5.16c.41-1.67.79-3.3,1.13-4.87.35-1.57.66-3.08.94-4.53.28-1.45.52-2.83.73-4.14s.38-2.55.51-3.7c.13-1.15.22-2.23.26-3.21.04-.98.05-1.88,0-2.67-.04-.81-.14-1.51-.28-2.11-.32-1.36-.72-2.67-1.1-3.84s-.72-2.22-.91-3.07c-.32-1.39-.19-2.58.29-3.59.49-1.02,1.33-1.86,2.42-2.56,1.1-.7,2.45-1.26,3.95-1.7,1.51-.44,3.17-.77,4.89-1.02,1.72-.24,3.5-.4,5.24-.5,1.26-.07,2.49-.08,3.69-.02,1.2.06,2.38.17,3.54.36,1.15.18,2.28.43,3.39.75,1.11.31,2.19.69,3.25,1.14,1.06.45,2.1.96,3.11,1.54,1.02.58,2.01,1.22,2.98,1.94.97.71,1.92,1.49,2.86,2.34.93.85,1.85,1.76,2.74,2.74.89.98,1.77,2.03,2.63,3.15.86,1.12,1.7,2.3,2.52,3.55.82,1.25,1.63,2.57,2.42,3.95.79,1.38,1.57,2.84,2.33,4.35.76,1.52,1.51,3.1,2.24,4.75.73,1.65,1.45,3.36,2.15,5.14.7,1.78,1.4,3.61,2.08,5.51.68,1.9,1.35,3.85,2.01,5.87s1.3,4.09,1.94,6.23c.64,2.13,1.26,4.33,1.88,6.57.62,2.25,1.23,4.55,1.83,6.92.79,3.12,1.59,6.06,2.39,8.84s1.6,5.39,2.41,7.86c.8,2.47,1.61,4.79,2.41,6.97.8,2.19,1.61,4.24,2.41,6.16.8,1.93,1.61,3.74,2.41,5.43s1.6,3.29,2.4,4.78,1.59,2.88,2.38,4.19c.79,1.3,1.58,2.52,2.36,3.66.78,1.14,1.56,2.2,2.34,3.2.77,1,1.54,1.92,2.3,2.79.76.87,1.52,1.68,2.27,2.45.75.76,1.49,1.48,2.22,2.15s1.46,1.31,2.17,1.92c.72.6,1.42,1.18,2.12,1.73.7.55,1.38,1.08,2.06,1.6,1.33,1,1.67,1.47,1.97,2.46.21.72.15,1.45-.17,2.17-.32.72-.91,1.45-1.74,2.16-.84.71-1.92,1.41-3.24,2.08-1.32.67-2.88,1.33-4.66,1.94-1.78.62-3.79,1.2-6.01,1.74-2.22.54-4.65,1.03-7.28,1.47-2.4.4-4.73.72-6.94.95-2.22.24-4.32.39-6.28.45s-3.77.03-5.4-.1-3.14-.32-4.31-.68c-1.2-.37-2.24-.94-3-1.54-.76-.6-1.27-1.29-1.49-2.07-.2-.7-.17-1.32.14-2.21s.92-2.06,1.8-3.82c.55-1.1,1-2.25,1.35-3.41.35-1.16.59-2.36.71-3.6s.13-2.53,0-3.88c-.13-1.35-.39-2.76-.79-4.25-.4-1.46-.89-2.86-1.49-4.17-.6-1.32-1.29-2.56-2.09-3.72s-1.69-2.25-2.69-3.25c-.99-1-2.09-1.92-3.28-2.75-1.19-.83-2.48-1.58-3.86-2.24-1.39-.66-2.87-1.23-4.45-1.7-1.58-.48-3.25-.86-5.02-1.15-1.77-.29-3.64-.48-5.6-.57-1.96-.09-4.02-.09-6.17.02-2.31.12-4.47.33-6.49.65-2.02.32-3.89.73-5.62,1.24-1.73.51-3.32,1.11-4.76,1.8-1.45.69-2.75,1.46-3.92,2.32s-2.2,1.79-3.09,2.8c-.89,1.01-1.65,2.1-2.27,3.25-.62,1.15-1.11,2.37-1.47,3.65-.36,1.28-.58,2.61-.68,4s-.07,2.82.09,4.3c.16,1.48.44,3,.85,4.56.33,1.24.68,2.49,1.08,3.72.4,1.23.85,2.44,1.37,3.6.52,1.15,1.1,2.27,1.77,3.26.79,1.15,1.73,2.15,2.5,3.02.76.87,1.37,1.61,1.54,2.24.24.9.01,1.76-.61,2.57-.62.81-1.63,1.57-2.93,2.27-1.3.7-2.9,1.33-4.7,1.89-1.8.56-3.8,1.04-5.92,1.44s-4.35.7-6.6.89c-2.49.22-4.86.33-7.06.35s-4.25-.07-6.09-.26c-1.84-.19-3.48-.49-4.86-.9-1.39-.41-2.53-.93-3.38-1.57-.85-.64-1.41-1.38-1.63-2.25ZM663.51,583.22c-.44-1.78-.94-3.6-1.48-5.41-.54-1.81-1.13-3.63-1.74-5.4-.62-1.78-1.27-3.51-1.93-5.18-.67-1.66-1.36-3.25-2.05-4.73s-1.39-2.84-2.09-4.05c-.69-1.21-1.38-2.28-2.05-3.15-.67-.88-1.32-1.56-1.94-2.02-.62-.46-1.21-.7-1.75-.67-.49.03-1.02.39-1.56,1.03-.55.64-1.11,1.57-1.69,2.73s-1.17,2.54-1.76,4.1c-.59,1.56-1.18,3.29-1.77,5.14s-1.16,3.83-1.73,5.87c-.56,2.04-1.11,4.15-1.62,6.28-.52,2.13-1.01,4.27-1.46,6.37-.46,2.11-.87,4.18-1.25,6.17s-.7,3.9-.98,5.68c-.27,1.78-.49,3.42-.65,4.89-.15,1.47-.24,2.76-.26,3.82s.04,1.9.19,2.47c.28,1.12.93,2.09,1.88,2.92.96.83,2.23,1.51,3.76,2.04s3.32.91,5.33,1.12c2,.21,4.21.27,6.58.15,2.04-.1,3.85-.26,5.44-.49s2.98-.54,4.16-.94c1.19-.4,2.18-.89,2.99-1.5.81-.6,1.45-1.32,1.93-2.17.48-.85.8-1.82.97-2.95.18-1.13.21-2.4.13-3.85-.09-1.45-.3-3.07-.61-4.88-.31-1.81-.73-3.82-1.24-6.05-.51-2.22-1.1-4.67-1.76-7.35Z" fill="#fff"/><path d="M738.4,656.62c-.24-.83-.12-1.77.23-2.85.35-1.07.92-2.28,1.58-3.61.66-1.33,1.41-2.8,2.1-4.41.69-1.61,1.3-3.4,1.76-5.25.21-.85.43-1.81.61-2.85.18-1.04.33-2.17.45-3.38s.23-2.5.31-3.87.14-2.8.18-4.31c.04-1.5.05-3.07.05-4.7s-.02-3.31-.06-5.04c-.04-1.73-.09-3.52-.16-5.34-.07-1.83-.16-3.69-.26-5.59s-.21-3.84-.34-5.8c-.13-1.96-.27-3.95-.41-5.94-.1-1.41-.21-2.88-.34-4.4-.13-1.52-.26-3.08-.41-4.68-.15-1.6-.31-3.23-.48-4.89-.17-1.65-.35-3.33-.54-5.01-.19-1.68-.39-3.37-.59-5.05s-.42-3.35-.64-5.01-.45-3.2-.68-4.99-.47-3.52-.72-5.2c-.24-1.68-.49-3.3-.74-4.84s-.51-3-.77-4.37c-.26-1.37-.52-2.64-.78-3.8-.35-1.56-.82-3.14-1.36-4.7-.54-1.56-1.13-3.09-1.74-4.55s-1.22-2.85-1.77-4.11c-.56-1.26-1.07-2.4-1.47-3.36-.4-.96-.69-1.76-.82-2.32-.22-.96-.18-1.91.11-2.82s.84-1.81,1.64-2.66c.81-.85,1.87-1.66,3.2-2.42,1.33-.76,2.93-1.47,4.79-2.13,1.86-.65,4-1.25,6.41-1.78,2.12-.47,4.06-.77,5.84-.93s3.4-.15,4.9.01c1.5.16,2.87.47,4.15.92,1.28.46,2.46,1.06,3.58,1.8,1.12.74,2.17,1.62,3.19,2.63,1.02,1.01,2,2.15,2.98,3.42s1.95,2.65,2.95,4.15c1,1.5,2.03,3.11,3.11,4.82.99,1.55,1.85,2.91,2.66,4.16.8,1.26,1.54,2.42,2.29,3.57.74,1.16,1.48,2.31,2.29,3.56.8,1.25,1.67,2.6,2.66,4.13,1.45,2.25,2.88,4.43,4.27,6.55,1.39,2.12,2.75,4.17,4.08,6.16,1.33,1.99,2.62,3.92,3.88,5.78,1.26,1.87,2.49,3.48,3.69,4.91,1.2,1.43,2.36,2.8,3.5,4.11,1.13,1.32,2.23,2.58,3.3,3.8,1.07,1.21,2.1,2.38,3.1,3.49,1,1.12,1.97,2.18,2.91,3.2.94,1.02,1.84,1.99,2.71,2.92s1.71,1.81,2.51,2.66c.8.84,1.57,1.64,2.31,2.4s1.44,1.47,2.1,2.15,1.3,1.31,1.9,1.91c.6.6,1.17,1.16,1.69,1.68,1.79,1.76,3.32,3.12,4.64,4.13s2.45,1.66,3.42,2.01c.97.35,1.79.4,2.52.2.54-.15,1.01-.46,1.43-.92.41-.46.77-1.06,1.07-1.8s.54-1.6.73-2.58c.19-.98.33-2.07.43-3.27.09-1.19.14-2.49.14-3.87,0-1.38-.03-2.84-.11-4.38-.08-1.53-.19-3.14-.34-4.8-.15-1.66-.33-3.37-.55-5.12s-.46-3.54-.72-5.36c-.27-1.81-.56-3.65-.87-5.5-.31-1.85-.65-4.53-1-6.84s-.72-4.61-1.1-6.87-.77-4.49-1.17-6.67-.81-4.29-1.22-6.33c-.41-2.04-.83-4.01-1.24-5.87-.66-2.99-1.42-5.64-2.23-8-.81-2.36-1.67-4.43-2.56-6.26-.88-1.83-1.79-3.42-2.67-4.83-.89-1.41-1.76-2.63-2.57-3.73-.82-1.1-1.58-2.06-2.26-2.95-.67-.89-1.26-1.7-1.72-2.49s-.8-1.56-.97-2.36c-.2-.9-.14-1.82.13-2.76.27-.94.77-1.88,1.45-2.82.69-.94,1.57-1.87,2.63-2.79,1.05-.91,2.28-1.8,3.65-2.66,1.37-.85,2.88-1.67,4.51-2.44,1.63-.77,3.38-1.48,5.22-2.12,2.13-.75,4.21-1.34,6.19-1.77,1.98-.43,3.85-.69,5.56-.77s3.26.01,4.59.3,2.45.77,3.29,1.46c.84.69,1.42,1.58,1.66,2.7.22,1,.13,2.31-.14,3.77s-.71,3.07-1.21,4.71c-.37,1.28-.72,2.54-1.04,3.78-.32,1.24-.62,2.46-.9,3.68-.28,1.22-.53,2.43-.76,3.64-.23,1.21-.44,2.43-.62,3.66s-.34,2.47-.48,3.74c-.14,1.27-.25,2.56-.35,3.88-.09,1.32-.17,2.68-.22,4.08-.05,1.4-.08,2.85-.09,4.34,0,1.5,0,3.05.04,4.66.04,1.61.09,3.29.17,5.04.08,1.75.17,3.57.29,5.47.12,1.9.26,3.89.41,5.96s.34,4.24.53,6.5c.2,2.26.41,4.63.65,7.1s.49,4.27.77,6.41.57,4.37.88,6.7c.44,3.28.84,6.39,1.2,9.35.36,2.96.67,5.77.93,8.44.27,2.67.49,5.19.67,7.58.18,2.39.31,4.64.4,6.77.09,2.13.13,4.12.13,6s-.05,3.64-.15,5.28c-.1,1.65-.24,3.18-.43,4.61-.19,1.43-.42,2.75-.71,3.97-.28,1.22-.61,2.35-.99,3.38s-.81,1.97-1.28,2.82c-.48.85-1,1.61-1.57,2.29-.57.68-1.2,1.28-1.87,1.81-.67.53-1.4.97-2.17,1.35-.77.38-1.6.69-2.47.93-.91.26-1.82.43-2.74.51-.92.09-1.85.09-2.79,0-.94-.08-1.9-.24-2.87-.49-.97-.25-1.97-.58-2.99-.99-1.02-.41-2.07-.91-3.15-1.49-1.08-.58-2.19-1.24-3.34-1.99-1.15-.75-2.34-1.58-3.58-2.49-1.24-.92-2.52-1.92-3.85-3-1.33-1.09-2.71-2.26-4.16-3.52s-2.94-2.61-4.5-4.05c-1.56-1.44-3.19-2.97-4.88-4.6s-3.46-3.35-5.3-5.16c-1.84-1.82-3.76-3.73-5.76-5.76-1.48-1.5-2.9-2.96-4.27-4.39-1.37-1.43-2.67-2.82-3.93-4.18-1.26-1.36-2.46-2.68-3.62-3.97-1.16-1.29-2.26-2.54-3.32-3.76-1.06-1.22-2.08-2.41-3.05-3.56-.97-1.16-1.91-2.28-2.8-3.37-.89-1.09-1.75-2.15-2.57-3.18-.82-1.03-1.61-2.03-2.36-3-.75-.97-1.48-1.91-2.17-2.83-.7-.92-1.36-1.81-2.01-2.67-1.29-1.75-2.37-3.22-3.33-4.37-.96-1.15-1.81-1.99-2.65-2.51-.84-.52-1.66-.71-2.59-.56-.71.11-1.28.37-1.74.87-.45.5-.78,1.22-1.01,2.27s-.35,2.41-.39,4.17,0,3.92.13,6.55.29,5.74.54,9.35c.12,1.76.28,3.53.43,5.3s.32,3.52.49,5.26.36,3.47.55,5.17c.19,1.7.4,3.38.61,5.02.21,1.64.44,3.25.67,4.82.23,1.57.48,3.09.73,4.56s.52,2.9.79,4.26c.28,1.36.56,2.67.86,3.9.3,1.24.6,2.41.92,3.5.47,1.64.99,3.2,1.61,4.7.61,1.49,1.31,2.92,2.14,4.28.83,1.36,1.79,2.66,2.92,3.9,1.22,1.33,2.47,2.47,3.6,3.46,1.13.99,2.15,1.85,2.95,2.63.79.78,1.36,1.5,1.57,2.2.21.68.08,1.42-.34,2.18s-1.14,1.54-2.14,2.32c-.99.78-2.26,1.54-3.77,2.27-1.51.73-3.26,1.42-5.22,2.05-1.97.62-4.15,1.18-6.52,1.63-2.37.46-4.64.76-6.76.93s-4.1.21-5.89.12c-1.79-.09-3.38-.3-4.74-.63s-2.47-.77-3.3-1.3c-.83-.54-1.38-1.18-1.59-1.91Z" fill="#fff"/><path d="M877.15,574.5c-.39-1.34-.74-2.69-1.05-4.04s-.58-2.72-.81-4.09c-.23-1.37-.42-2.75-.57-4.13-.15-1.38-.26-2.81-.34-4.56-.07-1.75-.11-3.5-.11-5.25,0-1.75.04-3.51.12-5.26.08-1.75.19-3.5.34-5.25s.33-3.5.55-5.24c.22-1.74.47-3.48.76-5.21.29-1.73.61-3.46.97-5.18s.75-3.43,1.17-5.13c.42-1.7.88-3.39,1.37-5.07.49-1.68,1.01-3.35,1.56-5.01s1.13-3.3,1.75-4.93c.61-1.63,1.26-3.24,1.93-4.84s1.38-3.18,2.11-4.75c.73-1.56,1.49-3.11,2.28-4.64.79-1.53,1.61-3.03,2.45-4.52.84-1.49,1.71-2.95,2.61-4.39.9-1.44,1.82-2.86,2.77-4.25s1.93-2.76,2.93-4.1c1-1.34,2.03-2.66,3.08-3.94,1.05-1.29,2.12-2.55,3.22-3.78,1.1-1.23,2.22-2.43,3.36-3.6,1.14-1.17,2.31-2.31,3.5-3.41,1.19-1.1,2.4-2.18,3.63-3.22,1.23-1.04,2.48-2.04,3.75-3.01,1.27-.97,2.56-1.9,3.87-2.8s2.64-1.76,3.99-2.58,2.72-1.6,4.1-2.35c1.39-.74,2.79-1.45,4.21-2.11,1.9-.89,3.79-1.71,5.65-2.45,1.86-.74,3.71-1.41,5.53-2,1.82-.6,3.62-1.12,5.39-1.57,1.77-.45,3.52-.83,5.24-1.15,1.72-.31,3.42-.56,5.09-.73s3.31-.28,4.92-.33c1.61-.04,3.19-.02,4.74.07,1.55.09,3.07.24,4.55.46,1.49.22,2.94.49,4.35.83,1.42.34,2.8.74,4.15,1.21,1.35.46,2.66.99,3.93,1.57,1.27.58,2.51,1.23,3.7,1.93,1.19.7,2.35,1.46,3.46,2.29s2.19,1.7,3.21,2.64,2.02,1.93,2.96,2.99c.94,1.06,1.84,2.17,2.69,3.34.85,1.17,1.65,2.4,2.41,3.7.76,1.29,1.46,2.64,2.12,4.05.66,1.41,1.27,2.88,1.82,4.41.56,1.53,1.06,3.12,1.51,4.78.39,1.44.75,2.9,1.06,4.37.31,1.47.58,2.96.82,4.46.23,1.5.42,3.01.58,4.54.15,1.53.27,3.07.34,4.62.08,1.55.11,3.12.11,4.69,0,1.58-.04,3.16-.11,4.76-.07,1.6-.18,3.21-.33,4.83s-.33,3.25-.54,4.88c-.22,1.64-.47,3.28-.76,4.93-.29,1.65-.61,3.31-.96,4.98s-.74,3.32-1.16,4.97c-.42,1.65-.87,3.3-1.36,4.95-.48,1.65-1,3.29-1.55,4.92-.55,1.63-1.13,3.26-1.73,4.88-.61,1.62-1.25,3.22-1.92,4.82s-1.37,3.18-2.09,4.75c-.73,1.57-1.48,3.12-2.26,4.66-.78,1.54-1.59,3.05-2.43,4.55s-1.7,2.98-2.59,4.44c-.89,1.46-1.81,2.89-2.75,4.3-.94,1.41-1.91,2.8-2.9,4.16-.99,1.36-2.01,2.7-3.05,4.01-1.04,1.31-2.11,2.59-3.2,3.84-1.09,1.25-2.2,2.47-3.33,3.66-1.13,1.19-2.29,2.35-3.47,3.47-1.18,1.12-2.38,2.22-3.6,3.27-1.22,1.06-2.46,2.08-3.72,3.07-1.26.99-2.54,1.94-3.84,2.85-1.3.91-2.62,1.79-3.96,2.62-1.34.84-2.69,1.63-4.07,2.39-1.37.76-2.76,1.48-4.17,2.15-1.95.94-3.89,1.79-5.81,2.56-1.92.77-3.82,1.45-5.71,2.06-1.88.6-3.75,1.13-5.59,1.58-1.84.45-3.66.81-5.45,1.11-1.79.29-3.56.51-5.3.65-1.74.14-3.45.21-5.14.21-1.68,0-3.34-.08-4.96-.22-1.62-.14-3.21-.36-4.76-.64-1.55-.28-3.07-.63-4.55-1.05-1.48-.42-2.92-.9-4.33-1.45-1.4-.55-2.77-1.16-4.09-1.84s-2.6-1.42-3.83-2.23-2.42-1.67-3.56-2.61c-1.14-.93-2.24-1.92-3.28-2.98-1.04-1.05-2.04-2.17-2.98-3.35-.94-1.18-1.83-2.41-2.67-3.71-.83-1.3-1.62-2.65-2.34-4.07s-1.39-2.89-1.99-4.42c-.61-1.53-1.15-3.12-1.64-4.77ZM979.03,488.59c-.52-2.06-1.08-4.03-1.69-5.93-.6-1.89-1.25-3.7-1.93-5.42-.69-1.72-1.42-3.35-2.19-4.88-.77-1.53-1.59-2.97-2.45-4.3-.86-1.33-1.77-2.56-2.72-3.68-.95-1.12-1.95-2.12-2.99-3.01-1.04-.89-2.13-1.66-3.27-2.31s-2.32-1.17-3.56-1.55c-1.24-.39-2.52-.64-3.85-.76-1.33-.11-2.72-.09-4.15.09s-2.92.5-4.46.98-3.13,1.12-4.78,1.92c-1.37.67-2.7,1.4-3.98,2.19-1.28.79-2.51,1.63-3.69,2.54-1.19.9-2.32,1.86-3.42,2.87s-2.14,2.07-3.15,3.18c-1,1.11-1.96,2.27-2.88,3.48-.92,1.21-1.79,2.46-2.62,3.76-.83,1.3-1.62,2.64-2.37,4.02s-1.45,2.8-2.12,4.25c-.67,1.46-1.29,2.95-1.88,4.47-.59,1.52-1.13,3.08-1.64,4.66-.51,1.58-.98,3.2-1.41,4.84-.43,1.64-.82,3.3-1.18,4.99-.36,1.68-.68,3.39-.96,5.11-.28,1.72-.53,3.46-.75,5.21s-.39,3.52-.54,5.29-.26,3.56-.34,5.35-.12,3.59-.14,5.38c-.01,1.8,0,3.6.05,5.39s.13,3.59.24,5.38c.11,1.79.25,3.57.42,5.34.17,1.77.37,3.53.59,5.28.23,1.75.48,3,.76,4.39.28,1.38.59,2.75.93,4.1s.7,2.68,1.08,3.99c.58,1.96,1.19,3.82,1.84,5.59.65,1.77,1.34,3.44,2.08,5s1.52,3.02,2.35,4.37c.83,1.35,1.72,2.58,2.66,3.7.94,1.12,1.94,2.11,3.01,2.98,1.06.87,2.19,1.61,3.38,2.22,1.19.61,2.46,1.08,3.8,1.42,1.34.33,2.75.52,4.24.55,1.49.03,3.07-.08,4.73-.37,1.66-.28,3.41-.73,5.24-1.35,1.84-.62,3.77-1.42,5.8-2.41,1.44-.7,2.82-1.47,4.15-2.3,1.33-.83,2.6-1.72,3.83-2.66s2.4-1.95,3.52-3c1.12-1.05,2.19-2.16,3.21-3.31,1.02-1.15,1.99-2.36,2.91-3.6.92-1.25,1.8-2.54,2.62-3.87.83-1.33,1.61-2.7,2.34-4.1.73-1.4,1.42-2.84,2.06-4.31.64-1.47,1.24-2.97,1.79-4.49.55-1.52,1.06-3.07,1.52-4.64.46-1.57.88-3.16,1.26-4.77s.71-3.23,1.01-4.87c.3-1.64.55-3.28.76-4.93.21-1.65.39-3.25.53-5.07.14-1.82.23-3.65.29-5.47.06-1.82.08-3.65.07-5.46-.02-1.82-.07-3.63-.15-5.43-.09-1.8-.21-3.6-.37-5.39-.16-1.78-.35-3.56-.57-5.32-.23-1.76-.48-3.5-.77-5.23-.29-1.73-.61-3.43-.97-5.12s-.74-3.35-1.15-4.99Z" fill="#fff"/></svg>