<?xml version="1.0" encoding="UTF-8"?><svg xmlns="http://www.w3.org/2000/svg" viewBox="0 0 1024 1024"><g id="bg"><rect width="1024" height="1024" fill="#0e0e0e"/></g><g id="Layer_3"><path d="M163.24,850.93c-2.53.2-4.99.37-7.32.45-2.33.08-4.55.09-6.67.03s-4.12-.19-6.01-.38c-1.89-.2-3.67-.46-5.34-.79-1.67-.33-3.22-.73-4.67-1.19s-2.77-1-3.98-1.6c-1.21-.6-2.31-1.27-3.29-2-.98-.73-1.85-1.53-2.59-2.4-.75-.87-1.38-1.81-1.88-2.81-.51-1.01-.9-2.08-1.17-3.23-.21-.88-.33-1.86-.39-2.93-.06-1.07-.04-2.22.03-3.46.07-1.23.21-2.54.4-3.92.19-1.38.43-2.82.71-4.32.28-1.5.6-3.06.96-4.67.36-1.61.75-3.26,1.16-4.95.41-1.69.85-3.41,1.3-5.16s.92-3.52,1.39-5.31.95-3.59,1.42-5.39.94-3.61,1.4-5.41c.45-1.8.9-3.59,1.31-5.36.42-1.77.81-3.52,1.18-5.23.36-1.71.7-3.4.99-5.03.22-1.15.43-2.33.63-3.53.21-1.2.41-2.42.6-3.67s.39-2.51.57-3.8c.19-1.29.37-2.6.54-3.93.18-1.33.35-2.68.51-4.05.16-1.37.32-2.76.48-4.17.15-1.41.3-2.84.45-4.29.15-1.45.29-2.92.42-4.4.14-1.49.27-2.99.39-4.51s.25-3.06.36-4.61.23-3.12.33-4.71.21-3.19.3-4.81c.1-1.62.19-3.25.28-4.9.09-1.65.17-3.31.25-4.98.08-1.67.15-3.36.22-5.06.07-1.7.13-3.41.19-5.14.06-1.73.11-3.46.17-5.21s.1-3.51.14-5.28.08-3.55.11-5.35.06-3.6.09-5.41c.02-1.81.04-3.63.06-5.46.02-1.83.03-3.67.03-5.52,0-1.85,0-3.7,0-5.56,0-1.86,0-3.73-.02-5.61-.01-1.88-.02-3.76-.04-5.65-.02-1.89-.04-3.78-.07-5.68-.03-1.9-.06-3.8-.09-5.71-.03-1.91-.07-3.82-.12-5.74s-.09-3.84-.14-5.76-.11-3.85-.16-5.78c-.06-1.93-.12-3.86-.19-5.79s-.14-3.87-.21-5.8c-.07-1.94-.15-3.87-.23-5.81s-.17-3.87-.26-5.81-.18-3.87-.28-5.81-.2-3.87-.3-5.8c-.1-1.93-.21-3.86-.32-5.79-.11-1.93-.23-3.85-.34-5.78-.12-1.92-.24-3.84-.37-5.76-.13-1.92-.25-3.83-.39-5.74-.13-1.91-.27-3.81-.41-5.71-.14-1.9-.28-3.79-.43-5.68-.15-1.89-.3-3.77-.45-5.65-.15-1.88-.31-3.74-.47-5.61s-.32-3.72-.49-5.56c-.17-1.85-.33-3.69-.51-5.52-.17-1.83-.35-3.65-.53-5.47s-.36-3.62-.55-5.41c-.18-1.8-.37-3.58-.56-5.36s-.39-3.54-.58-5.3-.4-3.5-.6-5.23c-.2-1.73-.41-3.45-.62-5.16-.21-1.71-.42-3.4-.64-5.09-.21-1.68-.43-3.35-.65-5.01-.22-1.66-.44-3.06-.67-4.56-.23-1.5-.45-2.99-.69-4.47-.23-1.48-.47-2.94-.7-4.4-.24-1.45-.48-2.89-.72-4.32-.24-1.43-.49-2.84-.73-4.24s-.5-2.79-.75-4.16c-.25-1.37-.51-2.73-.77-4.07-.26-1.34-.52-2.67-.78-3.98s-.53-2.61-.8-3.89c-.27-1.28-.54-2.54-.81-3.79-.27-1.25-.55-2.48-.82-3.69-.28-1.21-.56-2.41-.84-3.59-.28-1.18-.57-2.34-.85-3.48-.29-1.14-.57-2.26-.87-3.37-.29-1.1-.58-2.19-.88-3.25-.81-2.92-1.66-5.71-2.53-8.37s-1.78-5.18-2.71-7.59-1.88-4.69-2.85-6.87c-.97-2.17-1.95-4.23-2.94-6.19-.99-1.96-1.99-3.81-2.99-5.57-1-1.76-2-3.42-3-4.99-1-1.57-1.99-3.06-2.97-4.47-.98-1.41-1.94-2.74-2.89-4-.95-1.26-1.87-2.45-2.77-3.57-.9-1.13-1.77-2.19-2.61-3.2-.84-1.01-1.64-1.97-2.41-2.88s-1.49-1.78-2.16-2.6-1.3-1.62-1.88-2.38c-.57-.76-1.09-1.5-1.55-2.22-.46-.72-.85-1.41-1.17-2.1-.32-.69-.58-1.36-.76-2.03-.17-.63-.28-1.29-.32-1.97s-.03-1.39.05-2.12c.08-.73.22-1.48.43-2.26s.48-1.58.82-2.41c.34-.83.74-1.68,1.22-2.56s1.02-1.78,1.63-2.7,1.29-1.87,2.04-2.85c.75-.97,1.58-1.97,2.47-2.99.9-1.02,1.87-2.06,2.91-3.12,1.04-1.06,2.16-2.15,3.36-3.26s2.47-2.23,3.81-3.38c1.35-1.15,2.77-2.31,4.28-3.5,1.51-1.18,3.09-2.39,4.75-3.61,1.67-1.22,3.41-2.46,5.24-3.71s3.74-2.52,5.73-3.8c1.99-1.28,4.07-2.58,6.24-3.88s4.41-2.63,6.75-3.95c2.34-1.33,4.76-2.67,7.27-4.02s5.11-2.7,7.81-4.07c1.31-.67,2.63-1.33,3.96-1.99s2.67-1.31,4.03-1.95c1.35-.64,2.71-1.28,4.09-1.91,1.37-.63,2.76-1.26,4.15-1.88,1.39-.62,2.79-1.23,4.21-1.84,1.41-.61,2.83-1.21,4.26-1.8s2.87-1.18,4.32-1.77c1.45-.58,2.91-1.16,4.37-1.73,1.47-.57,2.94-1.13,4.42-1.69,1.48-.56,2.97-1.11,4.47-1.66,1.5-.55,3.01-1.09,4.52-1.62,1.52-.54,3.04-1.06,4.57-1.59,1.53-.52,3.07-1.04,4.61-1.56,1.55-.51,3.1-1.02,4.66-1.52,1.56-.5,3.13-1,4.7-1.49,1.57-.49,3.15-.98,4.74-1.46,1.59-.48,3.18-.96,4.78-1.43,1.6-.47,3.2-.94,4.81-1.4,1.61-.46,3.23-.92,4.85-1.37,1.62-.45,3.25-.9,4.88-1.34s3.27-.88,4.91-1.31c1.64-.43,3.29-.86,4.94-1.28,1.65-.42,3.31-.84,4.97-1.26s3.33-.83,5-1.23c1.86-.45,3.72-.89,5.57-1.32,1.85-.43,3.7-.84,5.54-1.24,1.84-.4,3.68-.79,5.51-1.16,1.83-.37,3.66-.73,5.48-1.08s3.64-.68,5.46-1c1.81-.32,3.62-.63,5.43-.92,1.8-.29,3.6-.58,5.4-.85,1.79-.27,3.58-.53,5.37-.77,1.78-.24,3.56-.48,5.33-.69,1.77-.22,3.54-.43,5.3-.62,1.76-.19,3.52-.38,5.27-.54s3.5-.33,5.24-.47c1.74-.14,3.47-.28,5.2-.4s3.45-.23,5.17-.32c1.72-.09,3.43-.18,5.13-.25,1.7-.07,3.4-.13,5.09-.17s3.38-.08,5.06-.1c1.68-.02,3.35-.03,5.02-.03,1.67,0,3.33.02,4.98.05,1.65.03,3.3.07,4.94.12,1.64.05,3.28.12,4.9.2,1.63.08,3.25.17,4.86.27,1.61.1,3.22.18,4.82.41,1.6.22,3.19.46,4.78.71,1.59.25,3.17.51,4.74.78s3.14.56,4.7.86c1.56.3,3.11.61,4.65.94,1.54.33,3.08.66,4.61,1.01,1.53.35,3.05.71,4.56,1.09,1.51.38,3.02.77,4.52,1.17,1.5.4,2.99.82,4.47,1.25,1.48.43,2.96.87,4.42,1.33s2.93.93,4.38,1.41,2.89.98,4.33,1.49c1.43.51,2.86,1.04,4.28,1.58,1.42.54,2.83,1.09,4.23,1.66,1.4.57,2.79,1.15,4.18,1.75,1.38.6,2.76,1.21,4.13,1.83,1.37.62,2.73,1.26,4.08,1.92,1.35.65,2.69,1.32,4.02,2.01,1.33.68,2.66,1.38,3.97,2.09,1.31.71,2.62,1.44,3.92,2.18s2.58,1.5,3.86,2.27c1.28.77,2.55,1.56,3.81,2.36,1.26.8,2.51,1.62,3.75,2.45,1.24.83,2.47,1.68,3.7,2.54,1.22.86,2.44,1.74,3.64,2.63s2.4,1.8,3.58,2.73c1.18.92,2.36,1.86,3.52,2.82,1.16.95,2.32,1.93,3.46,2.91,1.14.99,2.28,1.99,3.4,3,1.12,1.02,2.24,2.05,3.34,3.1,1.1,1.05,2.2,2.11,3.28,3.19s2.16,2.18,3.22,3.29c1.06,1.11,2.12,2.24,3.16,3.38,1.04,1.14,2.07,2.3,3.09,3.48,1.02,1.17,2.03,2.36,3.03,3.57s1.99,2.43,2.97,3.67c.98,1.24,1.95,2.49,2.9,3.76.96,1.27,1.9,2.55,2.84,3.86.93,1.3,1.86,2.62,2.77,3.95.91,1.33,1.81,2.68,2.7,4.05.89,1.36,1.77,2.74,2.63,4.14.87,1.4,1.72,2.81,2.57,4.23s1.68,2.87,2.5,4.33c.82,1.46,1.63,2.93,2.43,4.42.8,1.49,1.58,3,2.36,4.52.77,1.52,1.53,3.06,2.28,4.61.75,1.55,1.49,3.12,2.21,4.7.73,1.58,1.44,3.18,2.14,4.8.7,1.61,1.39,3.24,2.07,4.89.68,1.64,1.34,3.3,1.99,4.98s1.29,3.37,1.92,5.07c.63,1.71,1.24,3.43,1.84,5.16.6,1.74,1.19,3.49,1.77,5.25.58,1.77,1.14,3.55,1.69,5.34s1.09,3.61,1.61,5.43,1.04,3.67,1.54,5.52c.5,1.85.98,3.72,1.46,5.61s.93,3.78,1.38,5.69c.45,1.93.89,3.85,1.31,5.77.42,1.92.83,3.82,1.22,5.73.39,1.9.78,3.8,1.14,5.68.37,1.89.72,3.77,1.06,5.64s.67,3.74.98,5.6c.31,1.86.61,3.71.9,5.55.29,1.84.56,3.68.82,5.51.26,1.83.5,3.65.73,5.46.23,1.81.45,3.62.65,5.42s.4,3.59.57,5.37c.18,1.78.34,3.56.49,5.33.15,1.77.29,3.53.41,5.28.12,1.75.24,3.5.33,5.23.1,1.74.18,3.46.26,5.18.07,1.72.13,3.43.18,5.14s.08,3.4.1,5.09c.02,1.69.03,3.35.02,5.01,0,1.66-.02,3.31-.06,4.96s-.08,3.28-.13,4.91c-.06,1.63-.13,3.25-.21,4.86-.08,1.61-.18,3.22-.29,4.81s-.23,3.19-.36,4.77c-.13,1.58-.28,3.15-.44,4.72s-.33,3.12-.51,4.67c-.18,1.55-.38,3.09-.59,4.62s-.43,3.06-.66,4.57c-.23,1.52-.48,3.03-.74,4.53s-.53,2.99-.81,4.48-.58,2.96-.89,4.43c-.31,1.47-.63,2.93-.96,4.39s-.68,2.9-1.03,4.34-.73,2.87-1.11,4.3c-.38,1.42-.77,2.84-1.18,4.25s-.82,2.81-1.25,4.21c-.43,1.39-.87,2.78-1.32,4.16s-.92,2.75-1.39,4.12c-.48,1.37-.97,2.72-1.47,4.07-.5,1.35-1.01,2.69-1.54,4.03s-1.06,2.67-1.61,3.99c-.55,1.32-1.11,2.64-1.68,3.95-.57,1.31-1.15,2.61-1.75,3.91s-1.2,2.58-1.82,3.86c-.62,1.28-1.25,2.56-1.89,3.82-.64,1.27-1.29,2.53-1.95,3.78-.66,1.25-1.34,2.5-2.02,3.74-.69,1.24-1.38,2.48-2.09,3.71-.71,1.23-1.43,2.45-2.16,3.67-.73,1.22-1.47,2.43-2.23,3.63-.75,1.2-1.52,2.4-2.29,3.59-.78,1.19-1.56,2.38-2.36,3.56-.8,1.18-1.61,2.35-2.43,3.52-.82,1.17-1.65,2.33-2.49,3.48s-1.69,2.31-2.56,3.45c-.86,1.14-1.74,2.28-2.62,3.42s-1.78,2.26-2.69,3.38c-.91,1.12-1.83,2.24-2.75,3.35-.93,1.11-1.87,2.22-2.82,3.32s-1.91,2.2-2.88,3.29c-.97,1.09-1.95,2.17-2.95,3.25s-2,2.15-3.01,3.22-2.04,2.13-3.07,3.19c-1.03,1.06-2.08,2.11-3.14,3.16-1.06,1.05-2.12,2.09-3.2,3.13-1.08,1.04-2.16,2.07-3.26,3.1s-2.2,2.06-3.32,3.08c-1.12,1.02-2.25,2.04-3.38,3.05-1.14,1.01-2.29,2.02-3.45,3.02-1.16,1-2.33,2-3.51,2.99-1.18.99-2.37,1.98-3.57,2.97-1.2.98-2.41,1.96-3.63,2.94-1.22.98-2.45,1.95-3.69,2.91s-2.49,1.93-3.75,2.89-2.53,1.91-3.81,2.86-2.57,1.9-3.86,2.84c-1.3.94-2.61,1.88-3.92,2.81s-2.64,1.86-3.98,2.79c-1.34.92-2.68,1.85-4.04,2.76s-2.72,1.83-4.1,2.74c-1.37.91-2.76,1.81-4.15,2.71-1.39.9-2.8,1.79-4.21,2.69-1.41.89-2.83,1.78-4.27,2.66s-2.87,1.76-4.32,2.64c-1.45.87-2.91,1.74-4.38,2.61-1.47.87-2.95,1.73-4.43,2.59-1.49.86-2.98,1.71-4.49,2.56s-3.02,1.69-4.54,2.53-3.06,1.68-4.6,2.51c-1.54.83-3.09,1.66-4.65,2.48-1.56.82-3.13,1.64-4.71,2.45-1.58.81-3.16,1.62-4.76,2.43-1.6.8-3.2,1.6-4.81,2.4-1.61.79-3.23,1.58-4.87,2.37-1.63.78-3.27,1.63-4.92,2.46-1.65.84-3.3,1.66-4.97,2.49-1.67.82-3.34,1.64-5.02,2.44-1.68.81-3.37,1.61-5.07,2.4-1.7.79-3.41,1.58-5.12,2.36-1.72.78-3.44,1.55-5.18,2.31-1.73.76-3.48,1.52-5.23,2.27-1.75.75-3.51,1.49-5.28,2.22s-3.54,1.46-5.33,2.17c-1.78.72-3.58,1.43-5.37,2.13-1.8.7-3.61,1.39-5.42,2.08s-3.64,1.36-5.47,2.03c-1.83.67-3.67,1.33-5.52,1.98s-3.7,1.29-5.57,1.93c-1.86.63-3.74,1.26-5.62,1.87-1.88.62-3.77,1.22-5.66,1.82-1.9.6-3.8,1.19-5.71,1.77-1.91.58-3.83,1.15-5.76,1.71-1.98.58-3.95,1.14-5.91,1.7-1.96.56-3.9,1.1-5.83,1.63-1.93.53-3.85,1.06-5.75,1.57-1.9.51-3.79,1.01-5.66,1.5-1.87.49-3.73.97-5.58,1.44-1.85.47-3.68.93-5.49,1.37-1.82.45-3.62.88-5.4,1.31-1.79.43-3.56.84-5.31,1.24-1.75.4-3.49.8-5.22,1.18-1.72.38-3.43.75-5.12,1.11s-3.36.71-5.02,1.05-3.3.67-4.92.99c-1.62.32-3.23.63-4.81.92-1.59.3-3.16.58-4.71.86-1.55.28-3.09.54-4.6.8s-3.01.5-4.49.74c-1.48.24-2.94.46-4.38.68-1.44.22-2.86.42-4.26.62-1.4.2-2.78.38-4.15.56s-2.7.34-4.03.5-2.62.31-3.9.44c-1.28.14-2.54.27-3.78.39-1.24.12-2.46.23-3.65.33-1.2.1-2.38.19-3.52.28ZM446.46,447.53c-.52-2.17-1.05-4.31-1.6-6.44-.55-2.13-1.11-4.24-1.68-6.33-.57-2.09-1.16-4.16-1.76-6.22-.6-2.05-1.22-4.09-1.84-6.1-.63-2.01-1.27-4.01-1.92-5.98-.65-1.97-1.32-3.92-2-5.86-.68-1.93-1.37-3.84-2.08-5.73-.71-1.89-1.42-3.76-2.16-5.6-.73-1.85-1.47-3.67-2.23-5.47s-1.52-3.58-2.31-5.34-1.57-3.49-2.38-5.2c-.8-1.71-1.62-3.4-2.45-5.06-.83-1.66-1.67-3.3-2.52-4.92-.85-1.62-1.72-3.21-2.59-4.78-.88-1.57-1.76-3.11-2.66-4.63-.9-1.52-1.81-3.01-2.73-4.48-.92-1.47-1.85-2.92-2.8-4.34-.94-1.42-1.9-2.81-2.86-4.18-.97-1.37-1.94-2.71-2.93-4.03-.99-1.32-1.99-2.61-2.99-3.87-1.01-1.27-2.03-2.5-3.06-3.72s-2.07-2.4-3.12-3.56c-1.05-1.16-2.11-2.29-3.18-3.4-1.07-1.1-2.15-2.18-3.24-3.23s-2.19-2.07-3.3-3.07-2.23-1.96-3.36-2.9c-1.13-.94-2.27-1.85-3.42-2.74-1.15-.88-2.31-1.74-3.47-2.57-1.17-.83-2.34-1.49-3.53-2.18s-2.38-1.34-3.58-1.97c-1.2-.63-2.42-1.22-3.64-1.79-1.22-.57-2.45-1.11-3.69-1.61-1.24-.51-2.49-.99-3.74-1.44-1.26-.45-2.52-.87-3.79-1.26-1.27-.39-2.55-.75-3.84-1.08-1.29-.33-2.59-.63-3.89-.9-1.3-.27-2.62-.51-3.94-.71-1.32-.21-2.65-.38-3.99-.53s-2.68-.26-4.03-.34c-1.35-.08-2.71-.13-4.08-.15-1.37-.02-2.74,0-4.12.04-1.38.04-2.77.12-4.16.23-1.39.11-2.8.25-4.2.43s-2.82.38-4.24.62c-1.42.24-2.85.51-4.28.82-1.49.32-2.96.67-4.41,1.05-1.45.38-2.87.79-4.27,1.22-1.4.44-2.78.9-4.14,1.39s-2.69,1.01-4,1.56-2.6,1.12-3.87,1.72c-1.27.6-2.51,1.23-3.74,1.88s-2.43,1.33-3.61,2.03c-1.18.7-2.34,1.43-3.48,2.18-1.14.75-2.26,1.53-3.35,2.33s-2.17,1.63-3.23,2.47c-1.06.85-2.09,1.72-3.11,2.61s-2.01,1.81-2.99,2.75c-.98.94-1.93,1.9-2.87,2.88-.94.98-1.85,1.99-2.75,3.01-.9,1.03-1.77,2.07-2.63,3.14-.86,1.07-1.7,2.15-2.52,3.26-.82,1.11-1.62,2.23-2.41,3.38s-1.55,2.31-2.29,3.49c-.75,1.18-1.48,2.39-2.19,3.61s-1.4,2.46-2.08,3.71c-.68,1.26-1.33,2.53-1.97,3.82-.64,1.29-1.26,2.6-1.87,3.92-.61,1.32-1.19,2.66-1.77,4.02-.57,1.35-1.13,2.72-1.67,4.11-.54,1.38-1.06,2.78-1.57,4.2-.51,1.41-1,2.84-1.47,4.28s-.93,2.9-1.37,4.37c-.44,1.47-.87,2.95-1.28,4.45-.41,1.49-.81,3-1.19,4.52-.38,1.52-.75,3.05-1.1,4.59s-.69,3.1-1.01,4.66c-.32,1.56-.63,3.14-.92,4.73s-.57,3.18-.84,4.79c-.26,1.61-.52,3.22-.75,4.84-.24,1.62-.46,3.26-.67,4.9s-.41,3.29-.59,4.95c-.18,1.66-.35,3.32-.51,4.99s-.3,3.35-.43,5.04c-.13,1.69-.25,3.38-.36,5.08-.11,1.7-.2,3.4-.29,5.11-.08,1.71-.15,3.42-.21,5.14-.06,1.72-.11,3.44-.14,5.17-.04,1.73-.06,3.46-.07,5.2s-.02,3.48,0,5.22.03,3.49.06,5.24c.03,1.75.07,3.5.12,5.5.05,1.99.11,3.99.18,5.99.07,2,.15,4,.24,6,.09,2,.19,4,.3,6,.11,2,.23,4,.36,6.01.13,2,.27,4,.41,6.01.15,2,.3,4,.47,6s.34,4,.52,5.99.37,3.99.57,5.98c.2,1.99.4,3.98.62,5.96.21,1.98.43,3.96.66,5.94.23,1.98.46,3.95.71,5.92.24,1.97.49,3.93.75,5.89.26,1.96.52,3.91.79,5.86.27,1.95.55,3.89.83,5.82.28,1.93.57,3.86.87,5.78.3,1.92.6,3.83.91,5.74.31,1.9.62,3.8.94,5.69.32,1.89.64,3.77.97,5.64.33,1.87.66,3.73,1,5.58.34,1.85.68,3.69,1.03,5.52.35,1.83.7,3.65,1.06,5.46s.72,3.6,1.09,5.39c.37,1.78.74,3.56,1.11,5.32.37,1.76.75,3.51,1.13,5.24s.77,3.45,1.16,5.16c.57,2.52,1.15,5,1.74,7.44s1.17,4.84,1.77,7.2c.6,2.36,1.2,4.68,1.8,6.95s1.22,4.51,1.84,6.71c.62,2.2,1.25,4.35,1.88,6.46.63,2.11,1.28,4.19,1.93,6.22.65,2.03,1.31,4.02,1.97,5.97.67,1.95,1.34,3.86,2.02,5.72.68,1.87,1.37,3.69,2.08,5.47s1.41,3.53,2.13,5.23c.72,1.7,1.45,3.36,2.19,4.98.74,1.62,1.49,3.19,2.25,4.73.76,1.53,1.53,3.03,2.32,4.48.78,1.45,1.58,2.86,2.39,4.23.81,1.37,1.63,2.7,2.46,3.98.83,1.29,1.68,2.53,2.53,3.73.86,1.2,1.73,2.36,2.61,3.48.88,1.12,1.78,2.2,2.69,3.23.91,1.04,1.84,2.03,2.78,2.99.94.95,1.89,1.87,2.86,2.74.97.87,1.95,1.7,2.96,2.49s2.02,1.53,3.05,2.24c1.03.71,2.08,1.37,3.15,1.99,1.06.62,2.15,1.2,3.25,1.74,1.1.54,2.21,1.04,3.35,1.5,1.13.46,2.28.88,3.45,1.25s2.36.71,3.56,1.01,2.43.55,3.68.76c1.24.21,2.51.39,3.79.52,1.28.13,2.59.22,3.91.28s2.67.06,4.03.03,2.75-.1,4.16-.21,2.83-.26,4.28-.44c1.45-.19,2.92-.41,4.42-.68s3.01-.57,4.55-.91c1.54-.34,3.1-.73,4.69-1.15,1.51-.4,3-.82,4.48-1.27s2.94-.92,4.39-1.41c1.45-.49,2.88-1.01,4.3-1.55,1.42-.54,2.82-1.1,4.21-1.68,1.39-.58,2.76-1.19,4.12-1.81,1.36-.63,2.7-1.27,4.03-1.94,1.33-.67,2.64-1.4,3.94-2.03s2.58-1.27,3.85-1.94c1.27-.67,2.52-1.36,3.76-2.07,1.24-.71,2.46-1.44,3.67-2.19s2.4-1.52,3.57-2.3c1.18-.79,2.34-1.59,3.48-2.42,1.15-.83,2.28-1.67,3.39-2.53s2.22-1.74,3.3-2.64c1.09-.9,2.16-1.82,3.22-2.75,1.06-.94,2.1-1.89,3.13-2.86,1.03-.97,2.04-1.96,3.04-2.96,1-1.01,1.98-2.03,2.95-3.07.97-1.04,1.92-2.1,2.86-3.17s1.86-2.16,2.77-3.27c.91-1.1,1.8-2.23,2.68-3.36s1.74-2.29,2.59-3.46c.85-1.17,1.68-2.35,2.5-3.55s1.62-2.41,2.41-3.64c.79-1.23,1.56-2.47,2.32-3.73.76-1.26,1.5-2.53,2.23-3.82.73-1.29,1.44-2.59,2.14-3.91.7-1.32,1.39-2.65,2.06-3.99.67-1.34,1.33-2.7,1.97-4.07s1.27-2.76,1.88-4.16c.61-1.4,1.21-2.81,1.79-4.24s1.15-2.86,1.7-4.32c.55-1.45,1.09-2.92,1.61-4.39.52-1.48,1.03-2.97,1.53-4.47.49-1.5.97-3.02,1.44-4.55.46-1.53.91-3.07,1.35-4.62.44-1.55.86-3.12,1.26-4.69.41-1.58.8-3.16,1.17-4.76s.74-3.21,1.09-4.83c.35-1.62.68-3.26,1-4.9.32-1.64.62-3.3.91-4.97s.56-3.34.83-5.03c.26-1.69.51-3.39.74-5.1.23-1.71.45-3.43.65-5.16.2-1.73.39-3.47.56-5.22.17-1.75.33-3.51.48-5.28.14-1.77.27-3.55.39-5.34.12-1.79.22-3.59.3-5.39.09-1.81.16-3.62.22-5.45.06-1.82.1-3.66.13-5.5.03-1.84.04-3.69.04-5.55,0-1.86-.01-3.73-.04-5.6-.03-1.87-.07-3.76-.13-5.65-.06-1.89-.13-3.79-.22-5.69-.09-1.91-.19-3.82-.3-5.74-.11-1.92-.24-3.85-.39-5.78-.14-1.93-.3-3.87-.47-5.82-.17-1.95-.36-3.9-.56-5.86-.2-1.96-.42-3.92-.64-5.89-.23-1.97-.47-3.94-.73-5.91-.26-1.97-.53-3.94-.82-5.91s-.59-3.96-.9-5.94c-.31-1.99-.64-3.97-.99-5.97s-.7-3.99-1.07-5.99-.76-4-1.16-6.01c-.4-2.01-.81-4.02-1.24-6.03s-.87-4.03-1.33-6.05c-.46-2.02-.93-4.04-1.41-6.06Z" fill="#fff"/><path d="M610.4,728.77c-.28-1.09-.41-2.2-.38-3.38.03-1.18.23-2.42.61-3.79.37-1.36.93-2.85,1.67-4.5.7-1.5,1.4-2.99,2.08-4.49.68-1.49,1.36-2.99,2.02-4.48.66-1.49,1.31-2.98,1.94-4.47.63-1.49,1.26-2.97,1.86-4.46.6-1.48,1.19-2.97,1.77-4.45.57-1.48,1.12-2.96,1.66-4.44.53-1.48,1.05-2.96,1.54-4.43s.96-2.95,1.41-4.42.87-2.94,1.27-4.41c.3-.97.6-1.96.9-2.98.29-1.02.58-2.05.86-3.11s.56-2.14.83-3.25.54-2.23.8-3.37c.26-1.15.52-2.31.77-3.5.25-1.19.5-2.39.74-3.62.24-1.23.48-2.47.71-3.74s.46-2.55.68-3.86c.22-1.31.44-2.63.65-3.97.21-1.34.42-2.7.62-4.08.2-1.38.4-2.78.59-4.19.19-1.41.38-2.85.56-4.29.18-1.45.36-2.91.53-4.39.17-1.48.34-2.98.5-4.49.16-1.51.32-3.04.47-4.59.15-1.54.3-3.1.44-4.68.14-1.57.28-3.16.41-4.77.13-1.6.26-3.22.39-4.85.12-1.63.24-3.28.36-4.93.12-1.66.23-3.33.33-5.01s.21-3.38.3-5.09c.1-1.71.19-3.43.28-5.16.09-1.73.17-3.48.25-5.23.08-1.75.15-3.52.22-5.29.07-1.78.14-3.56.2-5.36.06-1.8.12-3.6.17-5.42.05-1.81.1-3.64.14-5.47.04-1.83.08-3.67.12-5.52.04-1.85.07-3.71.09-5.57s.05-3.74.07-5.61c.02-1.88.03-3.75.04-5.66s.02-3.81.02-5.72c0-1.91,0-3.83,0-5.75,0-1.92-.02-3.85-.03-5.78-.01-1.93-.03-3.87-.06-5.81-.02-1.94-.05-3.88-.08-5.83-.03-1.95-.06-3.9-.1-5.85-.04-1.95-.08-3.9-.13-5.86-.05-1.95-.1-3.91-.15-5.87-.05-1.96-.11-3.92-.17-5.87-.06-1.96-.13-3.92-.2-5.87s-.14-3.91-.22-5.87c-.08-1.96-.16-3.91-.24-5.86-.08-1.95-.17-3.9-.26-5.85-.09-1.95-.19-3.89-.28-5.83-.1-1.94-.2-3.88-.31-5.81-.11-1.93-.21-3.86-.33-5.79-.11-1.92-.23-3.84-.35-5.75-.12-1.91-.24-3.82-.37-5.72-.13-1.9-.26-3.79-.39-5.68-.13-1.89-.27-3.77-.41-5.64-.14-1.87-.28-3.73-.43-5.59s-.3-3.7-.45-5.53c-.15-1.84-.31-3.66-.47-5.48s-.32-3.62-.49-5.41c-.17-1.79-.34-3.58-.51-5.35-.17-1.77-.35-3.53-.53-5.27-.18-1.75-.36-3.48-.55-5.2s-.37-3.42-.56-5.11c-.19-1.69-.39-3.37-.58-5.03s-.4-3.31-.6-4.94-.41-3.24-.62-4.84c-.21-1.6-.42-3.18-.64-4.74-.22-1.56-.43-3.11-.65-4.63-.22-1.53-.44-3.03-.67-4.52-.23-1.49-.46-2.96-.69-4.4s-.47-2.88-.7-4.28-.48-2.79-.72-4.16c-.24-1.36-.49-2.71-.74-4.03-.25-1.32-.5-2.62-.75-3.89-.25-1.27-.51-2.53-.77-3.75-.26-1.23-.52-2.43-.78-3.61-.58-2.61-1.2-5.15-1.85-7.62-.65-2.47-1.33-4.87-2.03-7.21-.7-2.33-1.43-4.6-2.18-6.8-.75-2.2-1.52-4.34-2.3-6.41-.78-2.07-1.58-4.07-2.39-6.02s-1.63-3.82-2.46-5.64c-.83-1.82-1.66-3.57-2.49-5.26-.83-1.69-1.66-3.33-2.49-4.9-.83-1.58-1.65-3.09-2.46-4.55-.81-1.46-1.61-2.86-2.4-4.21-.79-1.35-1.56-2.65-2.32-3.89-.75-1.24-1.49-2.43-2.2-3.57s-1.4-2.23-2.05-3.27c-.66-1.04-1.28-2.04-1.87-2.98-.59-.95-1.15-1.85-1.67-2.71-.52-.86-1-1.67-1.43-2.44s-.82-1.5-1.17-2.19c-.34-.69-.63-1.34-.87-1.96-.24-.61-.42-1.19-.54-1.73-.21-.9-.32-1.81-.33-2.72s.06-1.83.23-2.75.42-1.84.76-2.77c.34-.92.76-1.85,1.26-2.78.5-.93,1.09-1.86,1.74-2.79.66-.93,1.39-1.86,2.2-2.8.81-.93,1.68-1.86,2.63-2.79s1.96-1.86,3.03-2.79c1.08-.93,2.21-1.85,3.41-2.77,1.2-.92,2.45-1.84,3.77-2.76s2.68-1.82,4.09-2.73c1.42-.9,2.88-1.8,4.4-2.69,1.51-.89,3.07-1.78,4.67-2.65,1.6-.88,3.24-1.74,4.92-2.6,1.68-.86,3.4-1.7,5.15-2.54s3.53-1.66,5.35-2.46c1.81-.81,3.65-1.6,5.52-2.38,1.87-.78,3.76-1.54,5.67-2.29s3.84-1.47,5.79-2.18,3.91-1.39,5.89-2.06c1.98-.66,3.97-1.31,5.96-1.92,2-.62,4-1.21,6.01-1.78,2.17-.62,4.34-1.21,6.5-1.77s4.33-1.08,6.48-1.57c2.15-.49,4.3-.94,6.43-1.36s4.25-.8,6.35-1.15c2.1-.35,4.19-.66,6.25-.93,2.06-.27,4.1-.51,6.12-.71,2.01-.2,4-.36,5.96-.49s3.88-.21,5.78-.26c1.89-.05,3.75-.06,5.56-.03s3.59.09,5.33.2,3.42.25,5.06.43,3.23.41,4.77.67,3.02.57,4.45.91c1.43.34,2.8.73,4.1,1.15s2.55.89,3.73,1.39c1.18.51,2.29,1.05,3.33,1.64s2.01,1.22,2.9,1.89c.89.67,1.71,1.38,2.45,2.14.74.76,1.4,1.55,1.97,2.39.57.84,1.06,1.72,1.46,2.65.4.93.71,1.9.93,2.91.21.99.34,1.99.37,3.06.04,1.06-.02,2.17-.17,3.37-.15,1.19-.4,2.47-.75,3.85-.35,1.38-.8,2.87-1.35,4.49-.57,1.61-1.14,3.22-1.7,4.82-.56,1.6-1.12,3.2-1.66,4.8-.55,1.6-1.09,3.19-1.62,4.79-.53,1.59-1.05,3.18-1.57,4.77-.51,1.58-1.02,3.17-1.51,4.74-.49,1.58-.97,3.15-1.44,4.72-.47,1.57-.93,3.13-1.37,4.69-.45,1.56-.88,3.12-1.3,4.67-.42,1.55-.82,3.1-1.21,4.64-.39,1.54-.77,3.08-1.13,4.6-.36,1.53-.7,3.05-1.03,4.57-.27,1.24-.54,2.49-.8,3.77-.26,1.27-.52,2.56-.78,3.87-.26,1.31-.51,2.63-.76,3.96s-.5,2.69-.74,4.06-.48,2.75-.72,4.15-.47,2.81-.7,4.23-.46,2.86-.68,4.32-.44,2.92-.66,4.4c-.22,1.48-.43,2.97-.64,4.48-.21,1.5-.42,3.02-.62,4.55-.2,1.53-.4,3.07-.6,4.62-.2,1.55-.39,3.12-.57,4.69-.19,1.58-.37,3.16-.55,4.76-.18,1.6-.36,3.2-.53,4.82s-.34,3.25-.51,4.88-.33,3.28-.49,4.94c-.16,1.66-.31,3.32-.47,4.99-.15,1.67-.3,3.36-.44,5.05-.14,1.69-.28,3.39-.42,5.09-.14,1.71-.27,3.42-.4,5.14-.13,1.72-.25,3.45-.37,5.18s-.24,3.48-.35,5.22c-.11,1.75-.22,3.5-.33,5.26-.11,1.76-.21,3.53-.3,5.3s-.19,3.55-.28,5.33c-.09,1.78-.18,3.57-.26,5.36-.08,1.79-.16,3.59-.23,5.38-.07,1.8-.14,3.6-.21,5.41s-.13,3.62-.19,5.43-.11,3.63-.16,5.45c-.05,1.82-.1,3.64-.14,5.46s-.08,3.65-.11,5.48c-.03,1.83-.06,3.66-.09,5.49s-.05,3.66-.06,5.5c-.02,1.83-.03,3.67-.04,5.5,0,1.84-.01,3.67-.01,5.51s0,3.67.01,5.51c0,1.84.02,3.67.04,5.51s.04,3.67.07,5.5c.03,1.83.06,3.67.09,5.5s.07,3.66.12,5.49c.04,1.83.09,3.65.14,5.48s.11,3.65.17,5.46.13,3.64.2,5.45c.07,1.81.14,3.62.22,5.43.08,1.81.16,3.61.25,5.41.09,1.8.18,3.6.28,5.39.1,1.79.2,3.58.31,5.37.11,1.78.22,3.56.33,5.34s.24,3.55.36,5.31c.12,1.77.25,3.52.39,5.28.13,1.75.27,3.5.42,5.25.14,1.74.29,3.48.44,5.21.15,1.73.31,3.46.47,5.17.16,1.72.33,3.43.5,5.13.17,1.7.35,3.4.53,5.09.18,1.69.37,3.37.56,5.05.19,1.68.39,3.17.59,4.7.2,1.53.41,3.04.62,4.55s.43,3.01.65,4.5.45,2.97.68,4.45c.23,1.47.47,2.94.71,4.39.24,1.45.49,2.9.74,4.33.25,1.43.51,2.86.77,4.27.26,1.41.53,2.82.8,4.21s.55,2.78.83,4.15c.28,1.37.57,2.73.86,4.08s.59,2.69.89,4.02c.3,1.33.61,2.64.92,3.95s.63,2.6.95,3.87c.32,1.28.65,2.55.98,3.8.59,2.23,1.2,4.41,1.82,6.56.62,2.15,1.27,4.25,1.93,6.31.66,2.06,1.34,4.08,2.03,6.06.7,1.97,1.41,3.91,2.14,5.79s1.48,3.72,2.25,5.51,1.55,3.53,2.35,5.22c.8,1.69,1.62,3.33,2.46,4.92.84,1.59,1.69,3.13,2.57,4.61s1.77,2.91,2.68,4.29c.91,1.37,1.84,2.69,2.79,3.95.95,1.26,1.91,2.47,2.89,3.61.98,1.15,1.98,2.23,3,3.26s2.06,1.99,3.11,2.89c1.06.9,2.13,1.74,3.22,2.51,1.09.77,2.2,1.48,3.33,2.13,1.13.64,2.28,1.22,3.44,1.72,1.17.51,2.35.94,3.55,1.31,1.2.37,2.43.66,3.67.89,1.24.22,2.5.37,3.78.45,1.28.07,2.57.07,3.89,0s2.65-.24,4-.47c1.35-.24,2.72-.56,4.11-.96,1.57-.45,3.09-.96,4.57-1.51,1.48-.56,2.92-1.16,4.31-1.82,1.4-.66,2.75-1.36,4.07-2.11,1.32-.75,2.59-1.55,3.83-2.39,1.24-.84,2.44-1.73,3.61-2.65,1.17-.93,2.3-1.9,3.39-2.9,1.1-1.01,2.16-2.06,3.19-3.14,1.03-1.09,2.03-2.21,3-3.37.97-1.16,1.91-2.35,2.81-3.58.91-1.23,1.79-2.49,2.64-3.78.85-1.29,1.68-2.62,2.48-3.97.8-1.35,1.57-2.74,2.32-4.14.75-1.41,1.48-2.85,2.18-4.31.7-1.46,1.39-2.95,2.05-4.46.66-1.51,1.3-3.04,1.93-4.6s1.23-3.13,1.81-4.72c.59-1.59,1.16-3.21,1.71-4.84.55-1.63,1.09-3.28,1.62-4.94s1.04-3.34,1.54-5.03.99-3.39,1.47-5.1c.48-1.71.95-3.44,1.41-5.17.46-1.73.91-3.47,1.35-5.22s.88-3.51,1.31-5.27c.43-1.74.87-3.49,1.32-5.25s.91-3.53,1.37-5.3c.47-1.77.94-3.55,1.42-5.32.48-1.77.97-3.54,1.48-5.31.5-1.77,1.01-3.52,1.53-5.27.52-1.75,1.05-3.48,1.59-5.2.54-1.72,1.09-3.42,1.65-5.11s1.14-3.35,1.72-4.98,1.18-3.25,1.79-4.83c.61-1.58,1.26-3.18,1.86-4.68.65-1.63,1.28-3.28,1.93-4.86s1.33-3.1,2.01-4.57c.68-1.47,1.38-2.89,2.09-4.25s1.44-2.66,2.17-3.9c.74-1.24,1.49-2.41,2.26-3.52s1.55-2.14,2.35-3.11c.8-.96,1.61-1.85,2.44-2.66s1.67-1.54,2.54-2.19c.86-.65,1.74-1.21,2.63-1.69,1.16-.62,2.31-1.1,3.46-1.46,1.15-.36,2.28-.6,3.41-.72s2.25-.12,3.37,0c1.11.11,2.22.34,3.31.68,1.09.34,2.18.78,3.25,1.33,1.07.55,2.13,1.2,3.18,1.95,1.05.75,2.09,1.6,3.11,2.54s2.04,1.98,3.03,3.11c1,1.13,1.98,2.34,2.95,3.64s1.91,2.71,2.86,4.15c.91,1.39,1.86,2.87,2.76,4.43s1.79,3.2,2.66,4.92c.87,1.72,1.72,3.52,2.55,5.39s1.64,3.82,2.44,5.84c.79,2.02,1.56,4.11,2.32,6.27s1.48,4.39,2.19,6.68,1.39,4.65,2.06,7.06c.4,1.45.77,2.89,1.12,4.31.35,1.43.68,2.84.98,4.24.3,1.4.59,2.79.84,4.17.26,1.38.49,2.75.7,4.11.21,1.36.4,2.71.56,4.05.16,1.34.3,2.67.42,3.99.11,1.32.21,2.63.27,3.93.07,1.3.11,2.59.13,3.87.02,1.28.01,2.55-.02,3.81-.03,1.26-.09,2.51-.17,3.76-.08,1.24-.19,2.48-.32,3.7-.13,1.22-.29,2.44-.47,3.65-.18,1.21-.39,2.41-.62,3.6s-.49,2.37-.77,3.55c-.28,1.17-.59,2.34-.92,3.5-.33,1.16-.69,2.31-1.08,3.45s-.79,2.27-1.23,3.4c-.44,1.13-.9,2.24-1.39,3.35-.49,1.11-1,2.21-1.54,3.31-.54,1.09-1.11,2.18-1.7,3.26-.59,1.08-1.21,2.15-1.86,3.22-.65,1.06-1.32,2.12-2.02,3.17-.7,1.05-1.43,2.09-2.18,3.13-.75,1.04-1.53,2.06-2.34,3.09-.81,1.02-1.64,2.04-2.51,3.04-.86,1.01-1.75,2.01-2.67,3-.92.99-1.86,1.98-2.83,2.96-.97.98-1.97,1.95-3,2.92s-2.08,1.93-3.17,2.88c-1.08.95-2.2,1.9-3.34,2.84s-2.31,1.88-3.51,2.8c-1.2.93-2.42,1.85-3.68,2.77-1.25.92-2.54,1.82-3.85,2.73-1.31.9-2.65,1.8-4.02,2.69-1.37.89-2.77,1.77-4.19,2.65-1.43.88-2.88,1.75-4.37,2.61-1.48.87-3,1.72-4.54,2.58-1.54.85-3.12,1.7-4.72,2.54s-3.23,1.68-4.9,2.51c-1.66.83-3.35,1.65-5.07,2.47s-3.47,1.63-5.25,2.43c-1.78.81-3.59,1.6-5.43,2.4-1.84.79-3.71,1.58-5.61,2.36-1.9.78-3.83,1.56-5.8,2.33s-3.96,1.54-5.98,2.3c-2.02.76-4.08,1.51-6.16,2.26-2.09.75-4.2,1.49-6.35,2.23-2.15.74-4.33,1.47-6.54,2.2s-4.45,1.45-6.72,2.17c-2.27.72-4.58,1.43-6.91,2.13-2.34.71-4.7,1.41-7.1,2.11-2.4.7-4.83,1.39-7.29,2.08-2.46.69-4.96,1.37-7.48,2.05s-5.09,1.35-7.68,2.03c-2.59.67-5.22,1.34-7.87,2-2.04.51-4.09,1.02-6.15,1.52-2.06.5-4.14,1-6.22,1.5-2.08.5-4.17.99-6.27,1.48-2.1.49-4.2.97-6.31,1.44-2.11.48-4.22.95-6.34,1.41-2.12.46-4.24.92-6.36,1.37-2.12.45-4.24.89-6.36,1.32-2.12.43-4.24.86-6.36,1.27-2.12.42-4.23.82-6.34,1.22-2.11.4-4.21.79-6.3,1.16-2.09.38-4.18.74-6.26,1.1-2.08.36-4.15.7-6.2,1.03s-4.1.65-6.13.96c-2.03.31-4.05.61-6.05.89-2,.28-3.99.55-5.96.81-1.97.26-3.92.5-5.85.73s-3.84.44-5.73.64c-1.89.2-3.76.38-5.6.55-1.84.17-3.66.32-5.46.45s-3.56.13-5.3.11-3.45-.05-5.14-.1-3.34-.12-4.96-.2c-1.62-.08-3.21-.18-4.76-.3-1.55-.12-3.08-.25-4.56-.41s-2.93-.33-4.34-.52-2.78-.41-4.11-.64c-1.33-.23-2.62-.49-3.87-.76-1.25-.28-2.46-.57-3.62-.89-1.16-.32-2.28-.66-3.35-1.02-1.07-.36-2.1-.75-3.08-1.16-.98-.41-1.91-.84-2.79-1.3-.88-.46-1.71-.94-2.48-1.45-.78-.51-1.5-1.04-2.17-1.6s-1.28-1.15-1.84-1.76-1.06-1.25-1.5-1.92-.83-1.36-1.15-2.08-.59-1.47-.79-2.25Z" fill="#fff"/></g></svg>