<svg width="94" height="60" viewBox="0 0 94 60" fill="none" xmlns="http://www.w3.org/2000/svg">
<path d="M32.5065 43.4038C32.4095 43.4117 32.3124 43.4196 32.2231 43.4235C32.1339 43.4275 32.0446 43.4235 31.9631 43.4235C31.8815 43.4235 31.8039 43.4156 31.7302 43.4077C31.6564 43.3998 31.5865 43.3879 31.5244 43.3761C31.4584 43.3642 31.4002 43.3484 31.342 43.3286C31.2837 43.3088 31.2333 43.2891 31.1867 43.2653C31.1401 43.2416 31.0974 43.2139 31.0586 43.1862C31.0198 43.1585 30.9887 43.1269 30.9577 43.0913C30.9266 43.0557 30.9033 43.0201 30.8839 42.9806C30.8645 42.941 30.849 42.8975 30.8373 42.854C30.8296 42.8184 30.8257 42.7789 30.8218 42.7393C30.8179 42.6998 30.8218 42.6523 30.8218 42.6009C30.8218 42.5534 30.8296 42.502 30.8373 42.4466C30.8451 42.3913 30.8529 42.3359 30.8645 42.2766C30.8761 42.2172 30.8878 42.154 30.9033 42.0907C30.9188 42.0274 30.9344 41.9602 30.9499 41.8929C30.9654 41.8257 30.981 41.7584 31.0004 41.6873C31.0198 41.6161 31.0353 41.5488 31.0547 41.4776C31.0741 41.4064 31.0896 41.3353 31.1091 41.2641C31.1285 41.1929 31.144 41.1217 31.1634 41.0505C31.1789 40.9793 31.1983 40.9081 31.2139 40.8369C31.2294 40.7657 31.2449 40.6985 31.2604 40.6313C31.276 40.564 31.2876 40.4968 31.2993 40.4335C31.307 40.386 31.3148 40.3425 31.3226 40.2951C31.3303 40.2476 31.3381 40.2001 31.3458 40.1487C31.3536 40.0973 31.3614 40.0499 31.3691 39.9984C31.3769 39.947 31.3847 39.8956 31.3885 39.8442C31.3963 39.7928 31.4041 39.7374 31.408 39.686C31.4157 39.6306 31.4196 39.5752 31.4274 39.5199C31.4312 39.4645 31.439 39.4091 31.4429 39.3498C31.4468 39.2905 31.4545 39.2351 31.4584 39.1758C31.4623 39.1165 31.4701 39.0571 31.474 38.9978C31.4778 38.9385 31.4817 38.8752 31.4895 38.8159C31.4972 38.7565 31.4972 38.6933 31.5011 38.63C31.505 38.5667 31.5089 38.5034 31.5128 38.4401C31.5167 38.3769 31.5205 38.3136 31.5244 38.2463C31.5283 38.1791 31.5322 38.1158 31.5322 38.0486C31.5322 37.9813 31.5361 37.9141 31.5399 37.8469C31.5438 37.7796 31.5438 37.7124 31.5477 37.6452C31.5477 37.5779 31.5516 37.5067 31.5555 37.4395C31.5594 37.3723 31.5594 37.3011 31.5594 37.2299C31.5594 37.1587 31.5594 37.0915 31.5632 37.0203C31.5671 36.9491 31.5632 36.8779 31.5632 36.8067C31.5632 36.7355 31.5632 36.6643 31.5632 36.5892C31.5632 36.514 31.5632 36.4428 31.5632 36.3716V36.1501C31.5632 36.075 31.5632 36.0038 31.5632 35.9287C31.5632 35.8535 31.5632 35.7784 31.5632 35.7032C31.5632 35.6281 31.5632 35.5529 31.5632 35.4778C31.5632 35.4026 31.5632 35.3275 31.5632 35.2523C31.5632 35.1772 31.5632 35.102 31.5594 35.0269C31.5555 34.9518 31.5594 34.8766 31.5555 34.7975C31.5516 34.7184 31.5516 34.6472 31.5477 34.5681C31.5477 34.493 31.5438 34.4139 31.5399 34.3387C31.5361 34.2636 31.5361 34.1845 31.5322 34.1093C31.5322 34.0342 31.5283 33.9551 31.5244 33.8799C31.5205 33.8048 31.5167 33.7257 31.5128 33.6505C31.5089 33.5754 31.505 33.4963 31.5011 33.4211C31.4972 33.346 31.4934 33.2669 31.4895 33.1917C31.4856 33.1166 31.4817 33.0375 31.4778 32.9624C31.474 32.8872 31.4701 32.8121 31.4662 32.733C31.4623 32.6578 31.4584 32.5827 31.4507 32.5036C31.4468 32.4284 31.4429 32.3533 31.4351 32.2781C31.4313 32.203 31.4235 32.1278 31.4196 32.0527C31.4157 31.9775 31.408 31.9024 31.4041 31.8272C31.4002 31.7521 31.3924 31.677 31.3885 31.6018C31.3847 31.5267 31.3769 31.4555 31.3691 31.3803C31.3614 31.3052 31.3575 31.234 31.3497 31.1588C31.342 31.0876 31.3381 31.0125 31.3303 30.9413C31.3226 30.8701 31.3148 30.795 31.3109 30.7238C31.307 30.6526 31.2954 30.5814 31.2876 30.5102C31.2799 30.439 31.2721 30.3678 31.2643 30.2966C31.2566 30.2254 31.2488 30.1582 31.241 30.087C31.2333 30.0158 31.2255 29.9486 31.2177 29.8813C31.21 29.8141 31.2022 29.7429 31.1945 29.6757C31.1867 29.6084 31.1789 29.5412 31.1712 29.474C31.1634 29.4067 31.1556 29.3395 31.1479 29.2762C31.1401 29.2129 31.1323 29.1536 31.1207 29.0943C31.1129 29.035 31.1052 28.9756 31.0935 28.9163C31.0858 28.857 31.0741 28.8016 31.0664 28.7423C31.0586 28.683 31.0469 28.6276 31.0392 28.5722C31.0314 28.5168 31.0198 28.4615 31.012 28.4061C31.0042 28.3507 30.9926 28.2954 30.981 28.24C30.9693 28.1846 30.9615 28.1332 30.9499 28.0778C30.9383 28.0264 30.9305 27.971 30.9188 27.9196C30.9072 27.8682 30.8994 27.8168 30.8878 27.7654C30.8761 27.714 30.8684 27.6665 30.8567 27.6151C30.8451 27.5637 30.8334 27.5162 30.8257 27.4687C30.814 27.4213 30.8024 27.3738 30.7946 27.3264C30.7869 27.2789 30.7713 27.2354 30.7636 27.1879C30.7519 27.1444 30.7403 27.097 30.7286 27.0535C30.717 27.01 30.7053 26.9665 30.6937 26.9269C30.6626 26.8122 30.6277 26.7015 30.5967 26.5947C30.5656 26.4879 30.5268 26.389 30.4918 26.2941C30.4569 26.1992 30.4181 26.1082 30.3832 26.0212C30.3443 25.9342 30.3094 25.8551 30.2706 25.776C30.2318 25.6969 30.1929 25.6257 30.1541 25.5545C30.1153 25.4833 30.0765 25.42 30.0377 25.3567C29.9989 25.2935 29.96 25.2341 29.9212 25.1788C29.8824 25.1234 29.8475 25.072 29.8086 25.0206C29.7698 24.9691 29.7349 24.9217 29.7 24.8782C29.665 24.8347 29.6301 24.7912 29.599 24.7516C29.568 24.7121 29.5369 24.6725 29.5059 24.6369C29.4748 24.6013 29.4476 24.5657 29.4205 24.5341C29.3933 24.5024 29.37 24.4708 29.3467 24.4392C29.3234 24.4075 29.304 24.3798 29.2846 24.3521C29.2652 24.3245 29.2535 24.2968 29.238 24.2691C29.2225 24.2414 29.2147 24.2137 29.207 24.19C29.1992 24.1663 29.1953 24.1386 29.1953 24.1109C29.1953 24.0832 29.1953 24.0555 29.1953 24.0278C29.1953 24.0001 29.2031 23.9685 29.2108 23.9369C29.2186 23.9052 29.2302 23.8736 29.2419 23.8419C29.2535 23.8103 29.2691 23.7747 29.2885 23.7391C29.3079 23.7035 29.3273 23.6679 29.3506 23.6323C29.3739 23.5967 29.401 23.5572 29.4282 23.5176C29.4593 23.4781 29.4903 23.4385 29.5253 23.399C29.5602 23.3594 29.599 23.3159 29.6378 23.2764C29.6767 23.2368 29.7232 23.1933 29.7698 23.1458C29.8164 23.0984 29.8669 23.0588 29.9173 23.0114C29.9678 22.9679 30.026 22.9204 30.0843 22.8729C30.1425 22.8255 30.2046 22.778 30.2706 22.7306C30.3366 22.6831 30.4026 22.6317 30.4724 22.5842C30.5423 22.5368 30.6161 22.4854 30.6937 22.4339C30.7713 22.3825 30.8529 22.3311 30.9344 22.2797C31.0159 22.2283 31.1052 22.1769 31.1983 22.1215C31.2876 22.0701 31.3847 22.0147 31.4817 21.9633C31.5788 21.9119 31.6797 21.8565 31.7845 21.8011C31.835 21.7734 31.8854 21.7497 31.9398 21.722C31.9941 21.6943 32.0446 21.6706 32.095 21.6429C32.1494 21.6192 32.1999 21.5915 32.2542 21.5678C32.3085 21.544 32.3629 21.5164 32.4134 21.4926C32.4638 21.4689 32.522 21.4452 32.5764 21.4214C32.6307 21.3977 32.6851 21.374 32.7433 21.3502C32.8015 21.3265 32.8559 21.3028 32.9102 21.2791C32.9646 21.2553 33.0228 21.2316 33.081 21.2118C33.1393 21.1881 33.1936 21.1683 33.2518 21.1446C33.3101 21.1208 33.3683 21.1011 33.4265 21.0773C33.4847 21.0576 33.543 21.0338 33.6012 21.0141C33.6594 20.9943 33.7177 20.9706 33.7798 20.9508C33.838 20.931 33.9001 20.9112 33.9583 20.8875C34.0204 20.8677 34.0787 20.8479 34.1408 20.8282C34.2029 20.8084 34.2611 20.7886 34.3232 20.7688C34.3853 20.7491 34.4436 20.7293 34.5057 20.7095C34.5678 20.6897 34.6299 20.67 34.692 20.6542C34.7541 20.6383 34.8162 20.6186 34.8783 20.5988C34.9404 20.579 35.0025 20.5632 35.0685 20.5434C35.1306 20.5236 35.1927 20.5078 35.2587 20.492C35.3247 20.4762 35.3868 20.4564 35.449 20.4406C35.5111 20.4248 35.5771 20.405 35.6392 20.3892C35.7013 20.3733 35.7673 20.3575 35.8333 20.3377C35.8992 20.318 35.9614 20.3061 36.0273 20.2903C36.1011 20.2705 36.171 20.2547 36.2447 20.2389C36.3185 20.223 36.3884 20.2072 36.4582 20.1914C36.5281 20.1756 36.6019 20.1598 36.6717 20.1439C36.7416 20.1281 36.8154 20.1163 36.8852 20.1004C36.9551 20.0846 37.025 20.0728 37.0987 20.0609C37.1686 20.049 37.2385 20.0372 37.3083 20.0253C37.3782 20.0134 37.4481 20.0016 37.518 19.9897C37.5878 19.9778 37.6577 19.9699 37.7276 19.9581C37.7975 19.9501 37.8673 19.9383 37.9333 19.9304C38.0032 19.9225 38.0692 19.9146 38.1391 19.9066C38.2089 19.8987 38.2749 19.8908 38.3448 19.8869C38.4147 19.8829 38.4807 19.875 38.5467 19.8671C38.6126 19.8592 38.6825 19.8552 38.7485 19.8513C38.8145 19.8473 38.8844 19.8434 38.9504 19.8394C39.0164 19.8354 39.0823 19.8315 39.1483 19.8315C39.2143 19.8315 39.2803 19.8275 39.3463 19.8236C39.4123 19.8196 39.4783 19.8236 39.5443 19.8196C39.6103 19.8157 39.6763 19.8196 39.7384 19.8196C39.8005 19.8196 39.8665 19.8196 39.9325 19.8196C39.9946 19.8196 40.0606 19.8196 40.1227 19.8236C40.1848 19.8236 40.2508 19.8275 40.3129 19.8315C40.375 19.8315 40.4371 19.8394 40.5031 19.8434C40.5691 19.8473 40.6273 19.8513 40.6894 19.8592C40.7515 19.8671 40.8136 19.879 40.8758 19.8869C40.9379 19.8948 41 19.9066 41.0582 19.9185C41.1164 19.9304 41.1785 19.9422 41.2407 19.9541C41.3028 19.966 41.361 19.9778 41.4192 19.9897C41.4774 20.0016 41.5396 20.0174 41.5978 20.0292C41.656 20.0411 41.7142 20.0569 41.7763 20.0728C41.8385 20.0886 41.8928 20.1044 41.951 20.1202C42.0093 20.136 42.0675 20.1519 42.1257 20.1677C42.1839 20.1835 42.2422 20.2033 42.2965 20.2191C42.3509 20.2349 42.4091 20.2547 42.4673 20.2745C42.5255 20.2942 42.5799 20.314 42.6342 20.3338C42.6886 20.3536 42.7468 20.3733 42.8011 20.3971C42.8555 20.4168 42.9098 20.4406 42.9642 20.4643C43.0185 20.488 43.0729 20.5078 43.1272 20.5355C43.1816 20.5592 43.2359 20.583 43.2864 20.6067C43.3368 20.6304 43.3912 20.6581 43.4455 20.6818C43.4999 20.7056 43.5503 20.7333 43.6008 20.7609C43.6513 20.7886 43.7056 20.8163 43.7561 20.844C43.8065 20.8717 43.857 20.8994 43.9075 20.931C43.9579 20.9626 44.0084 20.9903 44.0589 21.022C44.1093 21.0536 44.1559 21.0853 44.2064 21.1169C44.2568 21.1485 44.3034 21.1802 44.3539 21.2158C44.4005 21.2474 44.4509 21.283 44.4975 21.3146C44.5441 21.3502 44.5907 21.3819 44.6373 21.4175C44.6838 21.4531 44.7304 21.4887 44.777 21.5243C44.8236 21.5599 44.8702 21.5994 44.9129 21.635C44.9594 21.6746 45.0021 21.7102 45.0487 21.7497C45.0914 21.7893 45.138 21.8288 45.1807 21.8684C45.2234 21.9079 45.2661 21.9475 45.3088 21.991C45.3515 22.0305 45.3942 22.074 45.4369 22.1175C45.4796 22.161 45.5223 22.2045 45.5611 22.248C45.6038 22.2916 45.6427 22.3351 45.6854 22.3825C45.7281 22.43 45.7669 22.4735 45.8057 22.5209C45.8445 22.5684 45.8833 22.6159 45.9221 22.6633C45.961 22.7108 45.9998 22.7583 46.0386 22.8097C46.0774 22.8571 46.1162 22.9085 46.1512 22.96C46.19 23.0114 46.2249 23.0588 46.2599 23.1142C46.2948 23.1656 46.3336 23.217 46.3686 23.2724C46.4035 23.3238 46.4384 23.3792 46.4734 23.4306C46.5083 23.486 46.5432 23.5374 46.5743 23.5928C46.6092 23.6481 46.6403 23.7035 46.6752 23.7589C46.7102 23.8143 46.7412 23.8736 46.7723 23.929C46.8033 23.9843 46.8344 24.0437 46.8654 24.103C46.8965 24.1623 46.9275 24.2216 46.9586 24.281C46.9896 24.3403 47.0168 24.4036 47.0479 24.4629C47.0789 24.5222 47.1061 24.5855 47.1333 24.6488C47.1604 24.7121 47.1876 24.7753 47.2148 24.8386C47.242 24.9019 47.2691 24.9652 47.2963 25.0324C47.3235 25.0957 47.3468 25.1629 47.374 25.2302C47.4011 25.2974 47.4244 25.3646 47.4477 25.4319C47.471 25.4991 47.4943 25.5664 47.5176 25.6375C47.5409 25.7048 47.5642 25.776 47.5875 25.8432C47.6107 25.9144 47.6302 25.9816 47.6534 26.0528C47.6767 26.124 47.6961 26.1952 47.7156 26.2664C47.735 26.3376 47.7544 26.4127 47.7738 26.4839C47.7932 26.5591 47.8126 26.6303 47.832 26.7054C47.8514 26.7806 47.8669 26.8557 47.8864 26.9309C47.9058 27.006 47.9213 27.0851 47.9368 27.1603C47.9523 27.2354 47.9679 27.3105 47.9834 27.3857C47.9989 27.4608 48.0145 27.536 48.0261 27.6111C48.0416 27.6863 48.0533 27.7614 48.0688 27.8326C48.0843 27.9038 48.096 27.979 48.1076 28.0541C48.1193 28.1292 48.1309 28.2004 48.1426 28.2716C48.1542 28.3428 48.1658 28.418 48.1736 28.4892C48.1853 28.5604 48.193 28.6315 48.2008 28.7067C48.2085 28.7818 48.2202 28.8491 48.228 28.9203C48.2357 28.9915 48.2435 29.0626 48.2512 29.1338C48.259 29.205 48.2629 29.2762 48.2707 29.3435C48.2784 29.4146 48.2823 29.4819 48.2862 29.5531C48.2901 29.6243 48.2939 29.6915 48.2978 29.7587C48.2978 29.826 48.3056 29.8972 48.3095 29.9644C48.3095 30.0316 48.3134 30.0989 48.3172 30.1661C48.3211 30.2333 48.3172 30.3006 48.3172 30.3678C48.3172 30.4351 48.3172 30.4983 48.3172 30.5656C48.3172 30.6328 48.3172 30.6961 48.3172 30.7633C48.3172 30.8306 48.3172 30.8938 48.3134 30.9571C48.3134 31.0204 48.3095 31.0837 48.3056 31.1509C48.3017 31.2182 48.2978 31.2775 48.2939 31.3408C48.2901 31.4041 48.2862 31.4673 48.2784 31.5306C48.2707 31.5939 48.2668 31.6572 48.2629 31.7165C48.259 31.7758 48.2512 31.8391 48.2435 31.9024C48.2357 31.9657 48.228 32.025 48.2202 32.0843C48.2124 32.1437 48.2047 32.2069 48.193 32.2663C48.1853 32.3256 48.1736 32.3849 48.1658 32.4442C48.1581 32.5036 48.1464 32.5629 48.1348 32.6222C48.1231 32.6815 48.1115 32.7409 48.0999 32.7962C48.0882 32.8516 48.0766 32.9109 48.061 32.9703C48.0455 33.0296 48.0339 33.085 48.0222 33.1403C48.0106 33.1957 47.995 33.255 47.9795 33.3104C47.964 33.3658 47.9485 33.4211 47.9329 33.4765C47.9174 33.5319 47.9019 33.5873 47.8864 33.6426C47.8708 33.698 47.8514 33.7534 47.8359 33.8087C47.8204 33.8641 47.801 33.9195 47.7815 33.9709C47.7621 34.0263 47.7427 34.0777 47.7233 34.1331C47.7039 34.1845 47.6845 34.2398 47.6651 34.2913C47.6457 34.3427 47.6224 34.398 47.603 34.4495C47.5836 34.5009 47.5603 34.5523 47.537 34.6077C47.5137 34.663 47.4904 34.7105 47.4671 34.7619C47.4438 34.8133 47.4205 34.8647 47.3972 34.9162C47.3739 34.9676 47.3507 35.019 47.3235 35.0665C47.3002 35.1179 47.273 35.1653 47.2459 35.2167C47.2187 35.2642 47.1954 35.3156 47.1682 35.3631C47.141 35.4105 47.1139 35.462 47.0867 35.5094C47.0595 35.5569 47.0323 35.6083 47.0013 35.6558C46.9702 35.7032 46.9431 35.7507 46.9159 35.7981C46.8848 35.8456 46.8577 35.8931 46.8266 35.9405C46.7956 35.988 46.7645 36.0354 46.7334 36.0829C46.7024 36.1304 46.6713 36.1739 46.6403 36.2213C46.6092 36.2688 46.5743 36.3123 46.5432 36.3598C46.5122 36.4072 46.4772 36.4507 46.4423 36.4982C46.4074 36.5417 46.3763 36.5892 46.3414 36.6327C46.3064 36.6762 46.2715 36.7236 46.2366 36.7671C46.2016 36.8106 46.1667 36.8542 46.1279 36.8977C46.0929 36.9412 46.0541 36.9847 46.0192 37.0282C45.9843 37.0717 45.9454 37.1152 45.9066 37.1587C45.8678 37.2022 45.829 37.2457 45.7902 37.2853C45.7513 37.3248 45.7125 37.3723 45.6737 37.4118C45.6349 37.4514 45.5961 37.4949 45.5534 37.5384C45.5107 37.5819 45.4719 37.6214 45.433 37.6649C45.3903 37.7045 45.3515 37.748 45.3088 37.7875C45.2661 37.8271 45.2234 37.8706 45.1807 37.9102C45.138 37.9497 45.0953 37.9932 45.0526 38.0328C45.0099 38.0723 44.9672 38.1119 44.9206 38.1514C44.8779 38.191 44.8313 38.2305 44.7848 38.2701C44.7382 38.3096 44.6955 38.3492 44.6489 38.3887C44.6023 38.4283 44.5557 38.4678 44.5092 38.5074C44.4626 38.5469 44.416 38.5865 44.3694 38.6221C44.3228 38.6577 44.2724 38.7012 44.2258 38.7368C44.1792 38.7724 44.1287 38.8119 44.0783 38.8515C44.0278 38.891 43.9812 38.9266 43.9308 38.9662C43.8803 39.0057 43.8298 39.0413 43.7794 39.0769C43.7289 39.1125 43.6784 39.152 43.628 39.1876C43.5775 39.2232 43.5271 39.2628 43.4727 39.2984C43.4222 39.334 43.3679 39.3696 43.3174 39.4091C43.267 39.4487 43.2126 39.4803 43.1583 39.5159C43.1039 39.5515 43.0496 39.5871 42.9991 39.6227C42.9448 39.6583 42.8904 39.6939 42.8361 39.7295C42.7817 39.7651 42.7274 39.8007 42.6692 39.8363C42.6109 39.8719 42.5566 39.9075 42.5022 39.9391C42.444 39.9747 42.3897 40.0063 42.3314 40.0419C42.2732 40.0775 42.215 40.1092 42.1606 40.1448C42.1024 40.1804 42.0442 40.212 41.986 40.2476C41.9277 40.2832 41.8695 40.3148 41.8113 40.3465C41.7531 40.3781 41.6909 40.4137 41.6327 40.4454C41.5745 40.477 41.5124 40.5126 41.4542 40.5442C41.3959 40.5759 41.3338 40.6075 41.2717 40.6431C41.2096 40.6787 41.1475 40.7064 41.0854 40.738C41.0233 40.7697 40.9612 40.8013 40.899 40.833C40.8369 40.8646 40.7748 40.8962 40.7088 40.9279C40.6467 40.9595 40.5807 40.9912 40.5186 41.0268C40.4565 41.0584 40.3905 41.094 40.3245 41.1256C40.2585 41.1573 40.1964 41.1889 40.1304 41.2206C40.0645 41.2522 39.9985 41.2838 39.9325 41.3155C39.8665 41.3471 39.8005 41.3788 39.7345 41.4104C39.6685 41.442 39.6025 41.4697 39.5326 41.5014C39.4667 41.533 39.3968 41.5607 39.3308 41.5923C39.2648 41.624 39.1949 41.6517 39.125 41.6793C39.0552 41.707 38.9892 41.7387 38.9193 41.7664C38.8494 41.794 38.7796 41.8217 38.7097 41.8494C38.6398 41.8771 38.5699 41.9048 38.5001 41.9325C38.4302 41.9602 38.3603 41.9878 38.2866 42.0116C38.2167 42.0393 38.1429 42.063 38.0731 42.0907C38.0032 42.1184 37.9294 42.1421 37.8557 42.1658C37.7819 42.1896 37.7121 42.2172 37.6383 42.241C37.5646 42.2647 37.4908 42.2884 37.417 42.3122C37.3433 42.3359 37.2695 42.3596 37.1958 42.3833C37.122 42.4071 37.0483 42.4308 36.9706 42.4506C36.893 42.4743 36.8154 42.4941 36.7416 42.5178C36.6678 42.5416 36.5902 42.5613 36.5165 42.5811C36.4427 42.6009 36.3651 42.6246 36.2913 42.6444C36.2176 42.6642 36.1438 42.6839 36.07 42.7037C35.9963 42.7235 35.9264 42.7433 35.8527 42.7591C35.7789 42.7789 35.709 42.7947 35.6392 42.8145C35.5693 42.8342 35.4994 42.85 35.4295 42.8659C35.3597 42.8817 35.2898 42.8975 35.2238 42.9133C35.1539 42.9292 35.0879 42.945 35.0219 42.9608C34.956 42.9766 34.89 42.9924 34.824 43.0043C34.758 43.0162 34.692 43.032 34.6299 43.0438C34.5678 43.0557 34.5018 43.0715 34.4397 43.0834C34.3776 43.0953 34.3155 43.1071 34.2533 43.119C34.1912 43.1309 34.1291 43.1427 34.0709 43.1546C34.0088 43.1665 33.9506 43.1744 33.8923 43.1862C33.8341 43.1981 33.7759 43.206 33.7177 43.2139C33.6594 43.2218 33.6051 43.2337 33.5469 43.2416C33.4886 43.2495 33.4343 43.2574 33.3799 43.2653C33.3256 43.2732 33.2712 43.2812 33.2208 43.2891C33.1703 43.297 33.116 43.3009 33.0655 43.3088C33.015 43.3167 32.9646 43.3207 32.9141 43.3247C32.8636 43.3286 32.8171 43.3365 32.7666 43.3405C32.7161 43.3444 32.6696 43.3484 32.6269 43.3523C32.5803 43.3523 32.5337 43.3603 32.491 43.3642L32.5065 43.4038ZM43.5038 27.449C43.4844 27.362 43.4649 27.2789 43.4417 27.1958C43.4222 27.1128 43.399 27.0297 43.3757 26.9467C43.3524 26.8636 43.3291 26.7806 43.3058 26.7015C43.2825 26.6224 43.2592 26.5393 43.2359 26.4602C43.2126 26.3811 43.1854 26.302 43.1622 26.2229C43.1389 26.1438 43.1117 26.0687 43.0845 25.9896C43.0573 25.9144 43.0302 25.8393 43.003 25.7641C42.9758 25.689 42.9487 25.6138 42.9176 25.5426C42.8904 25.4675 42.8594 25.3963 42.8322 25.3251C42.805 25.2539 42.774 25.1827 42.7429 25.1155C42.7119 25.0482 42.6808 24.9771 42.6498 24.9098C42.6187 24.8426 42.5876 24.7753 42.5527 24.7081C42.5217 24.6409 42.4867 24.5776 42.4557 24.5143C42.4207 24.451 42.3897 24.3877 42.3547 24.3245C42.3198 24.2612 42.2849 24.2019 42.2499 24.1425C42.215 24.0832 42.1801 24.0239 42.1451 23.9646C42.1102 23.9052 42.0714 23.8499 42.0364 23.7945C42.0015 23.7391 41.9627 23.6837 41.9239 23.6284C41.885 23.573 41.8501 23.5216 41.8113 23.4702C41.7725 23.4187 41.7336 23.3673 41.6948 23.3159C41.656 23.2645 41.6172 23.217 41.5745 23.1696C41.5318 23.1221 41.493 23.0747 41.4542 23.0272C41.4153 22.9797 41.3726 22.9362 41.3299 22.8927C41.2872 22.8492 41.2484 22.8057 41.2057 22.7662C41.163 22.7266 41.1203 22.6831 41.0776 22.6436C41.0349 22.604 40.9922 22.5645 40.9456 22.5289C40.9029 22.4933 40.8563 22.4537 40.8136 22.4221C40.7709 22.3865 40.7244 22.3548 40.6778 22.3192C40.6312 22.2876 40.5885 22.2599 40.5419 22.2322C40.4953 22.2045 40.4488 22.1808 40.4022 22.1531C40.3556 22.1294 40.309 22.1057 40.2624 22.0819C40.2158 22.0582 40.1654 22.0384 40.1188 22.0187C40.0722 21.9989 40.0218 21.9791 39.9752 21.9633C39.9247 21.9435 39.8781 21.9277 39.8277 21.9119C39.7772 21.896 39.7306 21.8802 39.6802 21.8684C39.6297 21.8565 39.5792 21.8446 39.5288 21.8328C39.4783 21.8209 39.4278 21.813 39.3774 21.8051C39.3269 21.7972 39.2764 21.7893 39.2221 21.7853C39.1677 21.7813 39.1173 21.7734 39.0668 21.7734C39.0164 21.7734 38.962 21.7695 38.9077 21.7695C38.8533 21.7695 38.8029 21.7695 38.7485 21.7695C38.6942 21.7695 38.6398 21.7734 38.5855 21.7774C38.5311 21.7813 38.4768 21.7853 38.4224 21.7932C38.3681 21.8011 38.3137 21.809 38.2594 21.8169C38.2051 21.8249 38.1468 21.8367 38.0925 21.8486C38.0343 21.8604 37.976 21.8763 37.9217 21.8881C37.8635 21.904 37.8091 21.9198 37.7548 21.9356C37.7004 21.9514 37.6461 21.9712 37.5956 21.991C37.5451 22.0107 37.4908 22.0305 37.4403 22.0542C37.3899 22.078 37.3394 22.0978 37.2889 22.1215C37.2385 22.1452 37.1919 22.1689 37.1453 22.1966C37.0987 22.2243 37.0521 22.248 37.0056 22.2757C36.959 22.3034 36.9163 22.3311 36.8697 22.3627C36.8231 22.3944 36.7804 22.4221 36.7377 22.4537C36.695 22.4854 36.6523 22.517 36.6135 22.5526C36.5708 22.5882 36.532 22.6198 36.4932 22.6554C36.4543 22.691 36.4155 22.7266 36.3767 22.7662C36.3379 22.8018 36.303 22.8413 36.2641 22.8809C36.2253 22.9204 36.1904 22.96 36.1554 22.9995C36.1205 23.0391 36.0856 23.0826 36.0545 23.1221C36.0235 23.1617 35.9885 23.2052 35.9575 23.2526C35.9264 23.2961 35.8954 23.3396 35.8643 23.3871C35.8333 23.4346 35.8022 23.4781 35.775 23.5255C35.744 23.573 35.7168 23.6205 35.6896 23.6679C35.6625 23.7154 35.6353 23.7668 35.6081 23.8143C35.5809 23.8657 35.5576 23.9131 35.5305 23.9646C35.5033 24.016 35.48 24.0674 35.4567 24.1188C35.4334 24.1702 35.4101 24.2256 35.3868 24.277C35.3635 24.3324 35.3441 24.3838 35.3208 24.4392C35.3014 24.4945 35.2781 24.5499 35.2587 24.6053C35.2393 24.6606 35.2199 24.716 35.2005 24.7753C35.1811 24.8347 35.1656 24.89 35.1462 24.9494C35.1268 25.0087 35.1112 25.068 35.0957 25.1273C35.0802 25.1867 35.0646 25.246 35.0491 25.3053C35.0336 25.3646 35.0181 25.424 35.0064 25.4873C34.9948 25.5505 34.9792 25.6099 34.9676 25.6731C34.956 25.7364 34.9443 25.7958 34.9327 25.859C34.921 25.9223 34.9094 25.9856 34.9016 26.0489C34.89 26.1122 34.8822 26.1754 34.8706 26.2387C34.8628 26.302 34.8511 26.3692 34.8434 26.4325C34.8356 26.4958 34.8279 26.563 34.8201 26.6303C34.8123 26.6975 34.8046 26.7608 34.8007 26.828C34.7968 26.8953 34.789 26.9625 34.7852 27.0258C34.7813 27.093 34.7774 27.1603 34.7696 27.2275C34.7657 27.2947 34.7619 27.362 34.758 27.4292C34.758 27.4964 34.7541 27.5637 34.7502 27.6309C34.7502 27.6981 34.7463 27.7654 34.7463 27.8366C34.7463 27.9038 34.7463 27.975 34.7463 28.0422C34.7463 28.1095 34.7463 28.1807 34.7463 28.2479C34.7463 28.3151 34.7463 28.3863 34.7463 28.4536C34.7463 28.5208 34.7463 28.592 34.7502 28.6711C34.7502 28.7502 34.7541 28.8293 34.758 28.9084C34.758 28.9875 34.7619 29.0666 34.7657 29.1457C34.7657 29.2248 34.7735 29.3039 34.7774 29.383C34.7813 29.4621 34.7852 29.5412 34.7929 29.6203C34.7968 29.6994 34.8046 29.7785 34.8084 29.8576C34.8123 29.9367 34.8201 30.0158 34.8279 30.0949C34.8356 30.174 34.8395 30.2531 34.8473 30.3322C34.855 30.4113 34.8628 30.4904 34.8706 30.5695C34.8783 30.6486 34.8861 30.7277 34.8938 30.8068C34.9016 30.8859 34.9094 30.965 34.921 31.0402C34.9288 31.1193 34.9404 31.1984 34.9482 31.2735C34.956 31.3526 34.9676 31.4278 34.9792 31.5069C34.9909 31.586 34.9987 31.6611 35.0103 31.7402C35.0219 31.8193 35.0336 31.8945 35.0414 31.9696C35.0491 32.0448 35.0646 32.1239 35.0763 32.199C35.0879 32.2742 35.0996 32.3493 35.1112 32.4245C35.1229 32.4996 35.1345 32.5748 35.1462 32.6499C35.1578 32.725 35.1695 32.8002 35.185 32.8714C35.2005 32.9426 35.2122 33.0177 35.2238 33.0929C35.2354 33.1641 35.251 33.2392 35.2626 33.3104C35.2743 33.3816 35.2898 33.4567 35.3053 33.5279C35.3208 33.5991 35.3325 33.6703 35.348 33.7415C35.3635 33.8127 35.3752 33.8839 35.3907 33.9511C35.4063 34.0184 35.4218 34.0895 35.4334 34.1568C35.4451 34.224 35.4645 34.2952 35.48 34.3625C35.5033 34.4613 35.5227 34.5602 35.546 34.6551C35.5693 34.75 35.5926 34.845 35.6159 34.9399C35.6392 35.0348 35.6625 35.1258 35.6857 35.2167C35.709 35.3077 35.7323 35.3947 35.7556 35.4817C35.7789 35.5687 35.8022 35.6518 35.8294 35.7388C35.8527 35.8219 35.8798 35.9049 35.9031 35.984C35.9264 36.0631 35.9536 36.1422 35.9808 36.2213C36.0079 36.3004 36.0312 36.3756 36.0584 36.4468C36.0856 36.5219 36.1127 36.5931 36.1399 36.6643C36.1671 36.7355 36.1943 36.8027 36.2214 36.87C36.2486 36.9372 36.2797 37.0044 36.3068 37.0677C36.334 37.131 36.3651 37.1943 36.3922 37.2536C36.4233 37.3129 36.4505 37.3723 36.4815 37.4316C36.5126 37.4909 36.5436 37.5463 36.5747 37.5977C36.6057 37.6531 36.6368 37.7045 36.6717 37.7559C36.7028 37.8073 36.7377 37.8548 36.7688 37.9022C36.8037 37.9497 36.8348 37.9972 36.8697 38.0407C36.9046 38.0842 36.9396 38.1277 36.9745 38.1672C37.0094 38.2068 37.0444 38.2463 37.0832 38.2859C37.1181 38.3254 37.157 38.361 37.1958 38.3927C37.2346 38.4283 37.2734 38.4599 37.3122 38.4916C37.3511 38.5232 37.3899 38.5509 37.4287 38.5786C37.4675 38.6063 37.5102 38.6339 37.549 38.6577C37.5917 38.6814 37.6305 38.7051 37.6732 38.7249C37.7159 38.7447 37.7586 38.7645 37.8052 38.7842C37.8479 38.804 37.8945 38.8198 37.9411 38.8317C37.9877 38.8436 38.0343 38.8594 38.0808 38.8712C38.1274 38.8831 38.174 38.891 38.2245 38.9029C38.271 38.9108 38.3215 38.9187 38.372 38.9227C38.4224 38.9266 38.4729 38.9306 38.5234 38.9345C38.5738 38.9385 38.6282 38.9345 38.6786 38.9345C38.7291 38.9345 38.7873 38.9345 38.8417 38.9266C38.896 38.9187 38.9504 38.9147 39.0086 38.9108C39.0668 38.9029 39.1212 38.895 39.1794 38.8831C39.2376 38.8712 39.2959 38.8594 39.3541 38.8475C39.4123 38.8356 39.4744 38.8198 39.5365 38.8C39.5948 38.7842 39.653 38.7684 39.7112 38.7486C39.7694 38.7289 39.8238 38.713 39.882 38.6933C39.9402 38.6735 39.9946 38.6537 40.0489 38.6339C40.1033 38.6142 40.1576 38.5904 40.212 38.5667C40.2663 38.543 40.3207 38.5192 40.3711 38.4955C40.4255 38.4718 40.4759 38.4441 40.5264 38.4204C40.5769 38.3966 40.6273 38.365 40.6778 38.3413C40.7282 38.3175 40.7787 38.2898 40.8292 38.2661C40.8796 38.2384 40.9262 38.2107 40.9767 38.1831C41.0233 38.1554 41.0737 38.1277 41.1203 38.096C41.1669 38.0644 41.2135 38.0367 41.2601 38.0051C41.3066 37.9734 41.3493 37.9418 41.3959 37.9102C41.4386 37.8785 41.4852 37.8429 41.5279 37.8113C41.5706 37.7796 41.6133 37.744 41.656 37.7084C41.6987 37.6729 41.7414 37.6373 41.7802 37.5977C41.8229 37.5621 41.8617 37.5226 41.9006 37.483C41.9394 37.4435 41.9782 37.4039 42.017 37.3644C42.0558 37.3248 42.0947 37.2853 42.1335 37.2417C42.1723 37.1982 42.2072 37.1587 42.246 37.1152C42.2849 37.0717 42.3198 37.0282 42.3547 36.9847C42.3897 36.9412 42.4246 36.8977 42.4595 36.8502C42.4945 36.8027 42.5255 36.7592 42.5605 36.7118C42.5954 36.6643 42.6265 36.6208 42.6575 36.5733C42.6886 36.5259 42.7196 36.4784 42.7507 36.431C42.7817 36.3835 42.8128 36.3321 42.84 36.2846C42.8671 36.2372 42.8982 36.1857 42.9254 36.1343C42.9525 36.0829 42.9797 36.0315 43.0069 35.9801C43.0341 35.9287 43.0612 35.8733 43.0884 35.8219C43.1156 35.7705 43.1389 35.7151 43.166 35.6597C43.1932 35.6043 43.2165 35.549 43.2398 35.4936C43.2631 35.4382 43.2864 35.3829 43.3097 35.3275C43.333 35.2721 43.3524 35.2128 43.3757 35.1574C43.3951 35.0981 43.4184 35.0427 43.4378 34.9834C43.4572 34.9241 43.4766 34.8647 43.496 34.8054C43.5154 34.7461 43.5348 34.6868 43.5503 34.6274C43.5698 34.5681 43.5853 34.5048 43.6047 34.4455C43.6241 34.3862 43.6396 34.3229 43.6552 34.2596C43.6707 34.1963 43.6862 34.1331 43.7017 34.0698C43.7173 34.0065 43.7289 33.9432 43.7444 33.8799C43.76 33.8166 43.7716 33.7494 43.7833 33.6861C43.7949 33.6229 43.8065 33.5556 43.8182 33.4884C43.8298 33.4211 43.8415 33.3579 43.8492 33.2906C43.8609 33.2234 43.8687 33.1562 43.8764 33.0889C43.8842 33.0217 43.8958 32.9544 43.8997 32.8833C43.9075 32.816 43.9152 32.7448 43.923 32.6776C43.9308 32.6064 43.9346 32.5392 43.9424 32.468C43.9463 32.3968 43.9541 32.3295 43.9579 32.2583C43.9618 32.1872 43.9657 32.116 43.9696 32.0448C43.9696 31.9736 43.9773 31.9024 43.9773 31.8272C43.9773 31.7561 43.9812 31.6809 43.9812 31.6097C43.9812 31.5385 43.9812 31.4634 43.9812 31.3922C43.9812 31.321 43.9812 31.2458 43.9812 31.1707C43.9812 31.0956 43.9812 31.0204 43.9773 30.9453C43.9735 30.8701 43.9735 30.795 43.9696 30.7198C43.9696 30.6447 43.9618 30.5695 43.9579 30.4944C43.9541 30.4192 43.9502 30.3441 43.9424 30.265C43.9385 30.1898 43.9308 30.1107 43.923 30.0356C43.9152 29.9604 43.9075 29.8813 43.8997 29.8022C43.8919 29.7231 43.8842 29.648 43.8764 29.5689C43.8687 29.4898 43.857 29.4146 43.8492 29.3355C43.8415 29.2564 43.8298 29.1813 43.8182 29.1022C43.8065 29.0231 43.7949 28.944 43.7833 28.8688C43.7716 28.7897 43.76 28.7106 43.7444 28.6315C43.7289 28.5524 43.7173 28.4733 43.7017 28.3942C43.6862 28.3151 43.6707 28.236 43.6552 28.1569C43.6396 28.0778 43.6241 27.9987 43.6086 27.9196C43.593 27.8405 43.5736 27.7614 43.5581 27.6823C43.5426 27.6032 43.5232 27.5241 43.5038 27.4411V27.449Z" fill="white"/>
<path d="M49.8655 38.5746C49.8538 38.5311 49.85 38.4876 49.85 38.4401C49.85 38.3927 49.8577 38.3452 49.8732 38.2898C49.8888 38.2345 49.9082 38.1791 49.9392 38.1119C49.9664 38.0525 49.9936 37.9932 50.0208 37.9339C50.0479 37.8746 50.0751 37.8152 50.0984 37.7559C50.1256 37.6966 50.1489 37.6373 50.1721 37.5779C50.1954 37.5186 50.2226 37.4593 50.2459 37.4C50.2692 37.3406 50.2925 37.2813 50.3158 37.222C50.3391 37.1626 50.3585 37.1033 50.3818 37.0479C50.4012 36.9886 50.4206 36.9293 50.44 36.8739C50.4594 36.8186 50.4788 36.7553 50.4943 36.6999C50.5099 36.6445 50.5293 36.5852 50.5448 36.5259C50.5564 36.4863 50.5681 36.4468 50.5797 36.4072C50.5914 36.3677 50.603 36.3281 50.6147 36.2846C50.6263 36.2411 50.638 36.2016 50.6457 36.1581C50.6535 36.1146 50.6651 36.071 50.6768 36.0236C50.6884 35.9761 50.6962 35.9326 50.7078 35.8852C50.7195 35.8377 50.7272 35.7902 50.735 35.7428C50.7428 35.6953 50.7544 35.6439 50.7622 35.5964C50.7699 35.549 50.7816 35.4976 50.7894 35.4422C50.7971 35.3868 50.8049 35.3394 50.8165 35.284C50.8243 35.2326 50.8321 35.1772 50.8398 35.1218C50.8476 35.0665 50.8553 35.0111 50.8631 34.9557C50.8709 34.9003 50.8786 34.845 50.8864 34.7856C50.8942 34.7263 50.9019 34.6709 50.9058 34.6116C50.9136 34.5523 50.9175 34.493 50.9252 34.4336C50.933 34.3743 50.9369 34.315 50.9446 34.2517C50.9524 34.1924 50.9563 34.1291 50.9602 34.0658C50.964 34.0025 50.9718 33.9393 50.9757 33.876C50.9796 33.8127 50.9873 33.7494 50.9912 33.6861C50.9951 33.6229 50.999 33.5556 51.0067 33.4923C51.0106 33.4251 51.0145 33.3618 51.0184 33.2946C51.0223 33.2273 51.0261 33.1601 51.03 33.0929C51.03 33.0256 51.0378 32.9584 51.0417 32.8872C51.0456 32.816 51.0494 32.7488 51.0494 32.6815C51.0494 32.6143 51.0572 32.5431 51.0572 32.4719C51.0572 32.4007 51.0611 32.3295 51.065 32.2583C51.0688 32.1872 51.0688 32.116 51.0727 32.0448C51.0727 31.9736 51.0727 31.9024 51.0766 31.8272C51.0766 31.7561 51.0766 31.6809 51.0805 31.6097C51.0805 31.5385 51.0805 31.4634 51.0805 31.3882C51.0805 31.3131 51.0805 31.2419 51.0805 31.1667C51.0805 31.0916 51.0805 31.0165 51.0805 30.9413C51.0805 30.8662 51.0805 30.791 51.0805 30.7159V30.4865C51.0805 30.4113 51.0805 30.3362 51.0805 30.2571C51.0805 30.1819 51.0805 30.1028 51.0805 30.0277C51.0805 29.9525 51.0805 29.8734 51.0805 29.7983C51.0805 29.7192 51.0805 29.644 51.0805 29.5649C51.0805 29.4858 51.0805 29.4107 51.0766 29.3316C51.0766 29.2525 51.0766 29.1773 51.0688 29.0982C51.0688 29.0191 51.065 28.944 51.0611 28.8649C51.0611 28.7858 51.0572 28.7106 51.0533 28.6315C51.0494 28.5524 51.0494 28.4773 51.0456 28.3982C51.0456 28.3191 51.0378 28.2439 51.0378 28.1648C51.0378 28.0857 51.03 28.0106 51.0261 27.9315C51.0223 27.8524 51.0184 27.7772 51.0145 27.7021C51.0145 27.627 51.0067 27.5479 51.0029 27.4727C50.999 27.3976 50.9951 27.3185 50.9912 27.2433C50.9873 27.1682 50.9834 27.093 50.9796 27.0139C50.9757 26.9348 50.9718 26.8636 50.964 26.7885C50.9563 26.7133 50.9524 26.6382 50.9485 26.563C50.9446 26.4879 50.9369 26.4127 50.933 26.3416C50.9291 26.2664 50.9213 26.1952 50.9175 26.1201C50.9136 26.0449 50.9058 25.9737 50.898 25.9025C50.8903 25.8313 50.8864 25.7562 50.8786 25.685C50.8709 25.6138 50.867 25.5426 50.8592 25.4714C50.8515 25.4002 50.8476 25.3291 50.8398 25.2579C50.8321 25.1867 50.8282 25.1194 50.8204 25.0482C50.8126 24.9771 50.8049 24.9098 50.801 24.8426C50.7971 24.7753 50.7855 24.7081 50.7777 24.6409C50.7699 24.5736 50.7622 24.5064 50.7544 24.4431C50.7467 24.3798 50.7389 24.3126 50.7311 24.2493C50.7234 24.186 50.7156 24.1228 50.7078 24.0595C50.7001 23.9962 50.6923 23.9329 50.6845 23.8736C50.6768 23.8103 50.669 23.751 50.6574 23.6917C50.6496 23.6323 50.6418 23.573 50.6302 23.5137C50.6186 23.4543 50.6108 23.395 50.603 23.3396C50.5953 23.2843 50.5836 23.225 50.5759 23.1696C50.5681 23.1142 50.5564 23.0588 50.5487 23.0035C50.5409 22.9481 50.5293 22.8967 50.5215 22.8453C50.5137 22.7938 50.5021 22.7424 50.4905 22.691C50.4827 22.6396 50.471 22.5921 50.4594 22.5407C50.4478 22.4933 50.44 22.4458 50.4283 22.3983C50.4051 22.2955 50.3818 22.1966 50.3585 22.0978C50.3313 21.9989 50.308 21.904 50.2808 21.813C50.2537 21.722 50.2265 21.6311 50.1954 21.544C50.1644 21.457 50.1372 21.374 50.1062 21.2909C50.0751 21.2079 50.044 21.1288 50.013 21.0536C49.9819 20.9785 49.9509 20.9033 49.9159 20.8321C49.881 20.7609 49.85 20.6897 49.8189 20.6225C49.7878 20.5553 49.7529 20.492 49.7219 20.4287C49.6908 20.3654 49.6559 20.3061 49.6248 20.2507C49.5937 20.1954 49.5627 20.136 49.5316 20.0846C49.5006 20.0292 49.4695 19.9818 49.4424 19.9304C49.4113 19.8829 49.3841 19.8354 49.357 19.788C49.3298 19.7405 49.3026 19.701 49.2793 19.6575C49.2521 19.6179 49.2289 19.5784 49.2056 19.5388C49.1823 19.5032 49.159 19.4637 49.1396 19.432C49.1202 19.3964 49.1008 19.3648 49.0852 19.3371C49.0697 19.3094 49.0542 19.2778 49.0386 19.2501C49.027 19.2224 49.0154 19.1987 49.0037 19.171C48.9959 19.1473 48.9882 19.1235 48.9843 19.1038C48.9765 19.0682 48.9727 19.0326 48.9727 18.997C48.9727 18.9614 48.9727 18.9258 48.9804 18.8862C48.9882 18.8467 48.9959 18.815 49.0115 18.7755C49.0231 18.7399 49.0425 18.7003 49.0619 18.6647C49.0813 18.6292 49.1046 18.5896 49.1279 18.554C49.1551 18.5184 49.1823 18.4789 49.2133 18.4433C49.2444 18.4077 49.2793 18.3681 49.3143 18.3325C49.3492 18.2969 49.3919 18.2574 49.4307 18.2218C49.4734 18.1862 49.5161 18.1466 49.5627 18.111C49.6093 18.0754 49.6597 18.0398 49.7102 18.0003C49.7607 17.9607 49.815 17.9291 49.8694 17.8935C49.9237 17.8579 49.9819 17.8223 50.0402 17.7867C50.0984 17.7511 50.1605 17.7155 50.2226 17.6839C50.2847 17.6483 50.3468 17.6167 50.4128 17.5811C50.4788 17.5455 50.5448 17.5138 50.6147 17.4822C50.6845 17.4505 50.7505 17.4149 50.8204 17.3833C50.8903 17.3517 50.964 17.32 51.0339 17.2884C51.1038 17.2567 51.1814 17.2291 51.2552 17.1974C51.3289 17.1658 51.4027 17.1381 51.4803 17.1104C51.558 17.0827 51.6317 17.055 51.7094 17.0273C51.787 16.9997 51.8646 16.9759 51.9423 16.9522C52.0199 16.9285 52.0975 16.9047 52.1752 16.881C52.2606 16.8573 52.3421 16.8335 52.4275 16.8098C52.5129 16.7861 52.5944 16.7663 52.6798 16.7465C52.7652 16.7268 52.8467 16.7109 52.9282 16.6912C53.0098 16.6714 53.0913 16.6595 53.1728 16.6477C53.2543 16.6318 53.3358 16.62 53.4135 16.6121C53.495 16.6002 53.5726 16.5923 53.6503 16.5844C53.7279 16.5765 53.8055 16.5686 53.8832 16.5646C53.9608 16.5606 54.0346 16.5567 54.1083 16.5527C54.1821 16.5527 54.2558 16.5527 54.3257 16.5527C54.3956 16.5527 54.4655 16.5527 54.5314 16.5606C54.5974 16.5686 54.6634 16.5686 54.7294 16.5765C54.7954 16.5844 54.8536 16.5923 54.9157 16.6042C54.9779 16.616 55.0322 16.6279 55.0904 16.6397C55.1487 16.6516 55.1991 16.6674 55.2496 16.6833C55.3 16.6991 55.3466 16.7188 55.3932 16.7386C55.4398 16.7584 55.4825 16.7821 55.5213 16.8019C55.5601 16.8217 55.5989 16.8494 55.6339 16.8771C55.6688 16.9047 55.6999 16.9324 55.7309 16.9601C55.762 16.9878 55.7853 17.0234 55.8086 17.055C55.8319 17.0867 55.8513 17.1223 55.8668 17.1579C55.8823 17.1935 55.894 17.233 55.9017 17.2726C55.9095 17.3121 55.9134 17.3517 55.9173 17.3952C55.9173 17.4387 55.9173 17.4822 55.9095 17.5296C55.9017 17.5771 55.894 17.6285 55.8784 17.6839C55.8629 17.7393 55.8474 17.7986 55.828 17.8619C55.8047 17.9251 55.7853 17.9884 55.762 18.0517C55.7387 18.115 55.7193 18.1783 55.696 18.2416C55.6766 18.3048 55.6533 18.3681 55.6339 18.4314C55.6145 18.4947 55.5951 18.558 55.5718 18.6212C55.5524 18.6845 55.533 18.7478 55.5135 18.8071C55.4941 18.8704 55.4747 18.9297 55.4592 18.993C55.4398 19.0563 55.4243 19.1156 55.4049 19.1789C55.3854 19.2422 55.3699 19.3015 55.3544 19.3648C55.3389 19.4281 55.3233 19.4874 55.3078 19.5467C55.2923 19.6061 55.2768 19.6693 55.2651 19.7287C55.2496 19.788 55.2379 19.8473 55.2263 19.9106C55.2146 19.9581 55.2069 20.0095 55.1952 20.0609C55.1836 20.1123 55.1758 20.1637 55.1642 20.2151C55.1525 20.2666 55.1448 20.318 55.1331 20.3733C55.1215 20.4287 55.1137 20.4801 55.106 20.5355C55.0982 20.5909 55.0865 20.6462 55.0788 20.6977C55.071 20.7491 55.0594 20.8084 55.0516 20.8638C55.0438 20.9191 55.0322 20.9785 55.0244 21.0338C55.0167 21.0892 55.0089 21.1485 54.9973 21.2079C54.9895 21.2672 54.9817 21.3265 54.974 21.3858C54.9662 21.4452 54.9584 21.5045 54.9507 21.5638C54.9429 21.6231 54.9352 21.6864 54.9274 21.7458C54.9196 21.8051 54.9119 21.8684 54.9041 21.9316C54.8963 21.9949 54.8886 22.0582 54.8847 22.1215C54.8808 22.1848 54.8692 22.248 54.8653 22.3113C54.8614 22.3746 54.8536 22.4379 54.8459 22.5051C54.8381 22.5724 54.8342 22.6356 54.8265 22.6989C54.8187 22.7622 54.8148 22.8294 54.8071 22.8967C54.7993 22.9639 54.7954 23.0312 54.7915 23.0944C54.7876 23.1577 54.7799 23.2289 54.776 23.2961C54.7721 23.3634 54.7644 23.4306 54.7605 23.4979C54.7566 23.5651 54.7527 23.6363 54.7449 23.7035C54.7372 23.7708 54.7372 23.8419 54.7333 23.9092C54.7294 23.9804 54.7255 24.0476 54.7217 24.1188C54.7178 24.19 54.7139 24.2572 54.71 24.3284C54.7061 24.3996 54.7022 24.4668 54.6984 24.538C54.6945 24.6092 54.6906 24.6804 54.6867 24.7516C54.6867 24.8228 54.679 24.894 54.679 24.9652C54.679 25.0364 54.6751 25.1076 54.6712 25.1788C54.6673 25.25 54.6673 25.3211 54.6634 25.3923C54.6595 25.4635 54.6595 25.5347 54.6557 25.6099C54.6518 25.685 54.6557 25.7522 54.6518 25.8274C54.6479 25.9025 54.6518 25.9698 54.6479 26.0449C54.6479 26.1161 54.6479 26.1913 54.6479 26.2625C54.6479 26.3336 54.6479 26.4088 54.6479 26.48C54.6479 26.5512 54.6479 26.6263 54.6479 26.6975C54.6479 26.7687 54.6479 26.8438 54.6479 26.915C54.6479 26.9862 54.6479 27.0614 54.6479 27.1326C54.6479 27.2038 54.6479 27.2789 54.6479 27.3501C54.6479 27.4213 54.6479 27.4964 54.6479 27.5676C54.6479 27.6388 54.6479 27.714 54.6479 27.7852C54.6479 27.8563 54.6479 27.9315 54.6518 28.0027C54.6518 28.0739 54.6518 28.1451 54.6557 28.2202C54.6595 28.2954 54.6595 28.3626 54.6634 28.4377C54.6673 28.5129 54.6673 28.5801 54.6712 28.6553C54.6751 28.7304 54.6751 28.7977 54.679 28.8688C54.679 28.94 54.6867 29.0112 54.6867 29.0824C54.6867 29.1536 54.6945 29.2248 54.6984 29.296C54.6984 29.3672 54.7061 29.4384 54.71 29.5096C54.7139 29.5808 54.7178 29.652 54.7217 29.7192C54.7255 29.7864 54.7294 29.8576 54.7372 29.9288C54.7411 30 54.7449 30.0672 54.7527 30.1384C54.7566 30.2096 54.7644 30.2769 54.7682 30.3441C54.7721 30.4113 54.7799 30.4825 54.7838 30.5498C54.7915 30.617 54.7954 30.6882 54.8032 30.7554C54.8109 30.8227 54.8148 30.8899 54.8226 30.9571C54.8303 31.0244 54.8342 31.0916 54.842 31.1588C54.8498 31.2261 54.8575 31.2933 54.8653 31.3566C54.873 31.4199 54.8808 31.4832 54.8886 31.5425C54.8963 31.6018 54.9041 31.6611 54.9119 31.7205C54.9196 31.7798 54.9274 31.8391 54.939 31.8984C54.9507 31.9578 54.9584 32.0171 54.9662 32.0764C54.974 32.1357 54.9856 32.1911 54.9934 32.2504C55.0011 32.3098 55.0128 32.3651 55.0206 32.4205C55.0283 32.4759 55.04 32.5352 55.0516 32.5906C55.0633 32.6459 55.071 32.7013 55.0827 32.7567C55.0943 32.8121 55.1021 32.8674 55.1137 32.9228C55.1254 32.9782 55.137 33.0296 55.1487 33.085C55.1603 33.1403 55.1719 33.1917 55.1836 33.2432C55.1952 33.2946 55.2069 33.346 55.2185 33.4014C55.2302 33.4567 55.2418 33.5042 55.2573 33.5556C55.269 33.607 55.2845 33.6545 55.2962 33.7059C55.3195 33.7929 55.3427 33.8799 55.366 33.9669C55.3893 34.054 55.4165 34.1331 55.4398 34.2161C55.4631 34.2992 55.4903 34.3783 55.5174 34.4574C55.5446 34.5365 55.5718 34.6116 55.5989 34.6868C55.6261 34.7619 55.6572 34.8331 55.6843 34.9043C55.7115 34.9755 55.7426 35.0427 55.7736 35.11C55.8047 35.1772 55.8357 35.2405 55.8707 35.3038C55.9017 35.367 55.9367 35.4264 55.9716 35.4857C56.0065 35.545 56.0415 35.6004 56.0764 35.6558C56.1114 35.7111 56.1463 35.7625 56.1851 35.814C56.2239 35.8654 56.2589 35.9128 56.2977 35.9563C56.3365 36.0038 56.3753 36.0434 56.4141 36.0869C56.453 36.1304 56.4957 36.166 56.5345 36.2016C56.5772 36.2372 56.616 36.2688 56.6587 36.3004C56.7014 36.3321 56.7441 36.3598 56.7868 36.3835C56.8295 36.4072 56.8761 36.431 56.9188 36.4507C56.9654 36.4705 57.0081 36.4863 57.0546 36.5021C57.1012 36.518 57.1478 36.5298 57.1983 36.5377C57.2448 36.5457 57.2953 36.5536 57.3458 36.5575C57.3962 36.5575 57.4467 36.5575 57.4972 36.5575C57.5476 36.5575 57.602 36.5496 57.6524 36.5377C57.7029 36.5298 57.7572 36.514 57.8116 36.4982C57.8737 36.4784 57.9319 36.4586 57.9902 36.4389C58.0484 36.4151 58.1027 36.3914 58.1571 36.3677C58.2114 36.34 58.2658 36.3123 58.3162 36.2846C58.3667 36.2569 58.4172 36.2253 58.4637 36.1897C58.5103 36.1541 58.5569 36.1225 58.6035 36.0829C58.6501 36.0473 58.6928 36.0078 58.7355 35.9682C58.7782 35.9287 58.8209 35.8852 58.8597 35.8456C58.8985 35.8021 58.9373 35.7586 58.9761 35.7111C59.015 35.6637 59.0499 35.6202 59.0848 35.5687C59.1198 35.5213 59.1547 35.4699 59.1858 35.4185C59.2168 35.367 59.2518 35.3156 59.2828 35.2603C59.3139 35.2049 59.3449 35.1535 59.3721 35.0981C59.4031 35.0427 59.4303 34.9874 59.4575 34.928C59.4847 34.8687 59.5118 34.8094 59.5351 34.75C59.5584 34.6907 59.5856 34.6314 59.6089 34.5681C59.6322 34.5048 59.6555 34.4455 59.6788 34.3822C59.7021 34.3189 59.7253 34.2557 59.7448 34.1924C59.7642 34.1291 59.7875 34.0619 59.8069 33.9986C59.8263 33.9353 59.8457 33.8681 59.8651 33.8008C59.8845 33.7336 59.9039 33.6664 59.9233 33.5991C59.9427 33.5319 59.9621 33.4646 59.9777 33.3935C59.9971 33.3262 60.0126 33.255 60.0281 33.1878C60.0437 33.1206 60.0631 33.0494 60.0786 32.9782C60.0941 32.9109 60.1135 32.8397 60.1291 32.7725C60.1446 32.7053 60.164 32.6341 60.1834 32.5629C60.2028 32.4917 60.2183 32.4245 60.2377 32.3533C60.2572 32.2821 60.2766 32.2148 60.296 32.1437C60.3154 32.0725 60.3348 32.0052 60.3542 31.934C60.3736 31.8628 60.393 31.7956 60.4163 31.7284C60.4357 31.6611 60.459 31.5939 60.4823 31.5267C60.5056 31.4594 60.525 31.3961 60.5483 31.3289C60.5716 31.2617 60.5949 31.2023 60.6182 31.1391C60.6415 31.0758 60.6686 31.0125 60.6919 30.9532C60.7191 30.8899 60.7424 30.8227 60.7657 30.7594C60.789 30.6961 60.8161 30.6368 60.8433 30.5774C60.8705 30.5181 60.8977 30.4627 60.9248 30.4113C60.952 30.3599 60.9792 30.3045 61.0102 30.2571C61.0374 30.2096 61.0685 30.1622 61.0995 30.1187C61.1306 30.0751 61.1577 30.0356 61.1888 29.996C61.2198 29.9565 61.2509 29.9209 61.282 29.8893C61.313 29.8576 61.3479 29.8299 61.379 29.8022C61.4139 29.7785 61.445 29.7548 61.4799 29.735C61.5265 29.7113 61.5692 29.6915 61.6158 29.6757C61.6624 29.6599 61.7051 29.652 61.7478 29.648C61.7905 29.644 61.8332 29.644 61.8798 29.648C61.9225 29.652 61.9652 29.6599 62.0079 29.6757C62.0506 29.6915 62.0933 29.7073 62.1321 29.7271C62.1709 29.7469 62.2136 29.7746 62.2563 29.8062C62.299 29.8378 62.3378 29.8695 62.3766 29.9051C62.4155 29.9407 62.4543 29.9842 62.4931 30.0277C62.5319 30.0712 62.5707 30.1187 62.6095 30.1701C62.6484 30.2215 62.6833 30.2769 62.7221 30.3362C62.7571 30.3916 62.7959 30.4509 62.8308 30.5102C62.8657 30.5695 62.9007 30.6368 62.9356 30.704C62.9706 30.7712 63.0016 30.8424 63.0327 30.9176C63.0637 30.9927 63.0948 31.0679 63.1258 31.147C63.1569 31.2261 63.1879 31.3091 63.2151 31.3961C63.2423 31.4832 63.2733 31.5702 63.3005 31.6611C63.3277 31.7521 63.3549 31.847 63.382 31.9419C63.3976 32.0013 63.4131 32.0566 63.4247 32.112C63.4364 32.1674 63.4519 32.2228 63.4635 32.2781C63.4752 32.3335 63.4868 32.3889 63.4946 32.4442C63.5062 32.4996 63.514 32.555 63.5218 32.6064C63.5295 32.6578 63.5373 32.7132 63.5451 32.7646C63.5528 32.816 63.5567 32.8714 63.5606 32.9228C63.5645 32.9742 63.5684 33.0256 63.5722 33.0771C63.5722 33.1285 63.5761 33.1799 63.5761 33.2313C63.5761 33.2827 63.5761 33.3302 63.5761 33.3816C63.5761 33.433 63.5761 33.4805 63.5684 33.5319C63.5684 33.5793 63.5606 33.6308 63.5567 33.6782C63.5528 33.7257 63.5451 33.7731 63.5373 33.8246C63.5295 33.876 63.5218 33.9195 63.514 33.9669C63.5062 34.0144 63.4946 34.0619 63.483 34.1054C63.4713 34.1528 63.4597 34.1963 63.448 34.2438C63.4364 34.2913 63.4208 34.3348 63.4053 34.3822C63.3898 34.4297 63.3743 34.4732 63.3587 34.5167C63.3432 34.5602 63.3238 34.6037 63.3044 34.6472C63.285 34.6907 63.2656 34.7342 63.2462 34.7777C63.2268 34.8212 63.2035 34.8647 63.1802 34.9083C63.1569 34.9518 63.1336 34.9953 63.1064 35.0348C63.0792 35.0783 63.056 35.1179 63.0288 35.1614C63.0016 35.2049 62.9744 35.2444 62.9434 35.284C62.9123 35.3235 62.8852 35.367 62.8541 35.4066C62.823 35.4461 62.792 35.4857 62.7571 35.5252C62.7221 35.5648 62.6872 35.6043 62.6522 35.6439C62.6173 35.6834 62.5785 35.723 62.5436 35.7625C62.5047 35.8021 62.4659 35.8416 62.4271 35.8772C62.3883 35.9128 62.3456 35.9524 62.3029 35.9919C62.2602 36.0315 62.2175 36.0671 62.1748 36.1027C62.1321 36.1383 62.0855 36.1778 62.0389 36.2134C61.9923 36.249 61.9458 36.2846 61.8953 36.3242C61.8487 36.3598 61.7982 36.3954 61.7478 36.431C61.6973 36.4666 61.643 36.5021 61.5925 36.5377C61.542 36.5733 61.4838 36.6089 61.4295 36.6445C61.3751 36.6801 61.3169 36.7157 61.2587 36.7474C61.2004 36.783 61.1422 36.8146 61.084 36.8502C61.0258 36.8818 60.9636 36.9174 60.9015 36.9491C60.8394 36.9807 60.7773 37.0163 60.7113 37.0479C60.6453 37.0796 60.5832 37.1152 60.5134 37.1468C60.4435 37.1785 60.3775 37.2101 60.3115 37.2417C60.2416 37.2734 60.1718 37.305 60.1019 37.3367C60.032 37.3683 59.9583 37.4 59.8845 37.4316C59.8107 37.4632 59.737 37.4949 59.6594 37.5226C59.5817 37.5502 59.5041 37.5819 59.4264 37.6135C59.3488 37.6452 59.2673 37.6729 59.1858 37.7045C59.1042 37.7361 59.0227 37.7638 58.9412 37.7915C58.8558 37.8192 58.7743 37.8508 58.6889 37.8785C58.6035 37.9062 58.5142 37.9378 58.4288 37.9655C58.3395 37.9932 58.2502 38.0209 58.161 38.0486C58.0717 38.0763 57.9785 38.104 57.8854 38.1316C57.7922 38.1593 57.699 38.187 57.602 38.2147C57.5049 38.2424 57.4079 38.2701 57.3108 38.2938C57.2138 38.3175 57.1129 38.3452 57.0119 38.3729C56.911 38.4006 56.8101 38.4243 56.7053 38.452C56.6276 38.4718 56.5461 38.4916 56.4646 38.5113C56.3831 38.5311 56.3054 38.5509 56.2239 38.5707C56.1424 38.5904 56.0609 38.6102 55.9794 38.63C55.8979 38.6498 55.8163 38.6695 55.7348 38.6854C55.6533 38.7051 55.5718 38.7249 55.4903 38.7407C55.4087 38.7605 55.3272 38.7763 55.2418 38.7961C55.1564 38.8159 55.0788 38.8317 54.9934 38.8475C54.908 38.8633 54.8303 38.8831 54.7449 38.8989C54.6634 38.9147 54.5819 38.9306 54.5004 38.9464C54.4189 38.9622 54.3374 38.978 54.2558 38.9938C54.1743 39.0097 54.0928 39.0215 54.0113 39.0374C53.9298 39.0532 53.8482 39.065 53.7706 39.0769C53.693 39.0888 53.6115 39.1046 53.5338 39.1165C53.4562 39.1283 53.3785 39.1402 53.3009 39.1521C53.2233 39.1639 53.1456 39.1718 53.068 39.1837C52.9904 39.1956 52.9166 39.2035 52.8428 39.2114C52.7691 39.2193 52.6953 39.2272 52.6216 39.2351C52.5478 39.243 52.4741 39.2509 52.4042 39.2549C52.3343 39.2628 52.2606 39.2667 52.1907 39.2747C52.1208 39.2826 52.051 39.2786 51.985 39.2786C51.919 39.2786 51.8491 39.2786 51.787 39.2786C51.7249 39.2786 51.6589 39.2747 51.5929 39.2707C51.5269 39.2667 51.4687 39.2628 51.4066 39.2588C51.3445 39.2549 51.2862 39.2509 51.228 39.243C51.1698 39.2351 51.1154 39.2312 51.0611 39.2232C51.0067 39.2153 50.9524 39.2074 50.9019 39.1995C50.8515 39.1916 50.801 39.1797 50.7505 39.1679C50.704 39.156 50.6535 39.1441 50.6108 39.1323C50.5681 39.1204 50.5215 39.1046 50.4827 39.0927C50.44 39.0769 50.4012 39.0611 50.3624 39.0453C50.3235 39.0294 50.2886 39.0136 50.2537 38.9938C50.2187 38.9741 50.1877 38.9583 50.1566 38.9345C50.1256 38.9147 50.0984 38.895 50.0712 38.8712C50.044 38.8475 50.0208 38.8238 50.0013 38.8C49.9819 38.7763 49.9586 38.7526 49.9431 38.7249C49.9276 38.6972 49.9121 38.6695 49.8965 38.6418C49.881 38.6142 49.8732 38.5825 49.8655 38.5548V38.5746Z" fill="white"/>
</svg>
