<svg width="49" height="49" viewBox="0 0 49 49" fill="none" xmlns="http://www.w3.org/2000/svg">
<path fill-rule="evenodd" clip-rule="evenodd" d="M24.8538 1C11.5715 1 0.833984 11.7708 0.833984 25.0957C0.833984 35.7471 7.71387 44.7632 17.2581 47.9543C18.4514 48.1942 18.8885 47.4358 18.8885 46.7979C18.8885 46.2393 18.8491 44.3245 18.8491 42.3295C12.1674 43.7659 10.776 39.4571 10.776 39.4571C9.70217 36.6645 8.11114 35.9468 8.11114 35.9468C5.9242 34.4707 8.27044 34.4707 8.27044 34.4707C10.6963 34.6303 11.9692 36.9441 11.9692 36.9441C14.1163 40.614 17.5762 39.577 18.9681 38.9386C19.1667 37.3827 19.8034 36.3057 20.4795 35.7074C15.1503 35.1488 9.54336 33.0744 9.54336 23.8189C9.54336 21.1859 10.4972 19.0318 12.0086 17.3564C11.7701 16.7582 10.9348 14.2843 12.2475 10.9733C12.2475 10.9733 14.2756 10.3348 18.8486 13.4466C20.8065 12.9192 22.8256 12.6509 24.8538 12.6486C26.882 12.6486 28.9494 12.9282 30.8586 13.4466C35.432 10.3348 37.4602 10.9733 37.4602 10.9733C38.7729 14.2843 37.9371 16.7582 37.6986 17.3564C39.2498 19.0318 40.1643 21.1859 40.1643 23.8189C40.1643 33.0744 34.5574 35.1086 29.1884 35.7074C30.0635 36.4653 30.8187 37.9012 30.8187 40.1753C30.8187 43.4066 30.7794 45.9999 30.7794 46.7974C30.7794 47.4358 31.217 48.1942 32.4098 47.9548C41.954 44.7627 48.8339 35.7471 48.8339 25.0957C48.8732 11.7708 38.0964 1 24.8538 1Z" fill="#272727"/>
</svg>
