<svg width="49" height="49" viewBox="0 0 49 49" fill="none" xmlns="http://www.w3.org/2000/svg">
<path fill-rule="evenodd" clip-rule="evenodd" d="M41.8327 41.8334H34.7098V29.7015C34.7098 26.3753 33.4459 24.5164 30.8132 24.5164C27.9491 24.5164 26.4527 26.4508 26.4527 29.7015V41.8334H19.5882V18.7223H26.4527V21.8354C26.4527 21.8354 28.5167 18.0162 33.4211 18.0162C38.3231 18.0162 41.8327 21.0097 41.8327 27.2009V41.8334ZM11.3989 15.6961C9.06072 15.6961 7.16602 13.7865 7.16602 11.4314C7.16602 9.07632 9.06072 7.16675 11.3989 7.16675C13.7371 7.16675 15.6307 9.07632 15.6307 11.4314C15.6307 13.7865 13.7371 15.6961 11.3989 15.6961ZM7.85438 41.8334H15.0123V18.7223H7.85438V41.8334Z" fill="#272727"/>
</svg>
